<svg width="18" height="18" viewBox="0 0 18 18" fill="none" xmlns="http://www.w3.org/2000/svg">
<path fill-rule="evenodd" clip-rule="evenodd" d="M4.81477 1.5C3.20091 1.5 1.88477 2.81614 1.88477 4.43V13.57C1.88477 15.1839 3.20091 16.5 4.81477 16.5H13.1848C14.7986 16.5 16.1148 15.1839 16.1148 13.57V6.09C16.1148 5.81386 16.3386 5.59 16.6148 5.59C16.8909 5.59 17.1148 5.81386 17.1148 6.09V13.57C17.1148 15.7361 15.3509 17.5 13.1848 17.5H4.81477C2.64863 17.5 0.884768 15.7361 0.884768 13.57V4.43C0.884768 2.26386 2.64863 0.5 4.81477 0.5H11.5148C11.7909 0.5 12.0148 0.723858 12.0148 1C12.0148 1.27614 11.7909 1.5 11.5148 1.5H4.81477Z" fill="black"/>
<path fill-rule="evenodd" clip-rule="evenodd" d="M5.18477 4.01C4.6601 4.01 4.23477 4.43533 4.23477 4.96C4.23477 5.48467 4.6601 5.91 5.18477 5.91C5.70944 5.91 6.13477 5.48467 6.13477 4.96C6.13477 4.43533 5.70944 4.01 5.18477 4.01ZM3.23477 4.96C3.23477 3.88304 4.10781 3.01 5.18477 3.01C6.26172 3.01 7.13477 3.88304 7.13477 4.96C7.13477 6.03696 6.26172 6.91 5.18477 6.91C4.10781 6.91 3.23477 6.03696 3.23477 4.96Z" fill="black"/>
<path fill-rule="evenodd" clip-rule="evenodd" d="M11.0616 8.74972L11.0609 8.75047L8.12243 11.9389C8.02529 12.0443 7.88757 12.1029 7.74425 12.0999C7.60094 12.0969 7.46581 12.0325 7.37318 11.9231L6.21178 10.5514C5.92037 10.2042 5.40983 10.1328 5.03447 10.3797L1.75091 13.9105C1.56286 14.1127 1.24648 14.1242 1.04427 13.9361C0.842053 13.7481 0.830573 13.4317 1.01863 13.2295L4.33863 9.6595C4.36042 9.63606 4.38441 9.61478 4.41027 9.59593C5.21192 9.01168 6.3375 9.14666 6.977 9.90766L6.97775 9.90856L7.77065 10.845L10.3271 8.07115L10.3286 8.06953C11.0471 7.29684 12.241 7.25743 13.0117 7.96062C13.0309 7.97806 13.0486 7.99697 13.0648 8.01717L16.9948 12.9172C17.1676 13.1326 17.133 13.4473 16.9176 13.62C16.7022 13.7928 16.3875 13.7582 16.2147 13.5428L12.3117 8.67641C11.9426 8.36393 11.3953 8.39169 11.0616 8.74972Z" fill="black"/>
<path fill-rule="evenodd" clip-rule="evenodd" d="M14.3748 1.01C14.6509 1.01 14.8748 1.23386 14.8748 1.51V4.96C14.8748 5.23614 14.6509 5.46 14.3748 5.46C14.0986 5.46 13.8748 5.23614 13.8748 4.96V1.51C13.8748 1.23386 14.0986 1.01 14.3748 1.01Z" fill="black"/>
<path fill-rule="evenodd" clip-rule="evenodd" d="M12.1548 3.23C12.1548 2.95386 12.3786 2.73 12.6548 2.73H16.1048C16.3809 2.73 16.6048 2.95386 16.6048 3.23C16.6048 3.50614 16.3809 3.73 16.1048 3.73H12.6548C12.3786 3.73 12.1548 3.50614 12.1548 3.23Z" fill="black"/>
</svg>
