<svg width="27" height="17" viewBox="0 0 27 17" fill="none" xmlns="http://www.w3.org/2000/svg">
<path d="M25.56 0H1.44C0.64471 0 5.11507e-07 0.646383 5.11507e-07 1.44374V15.5563C5.11507e-07 16.3536 0.64471 17 1.44 17H25.56C26.3553 17 27 16.3536 27 15.5563V1.44374C27 0.646383 26.3553 0 25.56 0Z" fill="#2557D6"/>
<path fill-rule="evenodd" clip-rule="evenodd" d="M9.68771e-05 7.98333H1.29697L1.58938 7.27914H2.24405L2.5357 7.98333H5.08739V7.44496L5.31516 7.98562H6.6398L6.86757 7.43692V7.98333H13.209L13.206 6.82741H13.3287C13.4147 6.83038 13.4397 6.83831 13.4397 6.97993V7.98333H16.7196V7.71424C16.9841 7.85576 17.3956 7.98333 17.937 7.98333H19.3168L19.6121 7.27914H20.2668L20.5556 7.98333H23.2145V7.31443L23.6172 7.98333H25.7479V3.56162H23.6392V4.08383L23.3439 3.56162H21.1802V4.08383L20.909 3.56162H17.9863C17.497 3.56162 17.067 3.6298 16.7196 3.81981V3.56162H14.7026V3.81981C14.4816 3.62397 14.1803 3.56162 13.8454 3.56162H6.47669L5.98227 4.70367L5.47453 3.56162H3.15358V4.08383L2.89861 3.56162H0.919207L0 5.66394L9.68771e-05 7.98333ZM8.18637 7.34553H7.40825L7.40538 4.86253L6.30476 7.34553H5.63832L4.53483 4.86033V7.34553H2.99104L2.69939 6.63838H1.11901L0.824386 7.34553H1.79815e-06L1.35922 4.17518H2.48695L3.77788 7.17685V4.17518H5.0167L6.01004 6.32588L6.92255 4.17518H8.18628L8.18637 7.34553ZM2.43998 5.98042L1.92047 4.71655L1.40392 5.98042H2.43998ZM11.2831 7.34553H8.7475V4.17518H11.2831V4.83537H9.50656V5.40683H11.2405V6.05669H9.50656V6.68983H11.2831V7.34553ZM14.8563 5.02901C14.8563 5.53449 14.5184 5.79564 14.3215 5.87405C14.4876 5.93716 14.6294 6.04866 14.6969 6.14104C14.8041 6.29872 14.8226 6.43958 14.8226 6.72272V7.34553H14.057L14.0541 6.94572C14.0541 6.75495 14.0724 6.4806 13.9343 6.32808C13.8234 6.21658 13.6544 6.19239 13.3811 6.19239H12.5663V7.34553H11.8073V4.17518H13.5531C13.941 4.17518 14.2268 4.18541 14.4722 4.32703C14.7124 4.46865 14.8563 4.67539 14.8563 5.02901ZM13.8968 5.49978C13.7925 5.56299 13.6691 5.56509 13.5214 5.56509H12.5993V4.86091H13.5339C13.6662 4.86091 13.8042 4.86684 13.8938 4.9181C13.9923 4.96428 14.0532 5.06258 14.0532 5.19837C14.0532 5.33693 13.9953 5.44843 13.8968 5.49978ZM16.0736 7.34553H15.2991V4.17518H16.0736V7.34553ZM25.0642 7.34553H23.9886L22.5499 4.96599V7.34553H21.0041L20.7087 6.63838H19.132L18.8454 7.34553H17.9572C17.5883 7.34553 17.1211 7.26406 16.8566 6.99487C16.5898 6.72569 16.4511 6.36107 16.4511 5.78455C16.4511 5.31436 16.534 4.88452 16.8602 4.54486C17.1056 4.29184 17.4899 4.17518 18.013 4.17518H18.7478V4.8545H18.0284C17.7514 4.8545 17.595 4.89562 17.4443 5.0423C17.3149 5.1758 17.2261 5.42815 17.2261 5.76045C17.2261 6.10011 17.2937 6.345 17.4348 6.50498C17.5517 6.63045 17.764 6.6685 17.9638 6.6685H18.3047L19.3745 4.17527H20.5118L21.7969 7.17398V4.17527H22.9526L24.2868 6.38325V4.17527H25.0642V7.34553ZM20.4505 5.98042L19.9253 4.71655L19.4029 5.98042H20.4505Z" fill="white"/>
<path fill-rule="evenodd" clip-rule="evenodd" d="M26.9984 12.4077C26.8141 12.6769 26.4548 12.8134 25.9684 12.8134H24.5026V12.1334H25.9625C26.1073 12.1334 26.2086 12.1144 26.2696 12.0549C26.3225 12.0058 26.3594 11.9346 26.3594 11.848C26.3594 11.7557 26.3225 11.6823 26.2667 11.6383C26.2116 11.5899 26.1314 11.568 25.9992 11.568C25.2865 11.5438 24.3974 11.5899 24.3974 10.5865C24.3974 10.1265 24.6899 9.64235 25.4864 9.64235H26.9983V9.01142H25.5936C25.1697 9.01142 24.8618 9.11278 24.6437 9.27037V9.01142H22.5659C22.2336 9.01142 21.8436 9.09365 21.6591 9.27037V9.01142H17.9488V9.27037C17.6535 9.0577 17.1552 9.01142 16.9253 9.01142H14.4779V9.27037C14.2443 9.0445 13.7248 9.01142 13.4081 9.01142H10.6691L10.0423 9.68863L9.45525 9.01142H5.36369V13.4362H9.37824L10.0241 12.7483L10.6325 13.4362L13.1071 13.4384V12.3975H13.3504C13.6787 12.4026 14.0659 12.3894 14.4076 12.2419V13.4361H16.4487V12.2828H16.5471C16.6728 12.2828 16.6852 12.288 16.6852 12.4134V13.436H22.8856C23.2793 13.436 23.6907 13.3354 23.9186 13.1528V13.436H25.8854C26.2946 13.436 26.6943 13.3787 26.9984 13.232V12.4077ZM14.7043 10.7058C14.7043 11.5867 14.046 11.7685 13.3825 11.7685H12.4355V12.8322H10.9601L10.0255 11.7824L9.05421 12.8322H6.04765V9.66106H9.10047L10.0343 10.7005L10.9998 9.66106H13.4252C14.0275 9.66106 14.7043 9.82754 14.7043 10.7058ZM8.6698 12.1652H6.80361V11.5342H8.47V10.8872H6.80361V10.3107H8.70658L9.53681 11.2348L8.6698 12.1652ZM11.6768 12.5283L10.5114 11.2366L11.6768 9.98588V12.5283ZM13.4002 11.1183H12.4193V10.3107H13.409C13.683 10.3107 13.8732 10.4222 13.8732 10.6995C13.8732 10.9738 13.6918 11.1183 13.4002 11.1183ZM18.5389 9.66106H21.0722V10.3169H19.2948V10.8934H21.0289V11.5404H19.2948V12.1713L21.0722 12.1742V12.8322H18.5389V9.66106ZM17.565 11.3585C17.734 11.4208 17.8721 11.5323 17.9368 11.6247C18.044 11.7795 18.0595 11.924 18.0626 12.2035V12.8322H17.3006V12.4354C17.3006 12.2447 17.319 11.9622 17.1779 11.8147C17.067 11.7011 16.8979 11.674 16.621 11.674H15.8098V12.8322H15.0471V9.66106H16.7995C17.1838 9.66106 17.4637 9.67799 17.7128 9.81071C17.9524 9.9552 18.103 10.1531 18.103 10.5149C18.1029 11.021 17.7648 11.2793 17.565 11.3585ZM17.136 10.9576C17.0344 11.0178 16.9089 11.0229 16.7612 11.0229H15.8391V10.3107H16.7737C16.9089 10.3107 17.0441 10.3136 17.136 10.368C17.2343 10.4193 17.2931 10.5175 17.2931 10.6532C17.2931 10.7889 17.2343 10.8982 17.136 10.9576ZM23.9881 11.1596C24.1359 11.3123 24.2151 11.5051 24.2151 11.8315C24.2151 12.5137 23.7882 12.8321 23.0227 12.8321H21.5443V12.1521H23.0168C23.1607 12.1521 23.2628 12.1331 23.3268 12.0736C23.379 12.0245 23.4165 11.9533 23.4165 11.8667C23.4165 11.7744 23.3759 11.701 23.3238 11.657C23.2658 11.6087 23.1857 11.5867 23.0535 11.5867C22.3437 11.5625 21.4548 11.6087 21.4548 10.6052C21.4548 10.1452 21.7442 9.66106 22.54 9.66106H24.0616V10.336H22.6693C22.5312 10.336 22.4415 10.3411 22.3652 10.3933C22.282 10.4446 22.2512 10.5208 22.2512 10.6214C22.2512 10.7411 22.3218 10.8224 22.4173 10.8576C22.4973 10.8854 22.5834 10.8936 22.7127 10.8936L23.1213 10.9046C23.5333 10.9146 23.8161 10.9858 23.9881 11.1596ZM27 10.3107H25.6166C25.4785 10.3107 25.3868 10.3159 25.3095 10.368C25.2294 10.4193 25.1986 10.4955 25.1986 10.5961C25.1986 10.7158 25.2662 10.7971 25.3645 10.8323C25.4446 10.8602 25.5306 10.8683 25.6571 10.8683L26.0684 10.8793C26.4836 10.8895 26.7606 10.9608 26.9296 11.1345C26.9603 11.1587 26.9788 11.1859 27 11.213V10.3107Z" fill="white"/>
</svg>
