<svg width="10" height="14" viewBox="0 0 10 14" fill="none" xmlns="http://www.w3.org/2000/svg">
<path d="M1.36852 5.59092C1.36852 4.97373 1.35791 4.36666 1.37042 3.75998C1.40226 2.23704 2.07257 1.09767 3.38816 0.399868C5.52836 -0.735614 8.20314 0.665437 8.57659 3.10423C8.62777 3.43756 8.62701 3.78101 8.63346 4.11978C8.64256 4.60925 8.63573 5.09873 8.63573 5.57223C8.82909 5.6139 9.01449 5.63181 9.18434 5.6945C9.66432 5.87168 9.99379 6.34402 9.9953 6.86776C10.0002 8.82058 10.0021 10.773 9.9953 12.7259C9.99265 13.4431 9.42395 13.9965 8.70815 13.998C7.11428 14.0011 5.52002 13.9992 3.92615 13.9992C3.06514 13.9992 2.20451 14 1.3435 13.9992C0.546562 13.9984 0.00667777 13.4455 0.00629864 12.6289C0.00554037 10.759 0.0195683 8.88873 -0.000146615 7.01884C-0.00924579 6.16061 0.619735 5.57846 1.31393 5.60261C1.3272 5.603 1.34047 5.59676 1.36852 5.59092ZM5.00099 6.53638C3.78549 6.53638 2.56999 6.53638 1.35449 6.53638C1.04626 6.53638 0.913942 6.6715 0.913942 6.98652C0.913942 8.86108 0.913942 10.736 0.913942 12.6106C0.913942 12.9342 1.04474 13.0666 1.36359 13.0666C3.78966 13.0666 6.21573 13.0666 8.64218 13.0666C8.95989 13.0666 9.08993 12.9338 9.08993 12.6086C9.08993 10.7388 9.08993 8.86887 9.08993 6.99937C9.08993 6.66488 8.9633 6.53638 8.63346 6.53638C7.42289 6.53638 6.21156 6.53638 5.00099 6.53638ZM7.72733 5.59793C7.72733 5.07186 7.73074 4.55824 7.72582 4.04463C7.72316 3.79269 7.72771 3.53724 7.6898 3.28959C7.47028 1.8605 6.20512 0.837162 4.80612 0.944635C3.38626 1.05367 2.28754 2.25729 2.27768 3.7187C2.27351 4.3063 2.27692 4.89351 2.2773 5.48111C2.2773 5.5185 2.28185 5.55549 2.28451 5.59793H7.72733Z" fill="black"/>
</svg>
