<svg width="16" height="16" viewBox="0 0 16 16" fill="none" xmlns="http://www.w3.org/2000/svg">
<path d="M6.58195 12.31C5.57195 12.31 4.74195 13.13 4.73195 14.14C4.73195 14.63 4.92195 15.1 5.26195 15.45C5.61195 15.8 6.07195 15.99 6.55195 16C7.56195 16 8.39195 15.18 8.40195 14.17C8.40195 13.67 8.21195 13.21 7.86195 12.86C7.51195 12.51 7.06195 12.32 6.57195 12.32L6.58195 12.31ZM6.56195 15C6.34195 15 6.13195 14.91 5.97195 14.75C5.81195 14.59 5.72195 14.37 5.72195 14.15C5.72195 13.69 6.10195 13.31 6.57195 13.31C6.79195 13.31 7.00195 13.4 7.15195 13.56C7.31195 13.72 7.40195 13.94 7.40195 14.16C7.40195 14.62 7.02195 15 6.55195 15H6.56195Z" fill="black"/>
<path d="M12.082 12.31C11.072 12.31 10.242 13.13 10.242 14.14C10.242 14.63 10.432 15.1 10.782 15.45C11.132 15.8 11.592 15.99 12.082 15.99C13.092 15.99 13.922 15.17 13.922 14.15C13.922 13.65 13.732 13.19 13.382 12.84C13.032 12.49 12.572 12.3 12.092 12.3L12.082 12.31ZM12.072 15C11.852 15 11.642 14.91 11.482 14.75C11.322 14.59 11.232 14.38 11.232 14.15C11.232 13.69 11.612 13.31 12.072 13.31C12.292 13.31 12.502 13.4 12.652 13.56C12.812 13.72 12.902 13.94 12.902 14.16C12.902 14.62 12.522 15 12.062 15H12.072Z" fill="black"/>
<path d="M15.752 2.65C15.522 2.36 15.182 2.19 14.812 2.19L4.09195 2.16L3.70195 0.39C3.65195 0.16 3.45195 0 3.21195 0H0.501953C0.221953 0 0.00195312 0.22 0.00195312 0.5C0.00195312 0.78 0.221953 1 0.501953 1H2.81195L3.20195 2.75C3.20195 2.75 3.20195 2.77 3.20195 2.78L4.52195 8.7C3.71195 8.79 3.07195 9.48 3.07195 10.31C3.07195 11.21 3.80195 11.94 4.70195 11.94H13.412C13.692 11.94 13.912 11.72 13.912 11.44C13.912 11.16 13.692 10.94 13.412 10.94H4.70195C4.35195 10.94 4.07195 10.66 4.07195 10.31C4.07195 9.96 4.35195 9.68 4.70195 9.68H14.062C14.292 9.68 14.492 9.52 14.542 9.3L15.962 3.67C16.052 3.31 15.972 2.94 15.752 2.64V2.65ZM13.672 8.68H5.54195L4.31195 3.16L14.802 3.19C14.882 3.19 14.932 3.24 14.952 3.27C14.972 3.3 15.012 3.36 14.992 3.44L13.672 8.69V8.68Z" fill="black"/>
</svg>
