<?xml version="1.0" encoding="UTF-8"?><svg id="Capa_1" xmlns="http://www.w3.org/2000/svg" viewBox="0 0 16 16"><path d="m11.39,6.38c-1.23,0-3.81,0-5.31,0h-.16c-.11,0-.23,0-.34,0-.01,0-.03,0-.04,0-.33,0-.66,0-.98,0-.41,0-.72.33-.72.73,0,.39.32.71.71.72.09,0,.13.03.17.12.24.59.49,1.19.73,1.78.11.26.21.51.32.77l.17.42c.11.26.21.51.32.77,0,0,0,.01,0,.02.06.16.16.38.26.63.34.82.8,1.95,1,2.43.08.21.19.34.35.41h.24s0,0,0,0c.22-.09.31-.29.39-.49.41-.99,1-2.41,1.57-3.79.37-.9.73-1.75,1-2.41,0-.02,0-.03.01-.05.07-.17.14-.34.21-.51.03-.08.07-.11.16-.11.22,0,.42-.1.55-.26.13-.16.19-.37.15-.58-.06-.37-.35-.61-.77-.61Zm-4.47,1.46l-1.22,1.27c-.16-.38-.31-.75-.46-1.12l-.06-.15h1.75Zm-.19,3.76c-.03-.06-.02-.1.04-.16.76-.79,1.52-1.57,2.28-2.36.38-.39.75-.78,1.13-1.17.02-.02.07-.07.1-.07.09,0,.18,0,.27,0s.19,0,.29,0c-.06.14-.11.27-.16.39l-.11.26s-.02.05-.03.08c-.21.51-.65,1.56-.74,1.76-.03.06-.07.13-.12.17-.6.63-1.2,1.25-1.79,1.86-.14.14-.29.28-.43.41-.06.06-.12.11-.19.17-.02-.05-.06-.14-.1-.24-.13-.33-.34-.82-.45-1.09Zm-.23-.56l-.03-.07c-.07-.18-.14-.35-.21-.51-.04-.08-.07-.17-.1-.25-.07-.17-.15-.36-.22-.53-.03-.08-.03-.12.03-.18.29-.3.59-.61.88-.91.22-.23.45-.46.67-.69.04-.04.09-.07.13-.07.32,0,.65,0,.98,0,.2,0,.39,0,.58,0h.39s0,0,0,0c-1.03,1.07-2.06,2.13-3.09,3.21Zm2.78.57c-.42,1.02-.84,2.03-1.27,3.08l-.08-.2c-.14-.35-.28-.67-.41-1,0-.01,0-.05.02-.07.45-.47.9-.93,1.35-1.39l.4-.41Zm2.43-4.51c0,.16-.11.26-.3.26-.02,0-.03,0-.04,0h-6.69c-.14,0-.24-.03-.3-.09-.04-.04-.06-.1-.06-.17,0-.17.12-.25.36-.25h.64c.24,0,.47,0,.71,0,.51,0,1.43,0,2.71,0h.74c.65,0,1.31,0,1.96,0,.17,0,.29.1.29.25Z"/><path d="m3.94,3.9c.15-.01.28-.1.33-.23.05-.12.03-.24-.05-.33-.16-.19-.18-.36-.09-.62.04-.12.01-.26-.09-.35-.09-.1-.22-.13-.34-.09-.25.09-.43.07-.62-.1-.1-.08-.24-.09-.36-.03-.13.06-.2.19-.19.33.02.24-.06.39-.27.53-.12.08-.18.21-.15.35.02.14.12.25.25.28.24.06.36.18.42.43.03.12.12.21.25.24.03,0,.05,0,.08,0,.11,0,.22-.05.3-.14.03-.04.07-.08.09-.13.07-.13.16-.19.27-.15h0s.05,0,.07,0c.04,0,.07,0,.1,0Zm-.24-.48s-.04,0-.06,0c-.21,0-.37.1-.49.29-.06-.25-.2-.39-.44-.44.21-.13.3-.31.28-.55.19.16.39.19.61.1-.09.23-.06.43.09.61Z"/><path d="m13.77,3.02s-.08-.07-.14-.1c-.13-.07-.18-.16-.14-.27h0v-.07s0-.07,0-.1c0-.15-.1-.29-.23-.35-.11-.05-.23-.03-.32.04-.2.16-.38.19-.64.1-.11-.04-.24,0-.34.09-.1.1-.13.23-.08.35.1.25.07.42-.1.63-.08.1-.09.24-.03.36.06.12.17.19.29.19.02,0,.04,0,.05,0,.24,0,.39.08.52.29.06.09.16.15.28.15.02,0,.04,0,.06,0,.13-.02.24-.11.27-.23.07-.26.2-.39.45-.46.11-.03.19-.12.22-.23.03-.14-.02-.28-.12-.38Zm-.48.24c-.25.07-.38.21-.43.44-.12-.19-.28-.29-.48-.29-.02,0-.04,0-.07,0,.15-.19.19-.39.1-.61.22.09.42.06.6-.1-.02.25.08.43.28.55Z"/><path d="m7.19,2.56c-.03.11.01.23.11.31.1.09.25.12.38.07.08-.03.16-.07.24-.12.06-.04.11-.04.19,0,.08.05.17.09.23.11.02,0,.04.02.05.02h0s0,0,0,0c.15,0,.28-.06.36-.16.06-.08.08-.18.06-.27-.06-.23-.01-.38.17-.54.11-.1.15-.25.11-.38-.04-.13-.16-.23-.3-.24-.24-.02-.37-.12-.47-.34-.06-.13-.18-.21-.32-.21h0c-.14,0-.26.08-.32.21-.1.23-.24.33-.48.35-.14.01-.25.11-.29.24s0,.28.09.37c.19.17.24.33.18.58Zm.32-.75c.24-.02.4-.15.49-.4.1.26.26.38.5.4-.19.18-.25.37-.19.59-.21-.12-.41-.12-.62,0,.06-.24,0-.43-.19-.59Z"/><path d="m8.99,5.18c0,.07,0,.14.05.19.04.05.1.08.17.08,0,0,0,0,.01,0,.13,0,.22-.09.23-.25v-.02s0-.02,0-.03c.06-.8.46-1.35,1.17-1.65.16-.07.35-.09.53-.12h.08c.19-.04.28-.12.28-.25,0-.06-.02-.12-.06-.16-.05-.05-.13-.08-.23-.08h-.04c-.89.02-1.73.63-2.04,1.47-.08.22-.12.47-.15.7v.11Z"/><path d="m4.7,3.36c.9.04,1.61.66,1.76,1.55,0,.06.01.12.02.18,0,.04,0,.08.01.13.02.14.11.22.23.22,0,0,.01,0,.02,0,.13,0,.21-.1.21-.24,0-.02,0-.04,0-.07v-.03h0c-.02-.68-.37-1.34-.93-1.76-.39-.29-.84-.44-1.33-.45h0c-.13,0-.21.06-.23.16-.01.07.01.17.06.24.04.06.15.07.19.07Z"/><path d="m4.75,5.8h0c.17,0,.34-.07.46-.19.12-.12.19-.29.19-.46s-.07-.34-.19-.47c-.12-.12-.28-.19-.45-.19h0c-.17,0-.33.07-.46.2-.12.13-.19.29-.19.46,0,.35.29.64.65.64Zm.18-.63c0,.09-.08.16-.18.16h0s-.1-.02-.13-.05c-.04-.03-.05-.08-.05-.13,0-.09.08-.18.18-.18h0s.09.02.12.05c.04.04.06.08.05.14v.02Z"/><path d="m10.99,4.14h-.01c-.17,0-.33.06-.45.18-.12.12-.2.28-.2.46v.03h0c0,.17.07.33.18.44.12.12.28.19.45.19h0c.17,0,.33-.07.45-.19.12-.12.19-.29.19-.46,0-.35-.28-.65-.64-.65Zm-.02.47h0s.09.02.13.05c.03.03.05.07.05.11v.02c0,.09-.08.18-.17.18h0s-.09-.02-.12-.05c-.04-.03-.05-.08-.05-.13,0-.1.07-.18.17-.18Z"/><path d="m7.92,3.47c-.07.02-.15.07-.15.24v1.19c0,.27,0,.56,0,.84,0,.16.1.27.23.27h0c.13,0,.23-.11.23-.26,0-.56,0-1.3,0-2.04,0-.07-.03-.16-.09-.2-.05-.04-.15-.06-.22-.04Z"/></svg>