<svg width="24" height="29" viewBox="0 0 24 29" fill="none" xmlns="http://www.w3.org/2000/svg">
<path d="M12.0434 28.0096C11.7002 27.8584 11.5149 27.5846 11.3766 27.2385C10.8734 25.9832 10.3471 24.7375 9.83016 23.4881C9.79903 23.4129 9.76572 23.3377 9.74183 23.2596C9.67378 23.0339 9.76717 22.8302 9.9793 22.7499C10.2008 22.6659 10.3789 22.7426 10.4781 22.947C10.6164 23.2311 10.7301 23.5268 10.83 23.7605C11.2484 23.3684 11.685 22.9886 12.0883 22.5753C13.2662 21.369 14.4318 20.151 15.5982 18.9331C15.6952 18.8316 15.7777 18.7052 15.8335 18.5753C16.0456 18.0838 16.244 17.5865 16.4489 17.0915C16.598 16.7315 16.8022 16.6066 17.0541 16.7198C17.2909 16.8257 17.343 17.0564 17.2018 17.3974C15.8682 20.6271 14.5317 23.8547 13.2032 27.0866C13.0454 27.47 12.8948 27.8424 12.4763 28.0096H12.0427H12.0434ZM12.2613 27.2326C13.1475 25.0873 14.0018 23.0193 14.864 20.9316C14.825 20.9419 14.8155 20.9411 14.8112 20.9455C13.6383 22.1569 12.4655 23.3684 11.297 24.5834C11.2564 24.6251 11.2282 24.7229 11.2477 24.7718C11.5699 25.5692 11.9008 26.3622 12.2613 27.2319V27.2326Z" fill="#1D1D1B"/>
<path d="M17.878 13.6288C17.4581 13.6288 17.0816 13.6193 16.7066 13.6361C16.6255 13.6398 16.5372 13.7266 16.472 13.7946C14.2479 16.0976 12.0267 18.4051 9.80047 20.7053C9.67233 20.8374 9.6412 20.9448 9.72446 21.1076C9.8193 21.2924 9.81785 21.4808 9.6593 21.6356C9.44572 21.8444 9.11992 21.7517 8.98816 21.4362C8.62978 20.5819 8.27865 19.7246 7.92462 18.8688C7.23828 17.2068 6.54904 15.5456 5.86849 13.8807C5.7932 13.6967 5.70487 13.6251 5.49853 13.6193C4.73762 13.5989 4.15843 13.0001 4.15047 12.2589C4.14323 11.5061 4.72387 10.8963 5.50722 10.8839C6.61782 10.8664 7.72914 10.8759 8.83974 10.8796C9.13513 10.8803 9.31757 11.046 9.31612 11.2863C9.3154 11.5265 9.13296 11.693 8.83685 11.6945C7.79792 11.6996 6.75972 11.6959 5.7208 11.6974C5.22704 11.6974 4.97075 11.8829 4.96496 12.2414C4.95916 12.608 5.22849 12.808 5.73021 12.808C10.0836 12.808 14.4362 12.808 18.7895 12.808C18.8344 12.808 18.88 12.8088 18.9249 12.808C19.3086 12.7978 19.5598 12.5715 19.5533 12.2414C19.5475 11.9201 19.3086 11.7018 18.9314 11.7003C17.17 11.6959 15.4092 11.6981 13.6477 11.6981C12.7174 11.6981 11.7871 11.6996 10.8568 11.6959C10.7409 11.6959 10.5896 11.7098 10.5179 11.6455C10.4093 11.5484 10.2877 11.3834 10.2971 11.2571C10.3065 11.1315 10.4586 11.0015 10.5744 10.9066C10.6316 10.8591 10.7482 10.8796 10.8379 10.8796C13.5203 10.8788 16.2027 10.8774 18.8851 10.8796C19.6757 10.8803 20.2303 11.3221 20.3425 12.0253C20.4764 12.8657 19.8762 13.5959 19.0103 13.6215C18.8178 13.6273 18.7251 13.6843 18.6563 13.8654C18.4717 14.3488 18.2653 14.8242 18.067 15.3024C17.9164 15.6654 17.7166 15.7902 17.4675 15.677C17.2156 15.5631 17.1721 15.3455 17.3249 14.9731C17.503 14.5386 17.6811 14.1049 17.8758 13.6295L17.878 13.6288ZM15.4592 13.6639C15.4034 13.6449 15.381 13.6303 15.3578 13.6303C14.0858 13.6288 12.8137 13.6244 11.5417 13.6346C11.4439 13.6354 11.3281 13.7172 11.2535 13.7938C10.2421 14.8329 9.23938 15.88 8.2258 16.9162C8.09259 17.052 8.08896 17.1565 8.15992 17.3193C8.38146 17.8268 8.58562 18.3409 8.79775 18.852C8.95992 19.2434 9.12354 19.6341 9.29947 20.0554C11.3636 17.9137 13.4038 15.7968 15.4606 13.6639H15.4592ZM6.64606 13.6419C7.01312 14.5306 7.36498 15.3828 7.72914 16.2641C8.57187 15.3893 9.39649 14.5343 10.2566 13.6419H6.64606Z" fill="#1D1D1B"/>
<path d="M3.97671 5.94186C3.72331 5.86373 3.52494 5.9886 3.38956 6.25805C3.34539 6.3464 3.28023 6.42526 3.21508 6.50121C2.86684 6.90647 2.22031 6.82761 2.07986 6.31646C1.9452 5.82576 1.71207 5.56873 1.21397 5.43729C0.693423 5.29928 0.587721 4.58513 1.04166 4.29013C1.46085 4.01776 1.62302 3.71472 1.58972 3.21087C1.55497 2.68512 2.18339 2.33608 2.58593 2.6676C3.00222 3.01007 3.36639 3.03781 3.85218 2.86256C4.31264 2.69607 4.79844 3.19627 4.62975 3.65922C4.45527 4.13824 4.47409 4.4997 4.81654 4.913C5.15247 5.31753 4.8245 5.90024 4.29527 5.94113C4.20549 5.94844 4.11499 5.94186 3.97671 5.94186ZM3.96006 5.10942C3.55752 4.69539 3.49815 4.25362 3.75372 3.74539C3.23824 4.01703 2.80385 3.93086 2.39769 3.53509C2.49036 4.11487 2.27027 4.49678 1.76855 4.7706C2.35208 4.84582 2.6453 5.18317 2.74376 5.74763C3.0015 5.24743 3.38594 5.02107 3.96078 5.10942H3.96006Z" fill="#1D1D1B"/>
<path d="M22.9452 3.53436C22.8714 3.78701 22.9973 3.97687 23.2507 4.10976C23.3456 4.15942 23.4332 4.22879 23.5135 4.30108C23.8886 4.63771 23.822 5.28175 23.347 5.4183C22.8315 5.56654 22.5695 5.82722 22.4247 6.35078C22.2936 6.82761 21.5957 6.92546 21.33 6.50486C21.0418 6.04847 20.7066 5.90389 20.1868 5.92288C19.6952 5.94113 19.3832 5.3168 19.6945 4.92687C20.0283 4.50992 20.0804 4.14408 19.8893 3.649C19.7177 3.20576 20.2064 2.699 20.6509 2.85818C21.1446 3.03562 21.5168 3.01007 21.9425 2.66322C22.3457 2.33389 22.9199 2.68658 22.9452 3.22037C22.9496 3.31091 22.9452 3.40219 22.9452 3.53436ZM20.7754 3.7505C21.0339 4.26238 20.9492 4.7005 20.5633 5.11526C21.1439 5.01011 21.5146 5.25839 21.7839 5.74252C21.8614 5.15616 22.2002 4.86845 22.7432 4.75673C22.2306 4.49532 22.0417 4.09954 22.1184 3.53801C21.7115 3.93013 21.2844 4.01557 20.7754 3.7505Z" fill="#1D1D1B"/>
<path d="M13.0338 4.12364C12.9071 4.06376 12.6848 3.97102 12.4756 3.85346C12.3272 3.77022 12.2056 3.75123 12.055 3.84908C11.9123 3.94182 11.7567 4.02068 11.5967 4.07909C11.1348 4.24704 10.6077 3.85346 10.7185 3.3759C10.8336 2.87571 10.7315 2.54127 10.3464 2.19661C9.94817 1.84027 10.1769 1.14657 10.7105 1.09545C11.2115 1.04726 11.478 0.839877 11.6814 0.384955C11.9087 -0.121811 12.6248 -0.113779 12.8463 0.398829C13.0432 0.853021 13.3125 1.04215 13.7991 1.0918C14.3616 1.14949 14.5737 1.8483 14.1466 2.22874C13.7831 2.55222 13.6774 2.86913 13.8005 3.3372C13.9062 3.74028 13.5551 4.11853 13.0338 4.12364ZM11.1645 1.85852C11.6126 2.20172 11.7437 2.6194 11.5735 3.16925C12.0369 2.83116 12.4865 2.84066 12.9534 3.16487C12.7457 2.59823 12.9433 2.19296 13.3683 1.84538C12.7761 1.85852 12.4524 1.56206 12.2548 0.968394C12.0745 1.5825 11.7299 1.84903 11.1645 1.85852Z" fill="#1D1D1B"/>
<path d="M18.4934 4.07106C18.5115 4.07106 18.5296 4.07106 18.5477 4.07106C18.8807 4.06814 19.0791 4.22076 19.0791 4.47852C19.0791 4.72679 18.8894 4.85312 18.5752 4.8962C18.1669 4.95243 17.7405 4.99259 17.3647 5.14739C15.9254 5.7396 15.1631 6.85025 15.04 8.41071C15.0371 8.44722 15.0385 8.48373 15.0356 8.52024C15.0146 8.80137 14.8597 8.96202 14.6179 8.95326C14.3811 8.94522 14.1944 8.76413 14.2335 8.4903C14.3087 7.96236 14.3652 7.41689 14.5462 6.92254C15.1551 5.25839 16.7783 4.11268 18.4927 4.07106H18.4934Z" fill="#1D1D1B"/>
<path d="M10.1545 8.33988C10.1545 8.40341 10.1567 8.46767 10.1545 8.53119C10.1436 8.78166 10.0054 8.93792 9.7831 8.95253C9.55215 8.96786 9.37911 8.81671 9.34871 8.56113C9.32554 8.36252 9.32988 8.16025 9.29585 7.96382C8.98744 6.19087 7.58362 4.96046 5.80189 4.88525C5.68315 4.88014 5.51736 4.85166 5.46161 4.77134C5.3798 4.65377 5.32695 4.46976 5.35374 4.33248C5.39211 4.13678 5.57455 4.06449 5.77582 4.06814C6.72425 4.08786 7.58362 4.37556 8.34815 4.9422C9.43269 5.74544 10.114 7.03207 10.1545 8.33842V8.33988Z" fill="#1D1D1B"/>
<path d="M7.11882 8.43189C7.11882 9.11974 6.58162 9.65718 5.89745 9.65426C5.23428 9.65134 4.69201 9.11098 4.68405 8.44357C4.67536 7.77323 5.23211 7.2044 5.89962 7.19929C6.56931 7.19491 7.11882 7.7506 7.11882 8.43189ZM6.30433 8.43554C6.30651 8.20406 6.12044 8.01566 5.896 8.02151C5.68677 8.02662 5.50143 8.21574 5.49853 8.42604C5.49564 8.65095 5.68532 8.83715 5.9141 8.83277C6.13564 8.82912 6.30289 8.65898 6.30506 8.43481L6.30433 8.43554Z" fill="#1D1D1B"/>
<path d="M16.8623 7.71336C16.8688 7.03134 17.4219 6.49317 18.101 6.50705C18.7656 6.52092 19.3006 7.07004 19.2978 7.73599C19.2949 8.4129 18.7396 8.96275 18.0655 8.95618C17.3857 8.9496 16.8557 8.40268 16.863 7.71336H16.8623ZM18.4825 7.72796C18.4804 7.50379 18.2856 7.3205 18.0597 7.32927C17.8382 7.33803 17.6746 7.51036 17.676 7.73453C17.6775 7.9682 17.8606 8.14272 18.0923 8.13396C18.3066 8.1252 18.484 7.94118 18.4818 7.72796H18.4825Z" fill="#1D1D1B"/>
<path d="M11.8544 7.62208C11.8544 6.95759 11.8544 6.2931 11.8544 5.6286C11.8544 5.43072 11.9138 5.2467 12.1129 5.19778C12.236 5.16784 12.4112 5.19267 12.5089 5.26642C12.5987 5.3336 12.6581 5.49863 12.6588 5.62057C12.6689 6.94956 12.6682 8.27854 12.6624 9.60679C12.661 9.88501 12.4923 10.0624 12.2635 10.0654C12.0253 10.0683 11.8581 9.88428 11.8559 9.58781C11.8501 8.93281 11.8537 8.27708 11.8544 7.62208Z" fill="#1D1D1B"/>
</svg>
