<svg width="182" height="53" viewBox="0 0 182 53" fill="none" xmlns="http://www.w3.org/2000/svg">
<g clip-path="url(#clip0_659_5363)">
<path d="M73.3758 12.8233C73.3758 13.2867 73.3493 13.72 73.3229 14.18H62.6444C63.0746 16.2167 64.6928 17.6567 66.7709 17.6567C68.3625 17.6567 69.6035 16.9767 70.4638 15.8367L72.3235 17.5767C70.9205 19.2067 69.0872 20.13 66.7411 20.13C62.8297 20.13 59.7291 17.0333 59.7291 13.1767C59.7291 9.32 62.8562 6.14 66.6881 6.14C70.5201 6.14 73.3758 9.12667 73.3758 12.8233ZM62.6709 11.8733H70.4903C70.3546 10.0267 68.71 8.61333 66.6881 8.61333C64.6663 8.61333 63.154 9.94333 62.6709 11.8733Z" fill="#1D1D1B"/>
<path d="M75.5598 6.38334H77.9589L78.1211 7.52334C79.1733 6.65334 80.5764 6.13667 81.9761 6.13667C85.1595 6.13667 87.6645 8.55334 87.6645 11.8133V19.88H84.8617V12.0833C84.8617 10.18 83.4321 8.71334 81.5195 8.71334C80.3051 8.71334 79.1733 9.23001 78.3361 10.1533V19.88H75.5598V6.38334Z" fill="#1D1D1B"/>
<path d="M88.2634 6.38333H91.3111L95.3283 16.7333L99.3456 6.38333H102.34L96.8935 19.8833H93.7102L88.2634 6.38333Z" fill="#1D1D1B"/>
<path d="M103.77 0H106.546V3.26H103.77V0ZM103.77 6.38333H106.546V19.8833H103.77V6.38333Z" fill="#1D1D1B"/>
<path d="M119.869 19.8833L119.68 18.8767C118.681 19.6633 117.251 20.1267 115.795 20.1267C111.94 20.1267 108.81 16.9767 108.81 13.1167C108.81 9.25667 111.937 6.13667 115.795 6.13667C117.251 6.13667 118.707 6.62667 119.68 7.44001L119.869 6.38001H122.268V19.88H119.869V19.8833ZM115.957 17.5467C117.334 17.5467 118.601 17.0033 119.488 15.97V10.32C118.598 9.28667 117.304 8.71667 115.957 8.71667C113.611 8.71667 111.725 10.7 111.725 13.1167C111.725 15.5333 113.611 17.5433 115.957 17.5433V17.5467Z" fill="#1D1D1B"/>
<path d="M31.3073 31.1433H33.7891L33.9512 32.42C34.977 31.4967 36.3503 30.9533 37.7798 30.9533C38.21 30.9533 38.6965 30.98 39.0472 31.0633V33.8333C38.67 33.7233 38.21 33.6967 37.7798 33.6967C36.2974 33.6967 35.03 34.24 34.0869 35.38V44.6433H31.3106V31.1433H31.3073Z" fill="#1D1D1B"/>
<path d="M40.5033 41.9533L42.6873 40.2967C43.6304 41.8733 45.007 42.55 46.41 42.55C47.8131 42.55 48.8091 41.9267 48.8091 40.8667C48.8091 39.89 48.0017 39.3733 46.9229 39.21L45.0368 38.9667C42.6641 38.64 40.993 37.3367 40.993 35.11C40.993 32.6367 43.2598 30.9 46.2777 30.9C48.4881 30.9 50.4041 31.77 51.645 33.3167L49.6232 35.0833C48.786 33.9167 47.6013 33.2367 46.2777 33.2367C44.954 33.2367 43.8521 33.86 43.8521 34.8933C43.8521 35.7633 44.5272 36.2233 45.6059 36.36L47.5484 36.66C49.9739 36.9867 51.7013 38.3433 51.7013 40.68C51.7013 43.2067 49.5173 44.89 46.3902 44.89C43.9646 44.89 41.913 44.0467 40.5099 41.9567L40.5033 41.9533Z" fill="#1D1D1B"/>
<path d="M67.5517 37.88C67.5517 41.7367 64.3419 44.89 60.4339 44.89C56.5259 44.89 53.2863 41.74 53.2863 37.88C53.2863 34.02 56.4961 30.9 60.4339 30.9C64.3717 30.9 67.5517 34.0233 67.5517 37.88ZM56.1983 37.88C56.1983 40.3267 58.0844 42.3067 60.4306 42.3067C62.7767 42.3067 64.6364 40.3233 64.6364 37.88C64.6364 35.4367 62.7503 33.48 60.4306 33.48C58.1109 33.48 56.1983 35.4633 56.1983 37.88Z" fill="#1D1D1B"/>
<path d="M94.789 44.6433L94.6003 43.6367C93.601 44.4233 92.1748 44.8867 90.7155 44.8867C86.8604 44.8867 83.73 41.7367 83.73 37.8767C83.73 34.0167 86.8571 30.8967 90.7155 30.8967C92.1715 30.8967 93.6275 31.3867 94.6003 32.2L94.789 31.14H97.1881V44.64H94.789V44.6433ZM90.8776 42.3067C92.2542 42.3067 93.5216 41.7633 94.4117 40.73V35.08C93.5216 34.0467 92.2277 33.4767 90.8776 33.4767C88.5315 33.4767 86.6453 35.46 86.6453 37.8767C86.6453 40.2933 88.5315 42.3033 90.8776 42.3033V42.3067Z" fill="#1D1D1B"/>
<path d="M99.9412 24.27H102.717V44.6433H99.9412V24.27Z" fill="#1D1D1B"/>
<path d="M122.43 44.6433H110.941V43.3133L118.221 33.6167H111.182V31.1433H122.321V32.4733L115.014 42.17H122.43V44.6433Z" fill="#1D1D1B"/>
<path d="M134.673 44.6433L134.485 43.6367C133.489 44.4233 132.059 44.8867 130.603 44.8867C126.748 44.8867 123.618 41.7367 123.618 37.8767C123.618 34.0167 126.745 30.8967 130.603 30.8967C132.059 30.8967 133.515 31.3867 134.485 32.2L134.673 31.14H137.072V44.64H134.673V44.6433ZM130.762 42.3067C132.139 42.3067 133.406 41.7633 134.296 40.73V35.08C133.406 34.0467 132.112 33.4767 130.762 33.4767C128.416 33.4767 126.53 35.46 126.53 37.8767C126.53 40.2933 128.416 42.3033 130.762 42.3033V42.3067Z" fill="#1D1D1B"/>
<path d="M150.448 44.6433L150.233 43.5833C149.233 44.4 147.777 44.8867 146.295 44.8867C142.44 44.8867 139.309 41.7367 139.309 37.8767C139.309 34.0167 142.437 30.8967 146.295 30.8967C147.642 30.8967 149.045 31.33 150.044 32.0367V24.2667H152.85V44.64H150.451L150.448 44.6433ZM146.457 42.3067C147.86 42.3067 149.154 41.7367 150.044 40.6767V35.1633C149.154 34.0767 147.834 33.48 146.457 33.48C144.111 33.48 142.225 35.4633 142.225 37.88C142.225 40.2967 144.111 42.3067 146.457 42.3067Z" fill="#1D1D1B"/>
<path d="M170.809 41.9533L172.993 40.2967C173.936 41.8733 175.312 42.55 176.715 42.55C178.118 42.55 179.114 41.9267 179.114 40.8667C179.114 39.89 178.307 39.3733 177.228 39.21L175.342 38.9667C172.969 38.64 171.298 37.3367 171.298 35.11C171.298 32.6367 173.565 30.9 176.583 30.9C178.793 30.9 180.709 31.77 181.95 33.3167L179.928 35.0833C179.091 33.9167 177.907 33.2367 176.583 33.2367C175.259 33.2367 174.157 33.86 174.157 34.8933C174.157 35.7633 174.832 36.2233 175.911 36.36L177.854 36.66C180.279 36.9867 182.007 38.3433 182.007 40.68C182.007 43.2067 179.823 44.89 176.695 44.89C174.27 44.89 172.218 44.0467 170.815 41.9567L170.809 41.9533Z" fill="#1D1D1B"/>
<path d="M11.82 37.9967C11.82 37.2133 12.1277 36.4533 12.6638 35.9067C13.1734 35.39 13.4547 34.6833 13.4547 33.9233C13.4547 33.1633 13.1668 32.48 12.6638 31.97C12.1443 31.4433 11.4461 31.14 10.7445 31.14C10.043 31.14 9.31831 31.4433 8.79878 31.97C8.2594 32.5167 7.50823 32.83 6.73721 32.83C5.9662 32.83 5.19518 32.5233 4.64918 31.97C4.12965 31.4433 3.43143 31.14 2.7299 31.14C2.02838 31.14 1.30369 31.4433 0.784159 31.97C0.281177 32.48 -0.00671387 33.1933 -0.00671387 33.9233C-0.00671387 34.6533 0.274559 35.39 0.784159 35.9067C1.32023 36.4533 1.63129 37.2133 1.63129 37.9967C1.63129 38.78 1.33016 39.56 0.784159 40.1133C0.281177 40.6233 -0.00671387 41.3367 -0.00671387 42.0667C-0.00671387 42.7967 0.274559 43.5333 0.784159 44.05C1.33016 44.6033 1.63129 45.3467 1.63129 46.14C1.63129 46.9333 1.31361 47.72 0.784159 48.2567C0.274559 48.7733 -0.00671387 49.47 -0.00671387 50.21C-0.00671387 50.95 0.287795 51.69 0.784159 52.1933C1.29376 52.71 1.98536 52.9967 2.7299 52.9967C3.47445 52.9967 4.1462 52.7033 4.64918 52.1933C5.14223 51.69 5.44005 50.95 5.44005 50.21C5.44005 49.47 5.15878 48.7733 4.64918 48.2567C4.11972 47.72 3.80536 46.9267 3.80536 46.14C3.80536 45.3533 4.10649 44.6033 4.64918 44.05C5.19518 43.4933 5.93641 43.19 6.73721 43.19C7.53801 43.19 8.2594 43.5033 8.79878 44.05C9.30838 44.5667 9.99998 44.85 10.7445 44.85C11.4891 44.85 12.1608 44.5567 12.6638 44.05C13.1734 43.5333 13.4547 42.8267 13.4547 42.0667C13.4547 41.3067 13.1668 40.6233 12.6638 40.1133C12.1178 39.56 11.82 38.8067 11.82 37.9967ZM8.80209 40.1133C8.26601 40.66 7.51485 40.9733 6.74052 40.9733C5.9662 40.9733 5.19849 40.6667 4.65249 40.1133C4.10649 39.56 3.80867 38.8067 3.80867 37.9967C3.80867 37.1867 4.11641 36.4533 4.65249 35.9067C5.19849 35.35 5.93972 35.0467 6.74052 35.0467C7.54132 35.0467 8.2627 35.36 8.80209 35.9067C9.33816 36.4533 9.64921 37.2133 9.64921 37.9967C9.64921 38.78 9.34809 39.56 8.80209 40.1133Z" fill="#1D1D1B"/>
<path d="M23.1107 44.8867C21.7739 44.8867 20.3873 44.6367 18.9677 44.0033C17.6904 43.4333 16.1451 42.2567 15.6421 40.6633C15.3377 39.7033 15.4601 38.7333 15.9929 37.86C16.1352 37.6267 16.2973 37.4133 16.4727 37.2133C16.2543 36.65 16.1914 36.05 16.3006 35.4333C16.5455 34.0433 17.6408 32.7567 19.2325 31.99C22.1081 30.6067 26.4297 30.5267 29.077 31.8033L28.0611 33.8567C26.0525 32.8867 22.4754 32.9733 20.2484 34.0433C19.3979 34.4533 18.7857 35.07 18.6137 35.6867C19.7123 35.1733 20.8241 34.9267 21.4595 34.8167C25.8738 34.0567 27.4721 35.8933 27.7236 37.1C27.8891 37.9 27.5681 38.7533 26.8699 39.38C24.8976 41.15 21.1319 40.8633 18.7725 39.5833C18.478 39.4233 18.2067 39.25 17.9618 39.0667C17.7864 39.37 17.75 39.6533 17.8559 39.98C18.0743 40.6767 18.9247 41.4733 19.9241 41.9167C22.8791 43.2367 25.7348 42.41 28.3821 41.3233L29.2723 43.4333C27.4159 44.1967 25.3344 44.8833 23.1173 44.8833L23.1107 44.8867ZM19.934 37.61C21.711 38.55 24.3086 38.5933 25.3113 37.6933C25.3907 37.6233 25.4271 37.56 25.4436 37.5267C25.2716 37.0767 23.5508 36.78 21.8566 37.0733C21.1517 37.1933 20.4999 37.38 19.934 37.61Z" fill="#1D1D1B"/>
<path d="M162.205 44.64C161.308 44.64 160.411 44.6367 159.515 44.64C159.349 44.64 159.23 44.6 159.114 44.4867C157.84 43.2567 156.56 42.0367 155.289 40.8033C155.22 40.7333 155.167 40.6133 155.167 40.52C155.16 38.77 155.16 37.0167 155.167 35.2667C155.167 35.1667 155.226 35.04 155.299 34.9667C156.58 33.7267 157.867 32.4933 159.157 31.2633C159.227 31.1967 159.353 31.1467 159.452 31.1467C161.282 31.14 163.115 31.14 164.945 31.1467C165.051 31.1467 165.183 31.2 165.256 31.2733C166.547 32.4967 167.83 33.73 169.121 34.9567C169.234 35.0633 169.28 35.1733 169.277 35.3267C169.273 37.0433 169.273 38.7567 169.277 40.4733C169.277 40.62 169.23 40.7233 169.121 40.8267C167.84 42.0433 166.563 43.2633 165.292 44.4867C165.173 44.6 165.057 44.6467 164.892 44.6433C163.995 44.6367 163.098 44.6433 162.202 44.6433L162.205 44.64ZM156.586 40.1067C156.755 40.1767 156.891 40.2333 157.033 40.29C158.396 40.8333 159.756 41.3767 161.12 41.92C162.188 42.3467 163.261 42.77 164.329 43.2C164.468 43.2567 164.551 43.2567 164.617 43.0933C164.988 42.2233 165.372 41.36 165.749 40.4933C166.417 38.9533 167.083 37.4133 167.758 35.88C167.827 35.7233 167.797 35.65 167.639 35.59C167.109 35.3867 166.583 35.1767 166.057 34.9667C164.899 34.5067 163.74 34.0467 162.582 33.5867C161.742 33.2533 160.898 32.9167 160.057 32.5767C159.925 32.5233 159.849 32.55 159.796 32.68C159.674 32.98 159.538 33.2733 159.409 33.57C158.687 35.24 157.963 36.9067 157.241 38.5767C157.023 39.08 156.808 39.5833 156.583 40.1067H156.586Z" fill="#1D1D1B"/>
<path d="M108.015 36.68C107.708 36.3433 107.552 35.89 107.552 35.4367C107.552 34.9833 107.708 34.5467 108.015 34.21C108.323 33.8733 108.479 33.42 108.479 32.9667C108.479 32.5133 108.323 32.0767 108.015 31.74C107.708 31.4033 107.291 31.22 106.89 31.22C106.49 31.22 106.056 31.4033 105.749 31.74C105.441 32.0767 105.285 32.53 105.285 32.9667C105.285 33.4033 105.441 33.8733 105.749 34.21C106.056 34.5467 106.212 35 106.212 35.4367C106.212 35.8733 106.056 36.3433 105.749 36.68C105.441 37.0167 105.285 37.47 105.285 37.9067C105.285 37.9167 105.285 37.9267 105.285 37.9367C105.285 37.9467 105.285 37.9567 105.285 37.9667C105.285 38.42 105.441 38.8733 105.749 39.21C106.056 39.5467 106.212 40 106.212 40.4367C106.212 40.8733 106.056 41.3433 105.749 41.68C105.441 42.0167 105.285 42.47 105.285 42.9067C105.285 43.3433 105.441 43.8133 105.749 44.15C106.056 44.4867 106.473 44.6533 106.89 44.6533C107.307 44.6533 107.708 44.4867 108.015 44.15C108.323 43.8133 108.479 43.36 108.479 42.9067C108.479 42.4533 108.323 42.0167 108.015 41.68C107.708 41.3433 107.552 40.89 107.552 40.4367C107.552 39.9833 107.708 39.5467 108.015 39.21C108.323 38.8733 108.479 38.42 108.479 37.9667C108.479 37.9567 108.479 37.9467 108.479 37.9367C108.479 37.9267 108.479 37.9167 108.479 37.9067C108.479 37.47 108.323 37.0167 108.015 36.68Z" fill="#1D1D1B"/>
<path d="M106.89 28.0167C107.297 28.0167 107.718 27.86 108.032 27.5467C108.343 27.2333 108.502 26.81 108.502 26.3867C108.502 25.9633 108.346 25.54 108.032 25.2267C107.721 24.9133 107.297 24.7567 106.89 24.7567C106.483 24.7567 106.046 24.9133 105.732 25.2267C105.421 25.54 105.262 25.98 105.262 26.3867C105.262 26.7933 105.418 27.2333 105.732 27.5467C106.043 27.86 106.467 28.0167 106.89 28.0167Z" fill="#1D1D1B"/>
<path d="M82.2409 44.6433L78.2799 31.1433H77.8762H75.6194H75.2124L72.3699 37.05V31.1433H69.7094V44.6433H72.3699L76.7478 34.36L79.5804 44.6433H82.2409Z" fill="#1D1D1B"/>
</g>
<defs>
<clipPath id="clip0_659_5363">
<rect width="182" height="53" fill="white"/>
</clipPath>
</defs>
</svg>
