<svg width="22" height="13" viewBox="0 0 22 13" fill="none" xmlns="http://www.w3.org/2000/svg">
<path d="M0 0.75C0 0.335786 0.335786 0 0.75 0H21.25C21.6642 0 22 0.335786 22 0.75C22 1.16421 21.6642 1.5 21.25 1.5H0.750001C0.335787 1.5 0 1.16421 0 0.75Z" fill="black"/>
<path d="M4.5 6.25C4.5 5.83579 4.83579 5.5 5.25 5.5H16.75C17.1642 5.5 17.5 5.83579 17.5 6.25C17.5 6.66421 17.1642 7 16.75 7H5.25C4.83579 7 4.5 6.66421 4.5 6.25Z" fill="black"/>
<path d="M2.5 11.75C2.5 11.3358 2.83579 11 3.25 11H18.75C19.1642 11 19.5 11.3358 19.5 11.75C19.5 12.1642 19.1642 12.5 18.75 12.5H3.25C2.83579 12.5 2.5 12.1642 2.5 11.75Z" fill="black"/>
</svg>
