<?xml version="1.0" encoding="UTF-8"?><svg id="Capa_1" xmlns="http://www.w3.org/2000/svg" viewBox="0 0 16 16"><path d="m7.64,8.92c.07-.09.1-.14.14-.18.65-.65,1.29-1.3,1.94-1.94.13-.13.29-.15.42-.07.13.08.2.23.15.38-.02.07-.07.13-.12.18-.75.75-1.5,1.5-2.25,2.25-.19.19-.36.19-.55,0-.42-.41-.83-.83-1.25-1.25-.17-.17-.18-.36-.04-.51.14-.14.34-.13.51.04.31.31.62.62.93.93.04.04.06.1.12.18Z"/><path d="m7.65,9.79c-.12,0-.25-.06-.37-.18-.42-.42-.83-.83-1.25-1.25-.22-.22-.23-.49-.04-.68.19-.19.47-.18.69.04.31.31.62.62.93.93.01.01.03.03.04.05.01-.02.03-.03.04-.05.65-.65,1.29-1.3,1.94-1.94.17-.17.38-.21.58-.09.18.11.27.33.2.53-.03.08-.08.16-.15.23-.75.75-1.5,1.5-2.25,2.25-.12.12-.24.18-.36.18Zm-1.34-2s-.09.02-.13.06c-.1.1-.08.21.04.33.41.42.83.83,1.25,1.25.14.14.24.14.38,0,.75-.75,1.5-1.5,2.25-2.25.04-.04.07-.09.09-.13.03-.08,0-.18-.09-.23-.11-.07-.21,0-.27.05-.65.65-1.3,1.29-1.94,1.94-.02.02-.04.05-.06.08l-.17.23-.15-.23s-.04-.06-.06-.08c-.31-.31-.62-.62-.92-.93-.04-.04-.11-.1-.2-.1Z"/><path d="m8,14.14c-3.39,0-6.14-2.75-6.14-6.14S4.61,1.86,8,1.86s6.14,2.75,6.14,6.14-2.75,6.14-6.14,6.14Zm0-11.53c-2.97,0-5.39,2.42-5.39,5.39s2.42,5.39,5.39,5.39,5.39-2.42,5.39-5.39-2.42-5.39-5.39-5.39Z"/></svg>