<?xml version="1.0" encoding="UTF-8"?>
<svg id="Capa_2" data-name="Capa 2" xmlns="http://www.w3.org/2000/svg" viewBox="0 0 6.49 10.78">
  <g id="Capa_1-2" data-name="Capa 1">
    <g>
      <path d="m6.49,4.62c0-.3-.11-.54-.33-.74-.16-.14-.33-.29-.48-.43-.13-.12-.26-.23-.39-.35-.04-.04-.05-.06-.03-.12.15-.37.2-.77.13-1.2-.17-1.05-1.09-1.79-2.18-1.79-.06,0-.11,0-.17,0-1.07.08-1.95,1.02-1.96,2.11,0,.21.11.34.29.35h0c.17,0,.29-.13.3-.34.02-.69.46-1.27,1.12-1.47.66-.2,1.35.03,1.75.59.29.42.37.87.22,1.38-.05-.05-.11-.1-.16-.14-.12-.11-.24-.21-.35-.31-.22-.2-.49-.31-.8-.31-.05,0-.1,0-.15,0-.07,0-.15,0-.23,0h-.02c-.31,0-.58.1-.82.32-.63.56-1.27,1.13-1.9,1.7-.22.19-.33.43-.33.73,0,1.25,0,2.51,0,3.76v1.51c0,.55.34.89.89.89h4.71c.54,0,.89-.35.89-.89v-1.32c0-1.32,0-2.63,0-3.95Zm-5.9.02c0-.13.04-.23.14-.32.66-.58,1.34-1.18,1.92-1.7.11-.1.24-.15.37-.15h0s.07,0,.11,0c.09,0,.16,0,.23,0,.31,0,.34.02.63.29.04.04.08.07.13.12.11.1.22.19.34.3-.32.37-.71.55-1.18.57-.11,0-.21.04-.27.11-.05.06-.07.13-.07.21.01.16.14.27.32.27h0c.57,0,1.07-.22,1.49-.62.02-.02.05-.05.07-.07h.01s.03-.05.05-.06l.02-.02.72.64s.03.02.04.04c.03.02.05.05.08.07.1.07.14.17.14.33,0,1.08,0,2.15,0,3.23v1.08c0,.31,0,.61,0,.92,0,.23-.08.31-.31.31H.91c-.24,0-.32-.08-.32-.32v-1.05c0-1.39,0-2.79,0-4.18Z"/>
      <path d="m1.46,8.36s-.05.05-.06.08v.02c-.03.07-.05.14-.04.2.02.11.09.19.19.22.03,0,.06.01.08.01.09,0,.18-.04.25-.11.21-.2.41-.41.62-.61.11-.11.23-.23.34-.34l.48-.48c.56-.56,1.13-1.13,1.7-1.7.05-.05.08-.11.11-.16.01-.02.02-.03.03-.05h0s0-.02,0-.02c-.02-.17-.07-.27-.19-.31-.16-.07-.28.02-.37.11-1.04,1.04-2.08,2.08-3.12,3.13,0,0-.01.01-.02.02Z"/>
      <path d="m4.32,7.24h0c-.22,0-.43.08-.58.24-.16.16-.24.37-.24.59,0,.22.09.43.25.59.16.16.36.24.58.24h0c.45,0,.83-.38.83-.83,0-.22-.09-.43-.24-.59-.16-.16-.37-.24-.59-.24Zm-.17.66s.11-.07.17-.07.12.02.17.07c.04.05.07.11.07.17,0,.13-.1.23-.24.23-.13,0-.24-.1-.24-.23,0-.06.02-.12.07-.17Z"/>
      <path d="m2.18,6.75h0c.45,0,.82-.37.83-.82,0-.47-.36-.84-.83-.84h-.01c-.21,0-.42.08-.58.24-.16.16-.25.37-.25.59,0,.22.08.43.24.58.16.16.37.25.6.25Zm-.17-1s.1-.07.17-.07h0c.13,0,.23.1.24.23,0,.06-.02.12-.07.17-.05.05-.11.07-.17.07h0c-.13,0-.23-.1-.23-.23,0-.07.02-.13.07-.17Z"/>
    </g>
  </g>
</svg>