<svg width="18" height="18" viewBox="0 0 18 18" fill="none" xmlns="http://www.w3.org/2000/svg">
<path d="M0 17.2617C0.115763 16.8162 0.236367 16.3719 0.346848 15.9251C0.692816 14.5223 1.02954 13.1178 1.38475 11.7173C1.42833 11.5456 1.52956 11.3659 1.65501 11.2405C5.20712 7.67683 8.76583 4.11892 12.3245 0.561013C12.8373 0.0485256 13.4434 -0.142116 14.1354 0.112366C14.3744 0.200423 14.6059 0.358043 14.7895 0.536797C15.6913 1.41604 16.5796 2.30893 17.4648 3.2049C18.1787 3.9274 18.1791 4.9286 17.4604 5.64846C13.8884 9.22618 10.3134 12.8008 6.73316 16.3697C6.60904 16.4935 6.42109 16.5798 6.24766 16.6233C4.44432 17.0764 2.63745 17.5167 0.831907 17.9618C0.799775 17.9697 0.769844 17.9873 0.738593 18.0005H0.457329C0.239008 17.9142 0.0875923 17.761 0.000440162 17.5435C0.000440162 17.4497 0 17.3555 0 17.2617ZM11.6982 2.9174C8.75483 5.86199 5.80838 8.81011 2.87822 11.7415C4.00196 12.8647 5.1389 14.0015 6.26659 15.1286C9.20115 12.1946 12.1489 9.24731 15.0883 6.30844C13.9615 5.18132 12.8237 4.04275 11.6982 2.9174ZM12.5781 2.01174C13.7137 3.14722 14.8506 4.28447 15.9902 5.42435C15.9907 5.42435 16.0039 5.42171 16.0118 5.41379C16.2033 5.22491 16.3952 5.03603 16.5853 4.84583C16.8908 4.54027 16.8921 4.30868 16.5888 4.00445C15.7248 3.13886 14.8599 2.27371 13.995 1.40899C13.9536 1.36761 13.9118 1.32622 13.8656 1.291C13.6842 1.15319 13.4487 1.1413 13.2841 1.29452C13.0367 1.52479 12.8074 1.77663 12.5781 2.01174ZM2.30161 12.9417C2.13743 13.6127 1.97281 14.2758 1.81655 14.941C1.80555 14.9877 1.84296 15.0621 1.88081 15.1008C2.21666 15.4443 2.55514 15.7855 2.90111 16.1183C2.94689 16.1624 3.04636 16.1844 3.11063 16.1703C3.48168 16.0888 3.84966 15.9933 4.21896 15.9026C4.49978 15.8335 4.7806 15.7648 5.05615 15.697C4.13401 14.7746 3.22507 13.865 2.30161 12.9417Z" fill="black"/>
</svg>
