<?xml version="1.0" encoding="utf-8"?>
<!-- Generator: Adobe Illustrator 27.5.0, SVG Export Plug-In . SVG Version: 6.00 Build 0)  -->
<svg version="1.1" id="Capa_1" xmlns="http://www.w3.org/2000/svg" xmlns:xlink="http://www.w3.org/1999/xlink" x="0px" y="0px"
	 viewBox="0 0 16 16" style="enable-background:new 0 0 16 16;" xml:space="preserve">
<style type="text/css">
	.st0{fill:none;}
	.st1{fill:none;stroke:#1D1D1B;stroke-width:0.75;stroke-miterlimit:10;}
</style>
<path d="M3.1,12.5c0.1-0.2,0.1-0.5,0.2-0.7c0.2-0.8,0.4-1.5,0.6-2.3C3.9,9.4,4,9.3,4,9.2c1.9-1.9,3.8-3.9,5.8-5.8
	c0.3-0.3,0.6-0.4,1-0.2c0.1,0,0.3,0.1,0.4,0.2c0.5,0.5,1,1,1.4,1.4c0.4,0.4,0.4,0.9,0,1.3c-1.9,1.9-3.9,3.9-5.8,5.8
	c-0.1,0.1-0.2,0.1-0.3,0.1c-1,0.2-2,0.5-2.9,0.7c0,0,0,0-0.1,0H3.4c-0.1,0-0.2-0.1-0.2-0.2C3.1,12.6,3.1,12.5,3.1,12.5z M9.5,4.7
	C7.9,6.3,6.3,7.9,4.7,9.5c0.6,0.6,1.2,1.2,1.8,1.8c1.6-1.6,3.2-3.2,4.8-4.8C10.7,5.9,10.1,5.3,9.5,4.7z M9.9,4.2
	c0.6,0.6,1.2,1.2,1.8,1.8c0,0,0,0,0,0C11.9,6,12,5.9,12.1,5.8c0.2-0.2,0.2-0.3,0-0.5c-0.5-0.5-0.9-0.9-1.4-1.4c0,0,0,0-0.1-0.1
	c-0.1-0.1-0.2-0.1-0.3,0C10.2,4,10.1,4.1,9.9,4.2z M4.4,10.1c-0.1,0.4-0.2,0.7-0.3,1.1c0,0,0,0.1,0,0.1c0.2,0.2,0.4,0.4,0.6,0.6
	c0,0,0.1,0,0.1,0c0.2,0,0.4-0.1,0.6-0.1c0.2,0,0.3-0.1,0.5-0.1C5.4,11.1,4.9,10.6,4.4,10.1z"/>
</svg>
