<?xml version="1.0" encoding="UTF-8"?><svg id="Capa_1" xmlns="http://www.w3.org/2000/svg" viewBox="0 0 16 16"><path d="m15.4,3.13s0,0,0-.01c0-.01-.02-.02-.03-.03-.33-.41-.83-.68-1.4-.68H2.04c-1,0-1.81.81-1.81,1.81v7.55c0,1,.81,1.81,1.81,1.81h11.92c1,0,1.81-.81,1.81-1.81v-7.55c0-.41-.14-.79-.38-1.09Zm-1.44.28s.04.01.06.01l-6.02,3.97L1.98,3.43s.04-.01.06-.01h11.92Zm.81,8.36c0,.45-.36.81-.81.81H2.04c-.45,0-.81-.36-.81-.81v-7.55s.01-.06.02-.09l6.48,4.28c.08.06.18.08.28.08s.19-.03.28-.08l6.48-4.27s.02.05.02.08v7.55Z"/></svg>