<svg width="18" height="18" viewBox="0 0 18 18" fill="none" xmlns="http://www.w3.org/2000/svg">
<path fill-rule="evenodd" clip-rule="evenodd" d="M4.81477 1.5C3.19657 1.5 1.88477 2.81181 1.88477 4.43V13.57C1.88477 15.1882 3.19657 16.5 4.81477 16.5H13.1848C14.803 16.5 16.1148 15.1882 16.1148 13.57V4.43C16.1148 2.81181 14.803 1.5 13.1848 1.5H4.81477ZM0.884766 4.43C0.884766 2.25952 2.64429 0.5 4.81477 0.5H13.1848C15.3552 0.5 17.1148 2.25952 17.1148 4.43V13.57C17.1148 15.7405 15.3552 17.5 13.1848 17.5H4.81477C2.64429 17.5 0.884766 15.7405 0.884766 13.57V4.43Z" fill="black"/>
<path fill-rule="evenodd" clip-rule="evenodd" d="M10.8748 3.38C10.8748 3.10386 11.0986 2.88 11.3748 2.88H14.3848C14.6609 2.88 14.8848 3.10386 14.8848 3.38V6.35C14.8848 6.62614 14.6609 6.85 14.3848 6.85C14.1086 6.85 13.8848 6.62614 13.8848 6.35V3.88H11.3748C11.0986 3.88 10.8748 3.65614 10.8748 3.38Z" fill="black"/>
<path fill-rule="evenodd" clip-rule="evenodd" d="M14.0791 3.7172C14.2739 3.91288 14.2732 4.22946 14.0776 4.42431L11.7276 6.76431C11.5319 6.95915 11.2153 6.95848 11.0205 6.7628C10.8256 6.56712 10.8263 6.25054 11.022 6.05569L13.372 3.71569C13.5676 3.52085 13.8842 3.52152 14.0791 3.7172Z" fill="black"/>
<path fill-rule="evenodd" clip-rule="evenodd" d="M3.62477 11.33C3.90091 11.33 4.12477 11.5539 4.12477 11.83V14.29H6.62477C6.90091 14.29 7.12477 14.5139 7.12477 14.79C7.12477 15.0661 6.90091 15.29 6.62477 15.29H3.62477C3.34862 15.29 3.12477 15.0661 3.12477 14.79V11.83C3.12477 11.5539 3.34862 11.33 3.62477 11.33Z" fill="black"/>
<path fill-rule="evenodd" clip-rule="evenodd" d="M6.97907 11.4172C7.17392 11.6129 7.17324 11.9295 6.97756 12.1243L4.62756 14.4643C4.43189 14.6592 4.1153 14.6585 3.92046 14.4628C3.72561 14.2671 3.72629 13.9505 3.92197 13.7557L6.27197 11.4157C6.46764 11.2208 6.78423 11.2215 6.97907 11.4172Z" fill="black"/>
</svg>
