<?xml version="1.0" encoding="UTF-8"?><svg id="Capa_1" xmlns="http://www.w3.org/2000/svg" viewBox="0 0 16 16"><path d="m10.97,14.06h-5.95c-1.55,0-2.81-1.26-2.81-2.81v-6.49c0-1.55,1.26-2.81,2.81-2.81h5.95c1.55,0,2.81,1.26,2.81,2.81v6.49c0,1.55-1.26,2.81-2.81,2.81ZM5.03,2.69c-1.14,0-2.06.92-2.06,2.06v6.49c0,1.14.92,2.06,2.06,2.06h5.95c1.14,0,2.06-.92,2.06-2.06v-6.49c0-1.14-.92-2.06-2.06-2.06h-5.95Z"/><path d="m11.82,6.5c-.21,0-.38-.17-.38-.38v-1.74h-1.76c-.21,0-.38-.17-.38-.38s.17-.38.38-.38h2.13c.21,0,.38.17.38.38v2.11c0,.21-.17.38-.38.38Z"/><path d="m9.91,6.33c-.1,0-.19-.04-.26-.11-.15-.15-.15-.38,0-.53l1.67-1.67c.15-.15.39-.15.53,0,.15.15.15.38,0,.53l-1.67,1.67c-.07.07-.17.11-.27.11Z"/><path d="m6.31,12.49h-2.13c-.21,0-.38-.17-.38-.38v-2.11c0-.21.17-.38.38-.38s.38.17.38.38v1.74h1.76c.21,0,.38.17.38.38s-.17.38-.38.38Z"/><path d="m4.5,12.17c-.1,0-.19-.04-.27-.11-.15-.15-.15-.38,0-.53l1.67-1.67c.15-.15.38-.15.53,0s.15.38,0,.53l-1.67,1.67c-.07.07-.17.11-.26.11Z"/></svg>