<svg width="52" height="20" viewBox="0 0 52 20" fill="none" xmlns="http://www.w3.org/2000/svg">
<path fill-rule="evenodd" clip-rule="evenodd" d="M5.29906 14.7558H13.115C13.2954 15.5804 13.4672 16.4049 13.6475 17.238C12.196 18.1828 10.6156 18.9644 8.70029 19.2908C6.63894 19.6086 4.86102 19.3337 3.37513 18.4577L5.29906 14.7558ZM8.36532 0.927606C5.82299 5.84908 3.27207 10.7706 0.729734 15.7006C0.0340288 13.5018 -0.876401 11.4491 1.80335 6.75092C3.58986 3.78773 5.90029 2.17301 8.36532 0.927606ZM10.8647 4.13988L12.5052 11.5951H6.97391L10.8647 4.13988ZM16.8083 14.3951C15.8119 9.59387 14.807 4.80123 13.8107 0C16.8684 0.49816 18.8696 2.08712 19.5825 4.9816C20.1837 8.29693 19.2132 11.4319 16.8083 14.3951Z" fill="#E30613"/>
<path d="M43.7776 4.39755L43.769 4.50061H43.0819V4.41472C43.0819 4.19141 43.1076 4.07975 42.7899 4.07975C42.4721 4.06258 42.4807 4.26871 42.4807 4.41472C42.4807 4.50061 42.5064 4.56932 42.5494 4.62945C42.5923 4.68957 42.6868 4.76687 42.8328 4.85276L43.2451 5.10184C43.4083 5.19632 43.5715 5.32515 43.6488 5.47975C43.7261 5.63435 43.769 5.80613 43.769 6.01227V6.19264C43.769 6.51043 43.6573 6.75951 43.477 6.91411C43.3052 7.06012 43.0132 7.18037 42.6353 7.18037C42.3862 7.18037 42.2402 7.09448 42.1113 6.99141C41.9052 6.82822 41.785 6.57055 41.785 6.19264V6.04663H42.4205C42.4205 6.19264 42.4205 6.42454 42.4978 6.54479C42.5322 6.59632 42.661 6.62209 42.7555 6.62209C42.9359 6.62209 43.0561 6.51902 43.0561 6.15828C43.0561 6.05521 43.0218 5.9865 42.9788 5.9092C42.85 5.69448 42.4463 5.51411 42.223 5.39386C42.0083 5.27362 41.9396 5.17055 41.8537 5.05031C41.7678 4.93006 41.7678 4.77546 41.7678 4.59509V4.33742C41.7678 4.07975 41.8193 3.88221 41.9997 3.7362C42.18 3.59018 42.3604 3.49571 42.6868 3.49571C43.0303 3.49571 43.2794 3.573 43.4254 3.71902C43.6058 3.85644 43.7776 4.0454 43.7776 4.39755ZM46.7236 4.60368C46.7236 4.42331 46.7236 4.19141 46.4917 4.19141C46.2598 4.18282 46.2083 4.34601 46.2083 4.60368V5.97791C46.2083 6.31288 46.3199 6.44172 46.4831 6.44172C46.715 6.44172 46.7236 6.1411 46.7236 5.97791V4.60368ZM46.7408 2.39632H47.5911L47.5739 7.04294H46.8954L46.8696 6.62209C46.7923 6.78528 46.5604 6.99141 46.4573 7.06871C46.3629 7.14601 46.2512 7.18896 46.131 7.18896C45.9162 7.18896 45.7616 7.11166 45.6586 6.94847C45.5555 6.78528 45.4954 6.4589 45.4954 6.13251V4.47485C45.4954 4.08834 45.5813 3.92515 45.6929 3.77055C45.796 3.61595 45.9162 3.50429 46.131 3.50429C46.2512 3.50429 46.4058 3.55583 46.5089 3.63313C46.6034 3.71043 46.6635 3.83067 46.7494 4.00245L46.7408 2.39632ZM50.1248 5.03313V5.35092H48.7248V6.02945C48.7248 6.29571 48.7334 6.51902 49.0598 6.51902C49.3948 6.51902 49.4205 6.31288 49.4205 6.02945V5.91779H50.1248V6.02086C50.1248 6.67362 49.7469 7.17178 49.1027 7.17178C48.4586 7.18037 48.0291 6.79387 48.0205 6.22699L48.0119 5.03313C48.0119 4.44049 48.0807 4.07116 48.2353 3.84785C48.3899 3.62454 48.7076 3.49571 49.1113 3.49571C49.515 3.49571 49.807 3.62454 49.9616 3.83926C50.1162 4.06258 50.1248 4.44049 50.1248 5.03313ZM49.4205 4.51779C49.4205 4.31166 49.3261 4.06258 49.077 4.06258C48.7764 4.06258 48.7076 4.38896 48.7162 4.54356L48.7248 4.79264L49.4119 4.80123L49.4205 4.51779ZM50.6831 2.40491H51.5334V7.04294H50.6831V2.40491ZM40.6942 5.32515C40.1616 5.45399 39.9813 5.54847 39.9899 6.09816C39.9899 6.39877 40.0242 6.51043 40.2819 6.51043C40.4279 6.51043 40.6254 6.32147 40.6942 6.20982V5.32515ZM41.3899 4.50061V7.04294H40.7027L40.6684 6.73374C40.4794 6.96564 40.2046 7.18037 39.9126 7.18037C39.4402 7.18037 39.2169 6.57914 39.2254 6.16687C39.234 5.68589 39.4316 5.3681 39.861 5.11902C40.1445 4.94724 40.4966 4.92147 40.5481 4.7411L40.5567 4.54356C40.5653 4.38037 40.5911 4.07117 40.3248 4.07117C39.9727 4.07117 39.9899 4.34601 39.9899 4.63804H39.2942C39.2942 3.90798 39.5862 3.50429 40.3764 3.51288C41.1408 3.52147 41.3899 3.99386 41.3899 4.50061ZM34.0635 5.31656C33.531 5.4454 33.3506 5.53988 33.3592 6.08957C33.3592 6.39018 33.3935 6.50184 33.6512 6.50184C33.7972 6.50184 33.9948 6.31288 34.0635 6.20123V5.31656ZM34.7592 4.49202V7.03436H34.0721L34.0377 6.73374C33.8573 6.96564 33.5739 7.18037 33.2819 7.18037C32.8095 7.18037 32.5862 6.58773 32.5948 6.16687C32.6034 5.68589 32.8009 5.3681 33.2304 5.11902C33.5138 4.94724 33.8659 4.92147 33.9175 4.7411L33.9261 4.54356C33.9346 4.38037 33.9604 4.07117 33.6942 4.07117C33.342 4.07117 33.3592 4.34601 33.3592 4.63804H32.6635C32.6635 3.90798 32.9555 3.50429 33.7457 3.51288C34.5101 3.51288 34.7592 3.99386 34.7592 4.49202ZM22.1248 2.39632L24.2205 2.40491V3.24662H22.958V4.23435H24.0745V5.07607H22.9494V7.04294H22.0991L22.1248 2.39632ZM26.05 5.31656C25.5175 5.4454 25.3371 5.53988 25.3457 6.08957C25.3457 6.39018 25.38 6.50184 25.6377 6.50184C25.7837 6.50184 25.9813 6.31288 26.05 6.20123V5.31656ZM26.7457 4.49202V7.03436H26.0586L26.0242 6.72515C25.8438 6.95705 25.5604 7.17178 25.2684 7.17178C24.796 7.17178 24.5727 6.57914 24.5813 6.15828C24.5899 5.6773 24.7874 5.35951 25.2169 5.11043C25.5003 4.93865 25.8524 4.91288 25.904 4.73251L25.9126 4.53497C25.9211 4.37178 25.9469 4.06258 25.6807 4.06258C25.3285 4.06258 25.3457 4.33742 25.3457 4.62945H24.65C24.65 3.89939 24.942 3.4957 25.7322 3.50429C26.4966 3.51288 26.7457 3.99386 26.7457 4.49202ZM28.5837 3.51288V4.5092C28.4377 4.5092 28.3003 4.5092 28.1543 4.5092C28.0684 4.50061 28.0254 4.54356 28.0169 4.63804V7.04294H27.3126V3.52147H27.888L27.8794 4.08834C28.0083 3.98528 28.1027 3.76196 28.2488 3.65031C28.369 3.55583 28.4291 3.51288 28.5837 3.51288ZM30.8942 4.00245C30.9972 3.82209 31.1175 3.71902 31.2205 3.63313C31.3322 3.55583 31.4524 3.51288 31.5813 3.51288C31.796 3.51288 32.0193 3.59877 32.1052 3.74478C32.1911 3.8908 32.234 4.10552 32.234 4.49202L32.2426 7.03436H31.5469L31.5383 4.60368C31.5383 4.45767 31.4868 4.2 31.2463 4.19141C30.9457 4.18282 30.9715 4.34601 30.9715 4.60368V7.04294H30.2672V4.60368C30.2672 4.38037 30.2586 4.19141 29.9494 4.19141C29.6659 4.19141 29.7003 4.45767 29.7003 4.60368V7.03436H28.9874V3.56442H29.6488L29.6745 3.95951C29.769 3.79632 29.8549 3.70184 29.9665 3.62454C30.0696 3.54724 30.1813 3.50429 30.3015 3.50429C30.4561 3.50429 30.5849 3.54724 30.6794 3.64172C30.7911 3.7362 30.8684 3.83926 30.8942 4.00245ZM37.3187 4.79264H36.6144C36.6144 4.61227 36.6488 4.33742 36.5629 4.17423C36.5285 4.10552 36.4254 4.07117 36.3396 4.07117C36.2622 4.07117 36.1248 4.10552 36.0991 4.17423C35.9702 4.61227 36.0132 6.01227 36.0991 6.39877C36.1162 6.46748 36.2537 6.50184 36.331 6.50184C36.4083 6.50184 36.5371 6.46748 36.5629 6.39877C36.6316 6.20123 36.6144 5.85767 36.623 5.63436L37.3187 5.61718C37.3101 5.97791 37.4046 6.66503 37.1555 6.9227C36.9923 7.09448 36.7261 7.18037 36.3653 7.18037C35.953 7.18037 35.7211 7.06871 35.5665 6.85399C35.4119 6.63067 35.3432 6.1411 35.3432 5.54847V5.02454C35.3432 4.4319 35.369 4.02822 35.5322 3.80491C35.6868 3.59018 35.9702 3.47853 36.3825 3.47853C36.7518 3.47853 36.9322 3.56442 37.0954 3.7362C37.3273 4.00245 37.3187 4.45767 37.3187 4.79264ZM38.0144 3.52147H38.7187V7.04294H38.0144V3.52147ZM38.0144 2.39632H38.7187V3.09202H38.0144V2.39632Z" fill="#001789"/>
<path fill-rule="evenodd" clip-rule="evenodd" d="M42.4291 10.8393C43.0733 10.8479 43.7175 10.8479 44.353 10.8564C44.353 10.9423 44.353 11.0282 44.3616 11.1141C44.3616 11.1141 44.4733 11.1141 44.6279 11.0883C45.023 11.0282 45.5813 10.8908 45.8733 10.865L45.65 12.7804C45.504 12.7632 44.207 12.746 44.0181 13.6049C43.8205 14.4466 43.6402 16.9202 43.6402 16.9202H41.6389L42.4291 10.8393ZM38.1948 10.8479C38.8389 10.8564 39.4831 10.8564 40.1187 10.865C40.1187 10.9509 40.1187 11.0368 40.1273 11.1227C40.1273 11.1227 40.2389 11.1227 40.3935 11.0969C40.7886 11.0368 41.3469 10.8994 41.6389 10.8736L41.4156 12.789C41.2696 12.7718 39.9727 12.7546 39.7837 13.6135C39.5862 14.4552 39.3972 16.9117 39.3972 16.9117H37.396L38.1948 10.8479ZM49.2659 12.5227C49.4635 13.1926 49.1543 14.7644 48.6647 15.3742C48.4414 15.6577 48.0892 15.7092 47.9003 15.3485C47.5825 14.7301 47.9089 13.1153 48.407 12.4368C48.6303 12.1276 49.1457 12.0933 49.2659 12.5227ZM46.6377 12.1791C47.1874 11.2344 48.158 10.8221 49.077 10.8135C50.2021 10.8049 50.6917 11.2086 51.0524 11.8871C51.4132 12.5656 51.2328 14.2663 50.7776 15.1767C50.1849 16.1816 49.3089 16.9374 48.0463 16.9546C46.7837 16.9718 46.277 16.5939 46.0193 15.5804C45.7616 14.5669 46.0966 13.1239 46.6377 12.1791ZM35.1629 12.5227C35.3604 13.1926 35.0512 14.7644 34.5616 15.3742C34.3383 15.6577 33.9862 15.7092 33.7972 15.3485C33.4794 14.7301 33.8058 13.1153 34.304 12.4368C34.5273 12.1276 35.0426 12.0933 35.1629 12.5227ZM32.5432 12.1791C33.0929 11.2344 34.0635 10.8221 34.9825 10.8135C36.1076 10.8049 36.5972 11.2086 36.958 11.8871C37.3187 12.5656 37.1383 14.2663 36.6831 15.1767C36.0905 16.1816 35.2144 16.9374 33.9518 16.9546C32.6807 16.9718 32.1825 16.5939 31.9248 15.5804C31.6586 14.5669 31.9935 13.1239 32.5432 12.1791ZM27.0377 8.33988H28.9874L28.558 11.1399L28.7211 11.1313C29.0905 10.9681 29.6487 10.8393 30.0782 10.8736C30.6021 10.9166 31.461 11.1742 31.4095 11.8528L30.8512 16.9117H28.8672C29.0303 15.6233 29.2021 14.2748 29.3653 12.9865C29.434 12.5656 29.3997 12.265 29.0389 12.2479C28.4978 12.2221 28.4205 12.5571 28.3604 12.9865L27.8279 16.9117H25.904L27.0377 8.33988ZM23.104 10.7276L21.5665 13.519H23.104V10.7276ZM22.2193 8.29693L17.6843 16.9117H19.8058L20.8107 15.0479H23.0954L23.1126 16.9117H25.1653L24.9334 8.33129L22.2193 8.29693Z" fill="#001789"/>
<path d="M50.3739 17.3755C50.4684 17.3755 50.5543 17.3926 50.6316 17.427C50.7089 17.4614 50.7862 17.5129 50.8463 17.573C50.9064 17.6331 50.958 17.7018 50.9837 17.7877C51.0181 17.865 51.0353 17.9509 51.0353 18.0368C51.0353 18.1313 51.0181 18.2172 50.9837 18.2945C50.9494 18.3718 50.9064 18.4491 50.8377 18.5092C50.7776 18.5693 50.7003 18.6209 50.623 18.6552C50.5457 18.6896 50.4598 18.7067 50.3739 18.7067C50.288 18.7067 50.2021 18.6896 50.1162 18.6552C50.0389 18.6209 49.9616 18.5693 49.9015 18.5092C49.8414 18.4491 49.7899 18.3718 49.7555 18.2945C49.7211 18.2172 49.704 18.1313 49.704 18.0454C49.704 17.9595 49.7211 17.8736 49.7555 17.7877C49.7899 17.7018 49.8414 17.6331 49.9015 17.5644C49.9616 17.5043 50.0303 17.4528 50.1076 17.427C50.1935 17.3926 50.2794 17.3755 50.3739 17.3755ZM50.3739 17.4699C50.2966 17.4699 50.2279 17.4871 50.1592 17.5129C50.0905 17.5387 50.0303 17.5816 49.9788 17.6331C49.9273 17.6933 49.8843 17.7534 49.85 17.8221C49.8242 17.8908 49.807 17.9595 49.807 18.0368C49.807 18.1141 49.8242 18.1828 49.85 18.2515C49.8757 18.3202 49.9187 18.3804 49.9702 18.4319C50.0218 18.4834 50.0819 18.5264 50.1506 18.5607C50.2193 18.5865 50.288 18.6037 50.3567 18.6037C50.434 18.6037 50.5113 18.5865 50.58 18.5607C50.6488 18.535 50.7089 18.492 50.769 18.4405C50.8205 18.389 50.8635 18.3288 50.8892 18.2601C50.915 18.1914 50.9322 18.1227 50.9322 18.0454C50.9322 17.9681 50.915 17.8908 50.8892 17.8221C50.8635 17.7534 50.8205 17.6933 50.769 17.6417C50.7175 17.5902 50.6488 17.5472 50.58 17.5129C50.5199 17.4871 50.4512 17.4699 50.3739 17.4699ZM50.0991 17.6503H50.3825C50.4856 17.6503 50.5629 17.6675 50.6144 17.7018C50.6659 17.7362 50.6917 17.7877 50.6917 17.8564C50.6917 17.908 50.6745 17.9595 50.6488 17.9939C50.623 18.0282 50.58 18.054 50.5285 18.0626L50.6917 18.3975H50.5285L50.3825 18.0883H50.2708V18.3975H50.0991V17.6503ZM50.2622 17.7534V17.9853H50.3653C50.4254 17.9853 50.4684 17.9767 50.4941 17.9595C50.5199 17.9423 50.5371 17.9166 50.5371 17.8736C50.5371 17.8307 50.5199 17.8049 50.4941 17.7791C50.4684 17.762 50.4168 17.7534 50.3567 17.7534H50.2622Z" fill="#001789"/>
</svg>
