<svg width="15" height="13" viewBox="0 0 15 13" fill="none" xmlns="http://www.w3.org/2000/svg">
<g clip-path="url(#clip0_1475_9367)">
<path d="M0.5 3.36501H7.57C7.79 4.21501 8.56 4.84501 9.47 4.84501C10.38 4.84501 11.15 4.21501 11.37 3.36501H13.98C14.26 3.36501 14.48 3.14501 14.48 2.86501C14.48 2.58501 14.26 2.36501 13.98 2.36501H11.37C11.15 1.51501 10.38 0.88501 9.47 0.88501C8.56 0.88501 7.79 1.51501 7.57 2.36501H0.5C0.22 2.36501 0 2.58501 0 2.86501C0 3.14501 0.22 3.36501 0.5 3.36501ZM9.47 1.88501C10.01 1.88501 10.45 2.32501 10.45 2.86501C10.45 3.40501 10.01 3.84501 9.47 3.84501C8.93 3.84501 8.49 3.40501 8.49 2.86501C8.49 2.32501 8.93 1.88501 9.47 1.88501Z" fill="black"/>
<path d="M13.98 6.00502H6.8C6.58 5.15502 5.81 4.52502 4.9 4.52502C3.99 4.52502 3.22 5.15502 3 6.00502H0.5C0.22 6.00502 0 6.22502 0 6.50502C0 6.78502 0.22 7.00502 0.5 7.00502H2.99C3.21 7.85502 3.98 8.48502 4.89 8.48502C5.8 8.48502 6.57 7.85502 6.79 7.00502H13.97C14.25 7.00502 14.47 6.78502 14.47 6.50502C14.47 6.22502 14.25 6.00502 13.97 6.00502H13.98ZM4.89 7.48502C4.35 7.48502 3.91 7.04502 3.91 6.50502C3.91 5.96502 4.35 5.52502 4.89 5.52502C5.43 5.52502 5.87 5.96502 5.87 6.50502C5.87 7.04502 5.43 7.48502 4.89 7.48502Z" fill="black"/>
<path d="M13.98 9.64504H11.37C11.15 8.79504 10.38 8.16504 9.47 8.16504C8.56 8.16504 7.79 8.79504 7.57 9.64504H0.5C0.22 9.64504 0 9.86504 0 10.145C0 10.425 0.22 10.645 0.5 10.645H7.57C7.79 11.495 8.56 12.125 9.47 12.125C10.38 12.125 11.15 11.495 11.37 10.645H13.98C14.26 10.645 14.48 10.425 14.48 10.145C14.48 9.86504 14.26 9.64504 13.98 9.64504ZM9.47 11.125C8.93 11.125 8.49 10.685 8.49 10.145C8.49 9.60504 8.93 9.16504 9.47 9.16504C10.01 9.16504 10.45 9.60504 10.45 10.145C10.45 10.685 10.01 11.125 9.47 11.125Z" fill="black"/>
</g>
<defs>
<clipPath id="clip0_1475_9367">
<rect width="14.48" height="11.23" fill="white" transform="translate(0 0.88501)"/>
</clipPath>
</defs>
</svg>
