<?xml version="1.0" encoding="UTF-8"?><svg id="Capa_1" xmlns="http://www.w3.org/2000/svg" viewBox="0 0 16 16"><path d="m14.14,4.34h-2.11c-.28,0-.5-.22-.5-.5s.22-.5.5-.5h2.11c.28,0,.5.22.5.5s-.22.5-.5.5Z"/><path d="m9.16,4.34H1.86c-.28,0-.5-.22-.5-.5s.22-.5.5-.5h7.3c.28,0,.5.22.5.5s-.22.5-.5.5Z"/><path d="m14.14,8.71h-7.11c-.28,0-.5-.22-.5-.5s.22-.5.5-.5h7.11c.28,0,.5.22.5.5s-.22.5-.5.5Z"/><path d="m4.23,8.71H1.86c-.28,0-.5-.22-.5-.5s.22-.5.5-.5h2.37c.28,0,.5.22.5.5s-.22.5-.5.5Z"/><path d="m14.14,13.01h-2.19c-.28,0-.5-.22-.5-.5s.22-.5.5-.5h2.19c.28,0,.5.22.5.5s-.22.5-.5.5Z"/><path d="m9.28,13.01H1.86c-.28,0-.5-.22-.5-.5s.22-.5.5-.5h7.42c.28,0,.5.22.5.5s-.22.5-.5.5Z"/><path d="m10.61,5.68h0c-.49,0-.95-.2-1.29-.55-.35-.35-.54-.82-.53-1.31,0-1.01.83-1.83,1.84-1.83h0c.49,0,.94.19,1.29.54.35.35.54.82.54,1.31h0c0,1.01-.83,1.83-1.84,1.83Zm.01-2.69c-.46,0-.84.38-.84.84,0,.23.08.44.25.6.16.16.37.25.58.25h0c.46,0,.84-.38.84-.84,0-.23-.09-.44-.25-.6-.16-.16-.36-.25-.58-.25h0Zm1.33.85h0,0Z"/><path d="m10.61,14.35h0c-.49,0-.95-.2-1.29-.55-.35-.35-.54-.82-.53-1.31,0-1.01.83-1.83,1.84-1.83h0c.49,0,.95.19,1.29.54.35.35.54.82.54,1.31h0c0,1.01-.83,1.83-1.84,1.83Zm.01-2.69c-.46,0-.84.38-.84.84,0,.23.08.44.25.6.16.16.37.25.58.25.42,0,.85-.37.85-.84,0-.23-.09-.44-.25-.6-.16-.16-.36-.25-.58-.25h0Zm1.33.85h0,0Z"/><path d="m5.63,10.02h0c-.49,0-.95-.2-1.29-.55-.35-.35-.54-.82-.53-1.31,0-1.01.83-1.83,1.84-1.83h0c.49,0,.95.19,1.29.54.35.35.54.82.54,1.31h0c0,1.01-.83,1.83-1.84,1.83Zm.01-2.69c-.46,0-.84.38-.84.84,0,.23.08.44.25.6.16.16.37.25.58.25h0c.46,0,.84-.38.84-.84,0-.23-.09-.44-.25-.6-.16-.16-.32-.25-.59-.25Zm1.33.85h0,0Z"/></svg>