<svg width="16" height="10" viewBox="0 0 16 10" fill="none" xmlns="http://www.w3.org/2000/svg">
<path d="M6.03255 7.24403H2.38455L1.71255 9.10402H0.560547L3.58455 0.788025H4.84455L7.85655 9.10402H6.70455L6.03255 7.24403ZM5.72055 6.35602L4.20855 2.13202L2.69655 6.35602H5.72055Z" fill="#1D1D1B"/>
<path d="M8.76648 5.79202C8.76648 5.12002 8.90248 4.53203 9.17448 4.02803C9.44648 3.51603 9.81848 3.12002 10.2905 2.84002C10.7705 2.56002 11.3025 2.42002 11.8865 2.42002C12.4625 2.42002 12.9625 2.54402 13.3865 2.79202C13.8105 3.04002 14.1265 3.35202 14.3345 3.72802V2.52802H15.4385V9.10402H14.3345V7.88002C14.1185 8.26402 13.7945 8.58402 13.3625 8.84002C12.9385 9.08802 12.4425 9.21202 11.8745 9.21202C11.2905 9.21202 10.7625 9.06803 10.2905 8.78003C9.81848 8.49203 9.44648 8.08803 9.17448 7.56803C8.90248 7.04803 8.76648 6.45602 8.76648 5.79202ZM14.3345 5.80403C14.3345 5.30803 14.2345 4.87602 14.0345 4.50802C13.8345 4.14002 13.5625 3.86002 13.2185 3.66803C12.8825 3.46802 12.5105 3.36802 12.1025 3.36802C11.6945 3.36802 11.3225 3.46403 10.9865 3.65602C10.6505 3.84803 10.3825 4.12803 10.1825 4.49603C9.98248 4.86402 9.88248 5.29602 9.88248 5.79202C9.88248 6.29602 9.98248 6.73603 10.1825 7.11203C10.3825 7.48003 10.6505 7.76403 10.9865 7.96403C11.3225 8.15603 11.6945 8.25203 12.1025 8.25203C12.5105 8.25203 12.8825 8.15603 13.2185 7.96403C13.5625 7.76403 13.8345 7.48003 14.0345 7.11203C14.2345 6.73603 14.3345 6.30003 14.3345 5.80403Z" fill="#1D1D1B"/>
</svg>
