<svg width="18" height="18" viewBox="0 0 18 18" fill="none" xmlns="http://www.w3.org/2000/svg">
<path d="M9.18362 7.36362V10.8491H14.1262C13.9091 11.97 13.2578 12.9191 12.281 13.5573L15.2616 15.8237C16.9981 14.2528 18 11.9455 18 9.20461C18 8.56644 17.9416 7.95275 17.833 7.36371L9.18362 7.36362Z" fill="#4285F4"/>
<path d="M4.03679 10.713L3.36457 11.2173L0.985094 13.0336C2.49624 15.9709 5.59345 18 9.18344 18C11.663 18 13.742 17.1982 15.2616 15.8237L12.281 13.5573C11.4628 14.0973 10.419 14.4246 9.18344 14.4246C6.79567 14.4246 4.76695 12.8455 4.04055 10.7182L4.03679 10.713Z" fill="#34A853"/>
<path d="M0.985097 4.96636C0.358965 6.17722 0 7.5436 0 8.99994C0 10.4563 0.358962 11.8228 0.985094 13.0336C0.985094 13.0418 4.04084 10.7099 4.04084 10.7099C3.85717 10.1699 3.7486 9.5972 3.7486 8.99985C3.7486 8.4025 3.85717 7.82981 4.04084 7.28981L0.985097 4.96636Z" fill="#FBBC05"/>
<path d="M9.18363 3.58363C10.5362 3.58363 11.7384 4.0418 12.6985 4.92545L15.3284 2.34821C13.7337 0.891874 11.6633 0 9.18363 0C5.59364 0 2.49624 2.0209 0.985097 4.96636L4.04084 7.28981C4.76715 5.16251 6.79586 3.58363 9.18363 3.58363Z" fill="#EA4335"/>
</svg>
