<?xml version="1.0" encoding="UTF-8"?><svg id="Capa_1" xmlns="http://www.w3.org/2000/svg" viewBox="0 0 16 16"><path d="m10.39,2.8c.35,0,.72.06,1.1.19,1.28.43,2.03,1.37,2.28,2.73.02.09.03.18.04.27v.51c-.05.25-.08.5-.15.75-.23.82-.66,1.52-1.18,2.18-.9,1.15-1.99,2.1-3.15,2.95-.35.26-.72.49-1.07.74-.08.06-.17.09-.25.09h0c-.08,0-.17-.03-.25-.09-1.49-.96-2.87-2.06-4.03-3.43-.57-.68-1.06-1.42-1.34-2.28-.6-1.81.26-3.74,2-4.37.38-.14.78-.21,1.16-.21.78,0,1.54.28,2.16.8.1.09.2.18.29.27.71-.72,1.51-1.1,2.39-1.1m0-.75c-.86,0-1.66.29-2.4.85-.72-.54-1.58-.83-2.46-.83-.48,0-.96.09-1.42.25-2.11.77-3.18,3.1-2.46,5.31.28.86.76,1.67,1.48,2.53,1.09,1.29,2.46,2.46,4.2,3.58.21.14.43.2.66.21.24,0,.47-.07.68-.22.13-.09.25-.17.38-.26.24-.16.48-.32.71-.49,1.4-1.03,2.45-2.01,3.3-3.09.67-.85,1.08-1.62,1.31-2.44.05-.19.09-.39.12-.58l.04-.22v-.07s.01-.07.01-.07v-.62s-.02-.08-.02-.08c-.01-.07-.02-.14-.03-.21-.3-1.65-1.26-2.79-2.78-3.31-.45-.15-.9-.23-1.34-.23h0Z"/></svg>