<?xml version="1.0" encoding="UTF-8"?><svg id="Capa_1" xmlns="http://www.w3.org/2000/svg" viewBox="0 0 16 16"><path d="m6.01,6.12c-.11,0-.21-.03-.31-.09-.72-.46-1.28-.94-1.73-1.47-.3-.36-.5-.69-.62-1.05-.31-.94.15-1.93,1.04-2.25.53-.19,1.14-.12,1.6.21.46-.34.99-.42,1.54-.23.64.22,1.05.7,1.18,1.4l.02.42-.02.12c-.01.08-.03.17-.05.25-.1.34-.27.67-.55,1.02-.35.45-.78.85-1.36,1.27-.09.07-.19.13-.29.2l-.16.11c-.1.07-.2.1-.32.1Zm-.11-.72s0,0,0,0h0Zm-.89-3.51c-.12,0-.23.02-.34.06-.51.19-.77.76-.59,1.31.09.27.24.52.48.8.38.45.86.86,1.46,1.26l.06-.04c.09-.06.18-.12.26-.18.52-.38.91-.74,1.21-1.13.21-.27.35-.51.41-.76.02-.06.03-.12.04-.17v-.24c-.08-.47-.3-.74-.68-.87-.39-.13-.72-.04-1.04.28l-.27.27-.27-.27s-.06-.06-.09-.09c-.19-.16-.41-.24-.64-.24Z"/><path d="m10.82,7.34c-.1,0-.19-.03-.28-.09-.47-.3-.84-.62-1.14-.98-.2-.24-.34-.48-.42-.73-.22-.68.11-1.39.76-1.63.36-.13.76-.09,1.08.1.32-.2.68-.24,1.05-.12.46.15.76.51.85,1.01l.02.31-.02.1c0,.05-.02.11-.03.16-.07.24-.19.46-.38.71-.24.3-.52.57-.91.85l-.39.27-.18.02Zm-.14-.71s0,0,0,0h0Zm-.51-2.04c-.06,0-.12.01-.18.03-.27.1-.4.39-.3.69.05.16.14.31.29.48.22.26.5.51.84.74l.13-.09c.33-.24.57-.47.76-.71.13-.16.21-.3.25-.44l.03-.23c-.05-.24-.16-.37-.36-.44-.2-.07-.37-.02-.54.15l-.26.27-.27-.26c-.15-.13-.27-.18-.39-.18Z"/><path d="m8.38,16H2.91c-.27,0-.49-.22-.49-.49v-4.06h-1.18c-.18,0-.34-.1-.43-.26-.09-.16-.08-.35.02-.5l1.49-2.32c.09-.14.25-.23.41-.23h5.65v7.85Zm-5.21-.75h4.46v-5.48l-.96,1.45c-.09.14-.25.22-.41.22h-3.09v3.8Zm-1.71-4.15h0s0,0,0,0Zm.26-.4h4.41l1.19-1.8H2.87l-1.16,1.8Z"/><path d="m13.1,16h-5.47v-7.85h5.65c.17,0,.32.08.41.22l1.49,2.32c.1.15.1.34.02.5-.09.16-.25.26-.43.26h-1.18v4.06c0,.27-.22.49-.49.49Zm-4.72-.75h4.46v-3.8h-3.09c-.17,0-.32-.08-.41-.22l-.96-1.46v5.48Zm6.17-4.15h0s0,0,0,0Zm-4.66-.4h4.41l-1.16-1.8h-4.44l1.19,1.8Z"/></svg>