<?xml version="1.0" encoding="UTF-8"?><svg id="Capa_1" xmlns="http://www.w3.org/2000/svg" viewBox="0 0 16 16"><path d="m8,14.23c-3.39,0-6.14-2.75-6.14-6.14S4.61,1.95,8,1.95s6.14,2.75,6.14,6.14-2.75,6.14-6.14,6.14Zm0-11.53c-2.97,0-5.39,2.42-5.39,5.39s2.42,5.39,5.39,5.39,5.39-2.42,5.39-5.39-2.42-5.39-5.39-5.39Z"/><path d="m9.55,5.72c.33.29.49.69.49,1.2s-.16.89-.49,1.15c-.32.27-.75.4-1.29.4l-.03.59h-.95l-.04-1.31h.35c.45,0,.79-.06,1.03-.18.24-.12.36-.33.36-.65,0-.23-.07-.41-.2-.54s-.31-.2-.54-.2c-.24,0-.42.06-.55.19-.13.13-.2.31-.2.53h-1.02c0-.31.06-.59.2-.84.14-.25.34-.44.61-.58.27-.14.59-.21.95-.21.54,0,.97.15,1.29.44Zm-2.28,5.01c-.13-.12-.19-.27-.19-.45s.06-.33.19-.45c.13-.12.29-.18.48-.18s.35.06.47.18c.12.12.19.27.19.45s-.06.33-.19.45c-.12.12-.28.18-.47.18s-.36-.06-.48-.18Z"/></svg>