<svg width="26" height="26" viewBox="0 0 26 26" fill="none" xmlns="http://www.w3.org/2000/svg">
<path fill-rule="evenodd" clip-rule="evenodd" d="M12.992 1.68367C6.74649 1.68367 1.68354 6.74661 1.68354 12.9921C1.68354 19.2375 6.74649 24.3005 12.992 24.3005C19.2374 24.3005 24.3004 19.2375 24.3004 12.9921C24.3004 6.74661 19.2374 1.68367 12.992 1.68367ZM0.383545 12.9921C0.383545 6.02864 6.02852 0.383667 12.992 0.383667C19.9554 0.383667 25.6004 6.02864 25.6004 12.9921C25.6004 19.9555 19.9554 25.6005 12.992 25.6005C6.02852 25.6005 0.383545 19.9555 0.383545 12.9921Z" fill="black"/>
<path d="M16.2201 8.06241C16.9039 8.6667 17.2378 9.49361 17.2378 10.559C17.2378 11.6245 16.9039 12.4037 16.236 12.9603C15.5681 13.5168 14.6776 13.7872 13.5644 13.7872L13.5008 15.0276H11.529L11.4494 12.3083H12.165C13.0874 12.3083 13.803 12.1811 14.3118 11.9425C14.8207 11.704 15.0592 11.2428 15.0592 10.5909C15.0592 10.1297 14.9161 9.74804 14.6458 9.4777C14.3754 9.20737 14.0097 9.06425 13.5326 9.06425C13.0397 9.06425 12.658 9.19147 12.3877 9.4618C12.1173 9.73214 11.9742 10.0979 11.9742 10.559H9.85923C9.85923 9.90706 9.98645 9.31868 10.2727 8.80981C10.5589 8.30094 10.9883 7.90339 11.5449 7.60125C12.1014 7.31501 12.7693 7.17189 13.5167 7.17189C14.6299 7.17189 15.5204 7.47403 16.2042 8.07832L16.2201 8.06241ZM11.4972 18.4624C11.2427 18.208 11.0996 17.9058 11.0996 17.5242C11.0996 17.1425 11.2268 16.8404 11.4972 16.586C11.7516 16.3315 12.0855 16.2043 12.499 16.2043C12.9124 16.2043 13.2146 16.3315 13.469 16.586C13.7235 16.8404 13.8507 17.1425 13.8507 17.5242C13.8507 17.9058 13.7235 18.208 13.469 18.4624C13.2146 18.7168 12.8806 18.8441 12.499 18.8441C12.1173 18.8441 11.7675 18.7168 11.4972 18.4624Z" fill="black"/>
</svg>
