<svg width="240" height="36" viewBox="0 0 240 36" fill="none" xmlns="http://www.w3.org/2000/svg">
<path d="M2.79992 5.95201C3.33325 5.95201 3.78125 6.14401 4.14392 6.52801C4.52792 6.91201 4.71992 7.38134 4.71992 7.93601C4.71992 8.49067 4.52792 8.96001 4.14392 9.34401C3.78125 9.72801 3.33325 9.92001 2.79992 9.92001C2.24525 9.92001 1.77592 9.72801 1.39192 9.34401C1.00792 8.96001 0.815918 8.49067 0.815918 7.93601C0.815918 7.38134 1.00792 6.91201 1.39192 6.52801C1.77592 6.14401 2.24525 5.95201 2.79992 5.95201ZM1.45592 12.448H3.88792L4.23992 28.448H1.10392L1.45592 12.448Z" fill="#1D1D1B"/>
<path d="M27.1792 1.69601V24H24.2672V13.888H12.9072V24H9.99517V1.69601H12.9072V11.488H24.2672V1.69601H27.1792Z" fill="#1D1D1B"/>
<path d="M39.7994 24.288C38.1568 24.288 36.6634 23.9147 35.3194 23.168C33.9968 22.4213 32.9514 21.3653 32.1834 20C31.4368 18.6133 31.0634 17.0133 31.0634 15.2C31.0634 13.408 31.4474 11.8293 32.2154 10.464C33.0048 9.07734 34.0714 8.02134 35.4154 7.29601C36.7594 6.54934 38.2634 6.17601 39.9274 6.17601C41.5914 6.17601 43.0954 6.54934 44.4394 7.29601C45.7834 8.02134 46.8394 9.06667 47.6074 10.432C48.3968 11.7973 48.7914 13.3867 48.7914 15.2C48.7914 17.0133 48.3861 18.6133 47.5754 20C46.7861 21.3653 45.7088 22.4213 44.3434 23.168C42.9781 23.9147 41.4634 24.288 39.7994 24.288ZM39.7994 21.728C40.8448 21.728 41.8261 21.4827 42.7434 20.992C43.6608 20.5013 44.3968 19.7653 44.9514 18.784C45.5274 17.8027 45.8154 16.608 45.8154 15.2C45.8154 13.792 45.5381 12.5973 44.9834 11.616C44.4288 10.6347 43.7034 9.90934 42.8074 9.44001C41.9114 8.94934 40.9408 8.70401 39.8954 8.70401C38.8288 8.70401 37.8474 8.94934 36.9514 9.44001C36.0768 9.90934 35.3727 10.6347 34.8394 11.616C34.3061 12.5973 34.0394 13.792 34.0394 15.2C34.0394 16.6293 34.2954 17.8347 34.8074 18.816C35.3408 19.7973 36.0448 20.5333 36.9194 21.024C37.7941 21.4933 38.7541 21.728 39.7994 21.728Z" fill="#1D1D1B"/>
<path d="M55.5322 0.320007V24H52.6202V0.320007H55.5322Z" fill="#1D1D1B"/>
<path d="M59.4072 15.168C59.4072 13.376 59.7698 11.808 60.4952 10.464C61.2205 9.09867 62.2125 8.04267 63.4712 7.29601C64.7512 6.54934 66.1698 6.17601 67.7272 6.17601C69.2632 6.17601 70.5965 6.50667 71.7272 7.16801C72.8578 7.82934 73.7005 8.66134 74.2552 9.66401V6.46401H77.1992V24H74.2552V20.736C73.6792 21.76 72.8152 22.6133 71.6632 23.296C70.5325 23.9573 69.2098 24.288 67.6952 24.288C66.1378 24.288 64.7298 23.904 63.4712 23.136C62.2125 22.368 61.2205 21.2907 60.4952 19.904C59.7698 18.5173 59.4072 16.9387 59.4072 15.168ZM74.2552 15.2C74.2552 13.8773 73.9885 12.7253 73.4552 11.744C72.9218 10.7627 72.1965 10.016 71.2792 9.50401C70.3832 8.97067 69.3912 8.70401 68.3032 8.70401C67.2152 8.70401 66.2232 8.96001 65.3272 9.47201C64.4312 9.98401 63.7165 10.7307 63.1832 11.712C62.6498 12.6933 62.3832 13.8453 62.3832 15.168C62.3832 16.512 62.6498 17.6853 63.1832 18.688C63.7165 19.6693 64.4312 20.4267 65.3272 20.96C66.2232 21.472 67.2152 21.728 68.3032 21.728C69.3912 21.728 70.3832 21.472 71.2792 20.96C72.1965 20.4267 72.9218 19.6693 73.4552 18.688C73.9885 17.6853 74.2552 16.5227 74.2552 15.2Z" fill="#1D1D1B"/>
<path d="M239.24 1.69601L238.888 17.696H236.456L236.104 1.69601H239.24ZM237.8 24.192C237.245 24.192 236.776 24 236.392 23.616C236.008 23.232 235.816 22.7627 235.816 22.208C235.816 21.6533 236.008 21.184 236.392 20.8C236.776 20.416 237.245 20.224 237.8 20.224C238.333 20.224 238.781 20.416 239.144 20.8C239.528 21.184 239.72 21.6533 239.72 22.208C239.72 22.7627 239.528 23.232 239.144 23.616C238.781 24 238.333 24.192 237.8 24.192Z" fill="#1D1D1B"/>
<path d="M105.392 14.1486C105.392 13.0096 105.845 11.8998 106.637 11.1033C107.387 10.348 107.798 9.32322 107.798 8.21584C107.798 7.10845 107.375 6.11035 106.637 5.36967C105.875 4.60227 104.845 4.16272 103.814 4.16272C102.784 4.16272 101.715 4.60227 100.951 5.36967C100.159 6.16621 99.0535 6.62276 97.9187 6.62276C96.7838 6.62276 95.6515 6.17835 94.8478 5.36967C94.0856 4.60227 93.0555 4.16272 92.0254 4.16272C90.9953 4.16272 89.9238 4.60227 89.1615 5.36967C88.4237 6.11278 87.9999 7.14974 87.9999 8.21827C87.9999 9.2868 88.4115 10.3529 89.1615 11.1057C89.953 11.8998 90.4059 13.0096 90.4059 14.151C90.4059 15.2924 89.9652 16.4289 89.1615 17.2352C88.4237 17.9783 87.9999 19.0153 87.9999 20.0814C87.9999 21.1475 88.4115 22.216 89.1615 22.9688C89.9627 23.7751 90.4059 24.8582 90.4059 26.0141C90.4059 27.1701 89.9408 28.3139 89.1615 29.0983C88.4115 29.8511 87.9999 30.8638 87.9999 31.9445C87.9999 33.0251 88.4334 34.1009 89.1615 34.8319C89.9091 35.5847 90.9271 36 92.0254 36C93.1237 36 94.1099 35.575 94.8478 34.8319C95.576 34.0985 96.0094 33.0203 96.0094 31.9445C96.0094 30.8686 95.5979 29.8511 94.8478 29.0983C94.0685 28.3139 93.6034 27.1604 93.6034 26.0141C93.6034 24.8679 94.0442 23.7775 94.8478 22.9688C95.6515 22.1601 96.7424 21.7157 97.9187 21.7157C99.0949 21.7157 100.159 22.1723 100.951 22.9688C101.698 23.7216 102.716 24.1369 103.814 24.1369C104.913 24.1369 105.901 23.7119 106.637 22.9688C107.387 22.2136 107.798 21.1887 107.798 20.0814C107.798 18.974 107.375 17.9783 106.637 17.2352C105.836 16.4289 105.392 15.3337 105.392 14.151V14.1486ZM100.951 17.2328C100.159 18.0293 99.0535 18.4859 97.9187 18.4859C96.7838 18.4859 95.649 18.0414 94.8478 17.2328C94.0466 16.4265 93.6034 15.3313 93.6034 14.1486C93.6034 12.9659 94.0564 11.8998 94.8478 11.1033C95.6515 10.2946 96.7424 9.8502 97.9187 9.8502C99.0949 9.8502 100.159 10.3068 100.951 11.1033C101.742 11.8974 102.195 13.0072 102.195 14.1486C102.195 15.29 101.754 16.4265 100.951 17.2328Z" fill="#1D1D1B"/>
<path d="M134.065 4.35699H137.715L137.954 6.2172C139.462 4.87183 141.485 4.08015 143.589 4.08015C144.225 4.08015 144.938 4.119 145.455 4.238V8.27412C144.899 8.11627 144.225 8.07741 143.589 8.07741C141.407 8.07741 139.542 8.8691 138.154 10.5302V24.0228H134.067V4.35699H134.065Z" fill="#1D1D1B"/>
<path d="M147.595 20.1032L150.81 17.6893C152.198 19.9842 154.222 20.9726 156.284 20.9726C158.347 20.9726 159.815 20.0619 159.815 18.5199C159.815 17.0968 158.624 16.3439 157.037 16.1059L154.258 15.749C150.766 15.2754 148.306 13.3739 148.306 10.1295C148.306 6.52805 151.64 3.99758 156.084 3.99758C159.338 3.99758 162.156 5.26281 163.98 7.51887L161.004 10.0906C159.774 8.38826 158.028 7.39987 156.084 7.39987C154.141 7.39987 152.514 8.31055 152.514 9.81377C152.514 11.079 153.506 11.7517 155.093 11.9508L157.95 12.3855C161.52 12.8615 164.06 14.8383 164.06 18.2406C164.06 21.9197 160.845 24.3725 156.243 24.3725C152.673 24.3725 149.655 23.1461 147.593 20.0984L147.595 20.1032Z" fill="#1D1D1B"/>
<path d="M190.568 4.35699H194.099L194.337 6.01807C195.884 4.75283 197.949 4.00001 200.011 4.00001C204.694 4.00001 208.384 7.52129 208.384 12.269V24.0203H204.258V12.6648C204.258 9.89391 202.154 7.75928 199.339 7.75928C197.554 7.75928 195.886 8.51211 194.656 9.85506V24.0203H190.57V4.35699H190.568Z" fill="#1D1D1B"/>
<path d="M187.187 13.8936C187.078 14.6076 186.954 15.324 186.9 16.0404C186.776 17.7209 186.126 18.6413 184.158 19.1318C183.824 19.2144 183.505 19.3407 183.196 19.4694C182.719 19.6709 182.48 19.9891 182.448 20.4311C182.295 22.5511 181.387 23.4157 178.757 23.8285C177.13 24.0835 175.481 24.1151 173.867 23.7144C172.676 23.4181 171.638 22.9761 170.935 22.0873C170.664 21.7473 170.175 21.4972 169.739 21.264C169.22 20.9848 168.641 20.7808 168.105 20.5185C167.036 19.9964 166.69 19.1925 166.96 18.2673C167.386 16.7981 167.277 15.392 166.624 13.9737C166.142 12.9246 166.444 11.8707 167.567 11.2223C169.269 10.2363 170.272 8.95409 170.969 7.41201C171.509 6.21478 172.398 5.12196 174.02 4.70669C176.704 4.02186 179.134 4.25985 180.612 6.36291C180.719 6.51591 180.858 6.66161 180.943 6.82189C181.496 7.89285 182.553 8.37126 183.929 8.62139C186.43 9.07795 187.39 10.1125 187.407 12.1815C187.407 12.2252 187.407 12.269 187.407 12.3151C187.429 12.3151 187.265 13.3666 187.185 13.8912L187.187 13.8936ZM176.2 7.50915C174.785 7.52372 173.538 7.81757 172.547 8.63354C171.288 9.66807 171.176 10.909 171.646 12.218C172.094 13.4662 171.974 14.61 171.025 15.7125C170.316 16.5358 170.552 17.1453 171.636 17.6529C172.255 17.9419 172.712 18.3207 172.89 18.8866C172.975 19.1585 173.041 19.4354 173.136 19.7025C173.535 20.8099 174.276 21.7109 175.752 22.0193C177.237 22.3301 178.545 22.012 179.068 20.89C179.295 20.4043 179.334 19.8579 179.395 19.3334C179.463 18.7506 179.704 18.2916 180.383 17.9953C181.426 17.5387 182.483 17.4125 183.639 17.7015C183.97 17.784 184.443 17.7646 184.738 17.6335C185.568 17.2643 186.121 15.4065 184.886 14.8577C184.26 14.5809 183.6 14.3429 182.933 14.1389C181.367 13.6653 180.749 12.9781 180.683 11.6521C180.654 11.0644 180.593 10.4719 180.434 9.89877C180.167 8.92252 179.494 8.15513 178.255 7.83457C177.595 7.66457 176.886 7.61358 176.2 7.50915Z" fill="#1D1D1B"/>
<path d="M212.687 19.7487C213.637 20.7273 214.62 21.7376 215.57 22.7163C216.6 21.706 217.606 20.7176 218.643 19.7025C217.643 18.7627 216.613 17.7937 215.629 16.8685C214.642 17.835 213.627 18.8307 212.687 19.7511V19.7487Z" fill="#1D1D1B"/>
<path d="M212.699 8.5534C213.656 9.54907 214.64 10.5763 215.604 11.5793C216.637 10.5666 217.638 9.5855 218.656 8.58739C217.633 7.62572 216.595 6.64947 215.595 5.70722C214.64 6.64462 213.617 7.65 212.699 8.55097V8.5534Z" fill="#1D1D1B"/>
<path d="M223.456 4.36428H219.148V8.58982H223.456V4.36428Z" fill="#1D1D1B"/>
<path d="M215.612 12.048H211.313V16.2735H215.612V12.048Z" fill="#1D1D1B"/>
<path d="M219.143 24.0203H223.456V19.8021H219.143V24.0203Z" fill="#1D1D1B"/>
<path d="M226.894 4.36428V5.77522C225.949 6.7029 224.963 7.67186 224.03 8.58739C224.98 9.55878 225.952 10.5545 226.894 11.521V16.9268C225.935 17.869 224.956 18.8283 224.062 19.7049C225.009 20.6812 225.976 21.6793 226.894 22.624V24.0228H230.997V4.36428H226.894Z" fill="#1D1D1B"/>
<path d="M119.522 12.5385H119.916C123.362 12.5385 126.81 12.5385 130.256 12.5385C130.62 12.5385 130.802 12.664 130.802 12.9149C130.802 13.7868 130.794 14.6586 130.807 15.5304C130.809 15.7198 130.714 15.8291 130.468 15.9262C126.672 17.4635 122.88 19.008 119.088 20.5501C118.996 20.5889 118.906 20.6302 118.816 20.6715C118.82 20.6909 118.825 20.7128 118.828 20.7322H119.239C122.921 20.7322 126.606 20.7322 130.288 20.7322C130.627 20.7322 130.797 20.8496 130.797 21.0843C130.797 21.9707 130.79 22.8571 130.804 23.7459C130.807 23.9523 130.714 24.0203 130.402 24.0203C123.983 24.0155 117.561 24.0155 111.142 24.0203C110.867 24.0203 110.767 23.9669 110.769 23.7775C110.779 22.7308 110.779 21.6842 110.769 20.6399C110.769 20.4748 110.852 20.3776 111.064 20.2951C114.464 18.9764 117.861 17.6529 121.258 16.3294C121.633 16.1837 122.011 16.038 122.386 15.8922C122.381 15.8704 122.376 15.8461 122.369 15.8242C122.232 15.8242 122.093 15.8242 121.957 15.8242C118.387 15.8242 114.817 15.8242 111.244 15.8242C110.777 15.8242 110.774 15.8242 110.774 15.5134C110.774 14.5954 110.779 13.6799 110.769 12.7619C110.769 12.5822 110.852 12.4754 111.086 12.3782C114.875 10.8337 118.66 9.28194 122.446 7.73257C125.108 6.64462 127.772 5.55666 130.436 4.47113C130.522 4.43713 130.614 4.41285 130.758 4.36428C130.775 4.47599 130.797 4.56099 130.797 4.64598C130.797 5.72908 130.79 6.81461 130.807 7.89771C130.809 8.10899 130.707 8.22555 130.436 8.32755C126.93 9.64135 123.428 10.9624 119.926 12.2835C119.773 12.3418 119.629 12.4074 119.48 12.4681C119.495 12.4924 119.507 12.5142 119.522 12.5385Z" fill="#1D1D1B"/>
</svg>
