<svg width="18" height="16" viewBox="0 0 18 16" fill="none" xmlns="http://www.w3.org/2000/svg">
<path d="M12.2944 1.825C12.6744 1.825 13.0744 1.895 13.4844 2.035C14.8644 2.505 15.6744 3.475 15.9544 5.025C15.9644 5.095 15.9744 5.175 15.9844 5.245V5.295V5.825C15.9644 5.905 15.9544 5.985 15.9444 6.075C15.9044 6.295 15.8744 6.495 15.8244 6.675C15.5844 7.535 15.1244 8.375 14.3744 9.325C13.3244 10.665 12.0044 11.895 10.2244 13.205C9.92443 13.425 9.62443 13.625 9.31443 13.835C9.20443 13.915 9.09443 13.985 8.98443 14.065C6.86443 12.675 5.18443 11.235 3.86443 9.665C3.03443 8.685 2.50443 7.795 2.20443 6.865C1.54443 4.875 2.49443 2.785 4.35443 2.105C4.76443 1.955 5.18443 1.875 5.61443 1.875C6.46443 1.875 7.27443 2.175 7.95443 2.745C8.07443 2.845 8.18443 2.955 8.29443 3.065L9.00443 3.765L9.70443 3.055C10.5044 2.245 11.3744 1.845 12.2844 1.845M12.2844 0.845001C11.0744 0.845001 9.97443 1.365 8.99443 2.355C8.86443 2.225 8.72443 2.105 8.58443 1.985C7.72443 1.235 6.68443 0.855001 5.61443 0.855001C5.08442 0.855001 4.53443 0.945001 4.01443 1.145C1.61443 2.025 0.434425 4.665 1.25443 7.165C1.64443 8.345 2.31443 9.365 3.10443 10.305C4.69443 12.195 6.59443 13.705 8.65443 15.035C8.77443 15.115 8.89443 15.155 9.00443 15.155C9.11443 15.155 9.23443 15.115 9.35443 15.035C9.84443 14.695 10.3444 14.375 10.8344 14.015C12.4344 12.835 13.9344 11.535 15.1744 9.955C15.8844 9.055 16.4844 8.085 16.7944 6.965C16.8844 6.635 16.9344 6.285 17.0044 5.935V5.235C16.9844 5.115 16.9644 4.985 16.9444 4.865C16.6044 2.995 15.5644 1.705 13.8144 1.105C13.2944 0.925001 12.7944 0.845001 12.3044 0.845001H12.2844Z" fill="#1D1D1B"/>
</svg>
