<svg width="20" height="20" viewBox="0 0 20 20" fill="none" xmlns="http://www.w3.org/2000/svg">
<g clip-path="url(#clip0_246_1906)">
<path d="M0 10.5836C0 10.1684 0 9.75371 0 9.33852C0.0114802 9.28188 0.0260913 9.22627 0.0344405 9.16911C0.101234 8.72118 0.139849 8.26701 0.237952 7.82636C1.45328 2.34516 6.92775 -1.05746 12.4095 0.297765C17.6205 1.58596 20.8339 6.6556 19.8101 11.8998C19.0268 15.9125 15.7706 19.0818 11.7239 19.7667C11.3601 19.8286 10.9923 19.8691 10.6265 19.9195H9.37616C9.33337 19.9086 9.29058 19.8904 9.24727 19.8873C8.39982 19.8275 7.5696 19.6721 6.77277 19.378C3.14034 18.0389 0.936155 15.4724 0.158113 11.6951C0.0829702 11.3293 0.0516607 10.9546 0 10.5836ZM9.13977 8.47019C8.39669 8.50501 7.69797 8.63492 7.07073 9.0153C5.71868 9.83582 5.18694 11.3199 5.66911 12.9038C6.27599 14.8977 8.42644 15.7972 10.2121 14.7833C11.4358 14.0886 12.0239 12.9921 12.0667 11.6114C12.0996 10.543 12.0834 9.4731 12.0886 8.40368C12.0886 8.32989 12.0886 8.2561 12.0886 8.15685C12.2843 8.2613 12.4429 8.34912 12.6047 8.4307C13.1448 8.70403 13.7078 8.88591 14.3241 8.86928C14.4671 8.86564 14.5141 8.81939 14.5114 8.67493C14.5026 8.24727 14.5015 7.81908 14.5114 7.39193C14.5156 7.23084 14.4749 7.17524 14.3022 7.1529C13.3081 7.02403 12.6005 6.5153 12.2655 5.55292C12.1726 5.28582 12.1152 5.00729 12.0396 4.7272H10.3368C10.3368 4.81035 10.3368 4.8805 10.3368 4.95013C10.3415 7.07599 10.3535 9.20185 10.3441 11.3277C10.3426 11.6785 10.2815 12.0396 10.1839 12.3774C9.98669 13.0633 9.47478 13.4302 8.78963 13.4349C7.65361 13.4432 6.84739 12.2625 7.30921 11.2669C7.54612 10.7556 7.99489 10.528 8.50627 10.3861C8.71709 10.3279 8.92895 10.2744 9.13873 10.2188V8.46915L9.13977 8.47019Z" fill="black"/>
</g>
<defs>
<clipPath id="clip0_246_1906">
<rect width="20" height="19.92" fill="white"/>
</clipPath>
</defs>
</svg>
