<svg width="20" height="20" viewBox="0 0 20 20" fill="none" xmlns="http://www.w3.org/2000/svg">
<g clip-path="url(#clip0_246_1902)">
<path d="M10 0C4.5 0 0 4.49 0 10.02C0 15.02 3.66 19.17 8.44 19.92V12.92H5.9V10.02H8.44V7.81C8.44 5.3 9.93 3.92 12.22 3.92C13.31 3.92 14.45 4.11 14.45 4.11V6.58H13.19C11.95 6.58 11.56 7.35 11.56 8.14V10.02H14.34L13.89 12.92H11.56V19.92C16.43 19.15 20.01 14.95 20 10.02C20 4.49 15.5 0 10 0Z" fill="black"/>
</g>
<defs>
<clipPath id="clip0_246_1902">
<rect width="20" height="19.92" fill="white"/>
</clipPath>
</defs>
</svg>
