<?xml version="1.0" encoding="UTF-8"?><svg id="Capa_1" xmlns="http://www.w3.org/2000/svg" viewBox="0 0 16 16"><path d="m10.97,14.06h-5.95c-1.55,0-2.81-1.26-2.81-2.81v-6.49c0-1.55,1.26-2.81,2.81-2.81h5.95c1.55,0,2.81,1.26,2.81,2.81v6.49c0,1.55-1.26,2.81-2.81,2.81ZM5.03,2.69c-1.14,0-2.06.92-2.06,2.06v6.49c0,1.14.92,2.06,2.06,2.06h5.95c1.14,0,2.06-.92,2.06-2.06v-6.49c0-1.14-.92-2.06-2.06-2.06h-5.95Z"/><path d="m5.29,6.54c-.77,0-1.41-.63-1.41-1.41s.63-1.4,1.41-1.4,1.41.63,1.41,1.4-.63,1.41-1.41,1.41Zm0-2.06c-.36,0-.66.29-.66.65s.29.66.66.66.66-.29.66-.66-.29-.65-.66-.65Z"/><path d="m2.59,11.62c-.09,0-.18-.03-.26-.1-.15-.14-.16-.38-.02-.53l2.36-2.54c.63-.47,1.44-.37,1.91.17l.55.65,1.8-1.96c.25-.27.59-.43.95-.44.38-.02.72.12.98.36l2.83,3.52c.13.16.1.4-.06.53-.16.13-.4.1-.53-.06l-2.79-3.48c-.08-.07-.25-.12-.41-.12-.17,0-.32.08-.43.2l-2.09,2.27c-.07.08-.2.11-.28.12-.11,0-.21-.05-.28-.13l-.82-.97c-.21-.25-.58-.29-.84-.1l-2.31,2.49c-.07.08-.17.12-.27.12Z"/></svg>