<svg width="17" height="17" viewBox="0 0 17 17" fill="none" xmlns="http://www.w3.org/2000/svg">
<path fill-rule="evenodd" clip-rule="evenodd" d="M3.93 1C2.31181 1 1 2.31181 1 3.93V13.07C1 14.6882 2.31181 16 3.93 16H12.3C13.9182 16 15.23 14.6882 15.23 13.07V3.93C15.23 2.31181 13.9182 1 12.3 1H3.93ZM2.0456e-06 3.93C2.0456e-06 1.75952 1.75952 0 3.93 0H12.3C14.4705 0 16.23 1.75952 16.23 3.93V13.07C16.23 15.2405 14.4705 17 12.3 17H3.93C1.75952 17 2.0456e-06 15.2405 2.0456e-06 13.07V3.93Z" fill="#1D1D1B"/>
<path fill-rule="evenodd" clip-rule="evenodd" d="M4.3 3.51C3.77533 3.51 3.35 3.93533 3.35 4.46C3.35 4.98467 3.77533 5.41 4.3 5.41C4.82467 5.41 5.25 4.98467 5.25 4.46C5.25 3.93533 4.82467 3.51 4.3 3.51ZM2.35 4.46C2.35 3.38304 3.22305 2.51 4.3 2.51C5.37696 2.51 6.25 3.38304 6.25 4.46C6.25 5.53696 5.37696 6.41 4.3 6.41C3.22305 6.41 2.35 5.53696 2.35 4.46Z" fill="#1D1D1B"/>
<path fill-rule="evenodd" clip-rule="evenodd" d="M10.1769 8.24972L10.1762 8.25047L7.23767 11.4389C7.14052 11.5443 7.0028 11.6029 6.85949 11.5999C6.71617 11.5969 6.58104 11.5325 6.48841 11.4231L5.32701 10.0514C5.0356 9.70423 4.52506 9.6328 4.14971 9.87968L0.866143 13.4105C0.67809 13.6127 0.361715 13.6242 0.159501 13.4361C-0.0427128 13.2481 -0.0541923 12.9317 0.133861 12.7295L3.45386 9.1595C3.47565 9.13606 3.49965 9.11478 3.52551 9.09593C4.32716 8.51168 5.45273 8.64666 6.09223 9.40766L6.09299 9.40856L6.88588 10.345L9.44234 7.57115L9.44383 7.56953C10.1623 6.79684 11.3562 6.75743 12.127 7.46062C12.1461 7.47806 12.1638 7.49697 12.18 7.51717L16.11 12.4172C16.2828 12.6326 16.2483 12.9473 16.0328 13.12C15.8174 13.2928 15.5027 13.2582 15.33 13.0428L11.4269 8.17641C11.0578 7.86393 10.5105 7.89169 10.1769 8.24972Z" fill="#1D1D1B"/>
</svg>
