<?xml version="1.0" encoding="UTF-8"?><svg id="Capa_1" xmlns="http://www.w3.org/2000/svg" viewBox="0 0 16 16"><path d="m12.64,3.1v8.64s-.02.05-.02.08c-.05.31-.18.59-.39.82-.36.4-.82.56-1.35.56-1.94,0-3.88,0-5.81,0-.11,0-.23,0-.34-.02-.69-.1-1.27-.68-1.34-1.37-.03-.33-.02-.67-.02-1.01,0-.25.14-.39.39-.39.34,0,.68,0,1.01,0,.03,0,.06,0,.1,0,0-.05,0-.09,0-.13,0-1.95,0-5.08,0-7.03,0-.06,0-.12.02-.18.08-.25.36-.31.57-.14.17.15.34.3.51.45.14.12.28.25.42.37.03-.02.05-.04.07-.06.29-.26.57-.51.86-.77.17-.15.34-.15.51,0,.18.16.36.32.54.48.13.11.26.23.39.34.03-.03.06-.05.08-.07.28-.25.56-.5.84-.75.18-.16.35-.16.53,0,.26.23.52.47.78.7.04.04.09.08.14.12.05-.04.09-.08.14-.12.26-.23.53-.47.79-.7.15-.13.32-.15.45-.04.06.05.09.14.14.21Zm-7.09,7.3s.08,0,.11,0c1.34,0,2.67,0,4.01,0,.26,0,.39.13.39.39,0,.26,0,.52,0,.78.01.59.5,1.01,1.09.93.45-.06.8-.46.8-.94,0-2.12,0-5.43,0-7.55,0-.02,0-.05,0-.09-.2.18-.39.34-.58.51-.17.15-.34.15-.51,0-.17-.15-.35-.31-.52-.46-.13-.12-.27-.24-.41-.36-.31.27-.61.54-.91.81-.19.17-.35.17-.54,0-.26-.23-.51-.46-.77-.69-.05-.04-.09-.08-.14-.12-.03.03-.05.05-.08.07-.29.26-.57.51-.86.77-.16.14-.33.14-.5,0-.06-.05-.11-.1-.17-.15-.14-.12-.27-.24-.42-.37v6.48Zm-1.5.69c0,.21,0,.42,0,.62,0,.16.08.3.18.43.21.27.49.38.83.38,1.51,0,3.01,0,4.52,0,.03,0,.06,0,.11,0-.34-.44-.32-.93-.31-1.43h-5.34Z"/><path d="m8.75,8.84c-.61,0-1.21,0-1.82,0-.22,0-.37-.15-.36-.35,0-.17.13-.3.3-.32.04,0,.08,0,.12,0,1.18,0,2.36,0,3.54,0,.06,0,.12,0,.18.02.16.05.25.2.23.37-.02.16-.16.29-.33.29-.52,0-1.04,0-1.57,0-.1,0-.19,0-.29,0Z"/><path d="m7.95,6.57c.36,0,.71,0,1.07,0,.15,0,.25.08.31.22.05.13.02.27-.08.37-.07.07-.16.1-.26.1-.22,0-.43,0-.65,0-.46,0-.93,0-1.39,0-.2,0-.34-.11-.37-.28-.04-.2.12-.39.33-.39.35,0,.7,0,1.05,0,0,0,0,0,0,0Z"/></svg>