<svg width="63" height="45" viewBox="0 0 63 45" fill="none" xmlns="http://www.w3.org/2000/svg">
<path d="M15.7642 28.7973C12.9988 28.7973 10.1375 28.2819 7.20784 26.9833C4.56565 25.8083 1.37585 23.3896 0.335403 20.1051C-0.287497 18.1331 -0.0410755 16.1335 1.06098 14.3333C1.35532 13.8523 1.68388 13.4125 2.05351 13.0002C1.60174 11.839 1.47853 10.609 1.69757 9.33784C2.19726 6.47938 4.46297 3.82707 7.75544 2.25355C13.6901 -0.591162 22.6229 -0.762944 28.0921 1.86876L25.9907 6.09459C21.8426 4.09505 14.4499 4.2737 9.85003 6.47938C8.09085 7.32455 6.83136 8.59574 6.46857 9.86005C8.74113 8.80188 11.0342 8.2934 12.3485 8.07352C21.4661 6.50687 24.7722 10.2929 25.2856 12.7735C25.6279 14.4226 24.9707 16.1748 23.5196 17.4666C19.4468 21.1083 11.664 20.5174 6.79029 17.8857C6.18108 17.5559 5.61978 17.1986 5.11325 16.8207C4.75046 17.4459 4.68201 18.03 4.89421 18.7034C5.34598 20.1326 7.10516 21.7748 9.16552 22.6956C15.2713 25.4098 21.1717 23.7125 26.6409 21.4725L28.4754 25.8152C24.6422 27.3887 20.3366 28.7973 15.7573 28.7973H15.7642ZM9.19975 13.8179C12.8687 15.7487 18.2352 15.8449 20.3093 13.9897C20.4736 13.8454 20.5488 13.7148 20.5831 13.6461C20.2271 12.7254 16.6745 12.1138 13.1699 12.7116C11.7187 12.959 10.3703 13.3438 9.19975 13.8179Z" fill="black"/>
<path d="M59.4493 14.1136C59.4493 12.5058 60.0859 10.9322 61.1948 9.81222C62.2489 8.74717 62.8239 7.29733 62.8239 5.73068C62.8239 4.16403 62.2284 2.75542 61.1948 1.70411C60.1269 0.61845 58.6826 -0.00683594 57.2315 -0.00683594C55.7803 -0.00683594 54.2813 0.61845 53.2134 1.70411C52.1045 2.831 50.5507 3.4769 48.9558 3.4769C47.3609 3.4769 45.7729 2.84474 44.6434 1.70411C43.5756 0.61845 42.1313 -0.00683594 40.6802 -0.00683594C39.229 -0.00683594 37.7299 0.61845 36.6621 1.70411C35.6285 2.75542 35.033 4.219 35.033 5.73068C35.033 7.24236 35.6148 8.74717 36.6621 9.81222C37.771 10.9391 38.4076 12.5058 38.4076 14.1136C38.4076 15.7215 37.7847 17.3363 36.6621 18.47C35.6285 19.5213 35.033 20.9849 35.033 22.4966C35.033 24.0083 35.6148 25.5131 36.6621 26.5781C37.7915 27.7188 38.4076 29.2442 38.4076 30.8796C38.4076 32.5149 37.7573 34.1297 36.6621 35.236C35.608 36.301 35.033 37.7302 35.033 39.2625C35.033 40.7948 35.6422 42.3065 36.6621 43.3441C37.7162 44.4091 39.14 44.9932 40.6802 44.9932C42.2203 44.9932 43.6098 44.3885 44.6434 43.3441C45.6633 42.3065 46.2726 40.7811 46.2726 39.2625C46.2726 37.744 45.6907 36.301 44.6434 35.236C43.5482 34.1297 42.8979 32.5012 42.8979 30.8796C42.8979 29.2579 43.5208 27.7188 44.6434 26.5781C45.7729 25.4375 47.3062 24.8053 48.9558 24.8053C50.6055 24.8053 52.1045 25.4513 53.2134 26.5781C54.2607 27.6432 55.6914 28.2272 57.2315 28.2272C58.7716 28.2272 60.1612 27.6226 61.1948 26.5781C62.2489 25.5131 62.8239 24.0633 62.8239 22.4966C62.8239 20.93 62.2284 19.5213 61.1948 18.47C60.0722 17.3294 59.4493 15.7834 59.4493 14.1136ZM53.2134 18.47C52.1045 19.5969 50.5507 20.2428 48.9558 20.2428C47.3609 20.2428 45.7729 19.6107 44.6434 18.47C43.5208 17.3294 42.8979 15.7834 42.8979 14.1136C42.8979 12.4439 43.5345 10.9322 44.6434 9.81222C45.7729 8.67159 47.3062 8.03943 48.9558 8.03943C50.6055 8.03943 52.0977 8.68533 53.2134 9.81222C54.3223 10.9391 54.9589 12.5058 54.9589 14.1136C54.9589 15.7215 54.336 17.3363 53.2134 18.47Z" fill="black"/>
</svg>
