<svg width="182" height="53" viewBox="0 0 182 53" fill="none" xmlns="http://www.w3.org/2000/svg">
<g clip-path="url(#clip0_709_5566)">
<path d="M13.6268 12.8228C13.6268 13.2834 13.6004 13.7206 13.5739 14.1812H2.90869C3.33887 16.2204 4.95702 17.6589 7.02851 17.6589C8.61687 17.6589 9.85778 16.978 10.7181 15.8399L12.5779 17.5788C11.1781 19.2075 9.34487 20.132 7.00204 20.132C3.09731 20.1286 0 17.0314 0 13.1766C0 9.32172 3.12378 6.14106 6.94909 6.14106C10.7744 6.14106 13.6301 9.12815 13.6301 12.8228H13.6268ZM2.93516 11.8716H10.7446C10.6089 10.0226 8.96764 8.61083 6.94578 8.61083C4.92393 8.61083 3.41829 9.9425 2.93185 11.8716H2.93516Z" fill="#1D1D1B"/>
<path d="M15.8109 6.3847H18.2066L18.3688 7.52613C19.4178 6.65837 20.8208 6.14106 22.2206 6.14106C25.3973 6.14106 27.9023 8.55743 27.9023 11.8182V19.885H25.1028V12.0885C25.1028 10.1861 23.6766 8.72097 21.7639 8.72097C20.5528 8.72097 19.4211 9.23829 18.5872 10.1594V19.885H15.8142V6.3847H15.8109Z" fill="#1D1D1B"/>
<path d="M28.4946 6.3847H31.5389L35.5529 16.7344L39.5668 6.3847H42.5549L37.1148 19.885H33.938L28.4979 6.3847H28.4946Z" fill="#1D1D1B"/>
<path d="M43.9811 0H46.7542V3.26077H43.9811V0ZM43.9811 6.3847H46.7542V19.885H43.9811V6.3847Z" fill="#1D1D1B"/>
<path d="M60.0633 19.885L59.8747 18.8804C58.8787 19.6681 57.4491 20.1287 55.9964 20.1287C52.1447 20.1287 49.0209 16.978 49.0209 13.1198C49.0209 9.26165 52.1447 6.13772 55.9964 6.13772C57.4524 6.13772 58.9051 6.625 59.8747 7.4427L60.0633 6.3847H62.4591V19.885H60.0633ZM56.1586 17.5487C57.5319 17.5487 58.7992 17.0047 59.6861 15.9734V10.323C58.7959 9.29169 57.5054 8.72097 56.1586 8.72097C53.8157 8.72097 51.9296 10.7035 51.9296 13.1232C51.9296 15.5429 53.8157 17.5521 56.1586 17.5521V17.5487Z" fill="#1D1D1B"/>
<path d="M31.4959 31.1425H33.9744L34.1366 32.4208C35.1591 31.4963 36.5323 30.9523 37.9619 30.9523C38.3921 30.9523 38.8785 30.979 39.2293 31.0624V33.8326C38.852 33.7224 38.3954 33.6957 37.9619 33.6957C36.4794 33.6957 35.2153 34.2397 34.2722 35.3812V44.6428H31.4992V31.1425H31.4959Z" fill="#1D1D1B"/>
<path d="M40.6787 41.9528L42.8594 40.2974C43.8024 41.8727 45.1757 42.5535 46.5755 42.5535C47.9752 42.5535 48.9712 41.9294 48.9712 40.8681C48.9712 39.8902 48.1638 39.3729 47.0851 39.2127L45.1989 38.969C42.8296 38.6419 41.1585 37.3403 41.1585 35.1108C41.1585 32.6377 43.4219 30.8989 46.4365 30.8989C48.6436 30.8989 50.5563 31.7666 51.7972 33.3152L49.7787 35.0808C48.9448 33.9127 47.7601 33.2351 46.4398 33.2351C45.1195 33.2351 44.0142 33.8593 44.0142 34.8906C44.0142 35.7583 44.686 36.2222 45.7647 36.3591L47.7039 36.6561C50.1294 36.9832 51.8502 38.3416 51.8502 40.6778C51.8502 43.2043 49.6695 44.8898 46.5457 44.8898C44.1201 44.8898 42.0751 44.0487 40.6754 41.9561L40.6787 41.9528Z" fill="#1D1D1B"/>
<path d="M67.6941 37.8776C67.6941 41.7358 64.4876 44.8865 60.5828 44.8865C56.6781 44.8865 53.4451 41.7358 53.4451 37.8776C53.4451 34.0195 56.6516 30.8955 60.5828 30.8955C64.514 30.8955 67.6941 34.0195 67.6941 37.8776ZM56.3538 37.8776C56.3538 40.3241 58.24 42.3066 60.5828 42.3066C62.9257 42.3066 64.7854 40.3241 64.7854 37.8776C64.7854 35.4312 62.8992 33.4754 60.5828 33.4754C58.2665 33.4754 56.3538 35.4579 56.3538 37.8776Z" fill="#1D1D1B"/>
<path d="M94.8981 44.6428L94.7095 43.6382C93.7135 44.4259 92.284 44.8865 90.8313 44.8865C86.9795 44.8865 83.8557 41.7358 83.8557 37.8776C83.8557 34.0195 86.9795 30.8955 90.8313 30.8955C92.2873 30.8955 93.74 31.3828 94.7095 32.2005L94.8981 31.1425H97.2939V44.6428H94.8981ZM90.9934 42.3066C92.3667 42.3066 93.6341 41.7625 94.5209 40.7312V35.0808C93.6308 34.0495 92.3402 33.4788 90.9934 33.4788C88.6506 33.4788 86.7644 35.4613 86.7644 37.881C86.7644 40.3007 88.6506 42.3099 90.9934 42.3099V42.3066Z" fill="#1D1D1B"/>
<path d="M100.04 24.2705H102.813V44.6428H100.04V24.2705Z" fill="#1D1D1B"/>
<path d="M122.503 44.6428H111.03V43.3111L118.303 33.6123H111.275V31.1392H122.4V32.4708L115.1 42.1697H122.506V44.6428H122.503Z" fill="#1D1D1B"/>
<path d="M134.733 44.6428L134.544 43.6382C133.548 44.4259 132.122 44.8865 130.666 44.8865C126.814 44.8865 123.69 41.7358 123.69 37.8776C123.69 34.0195 126.814 30.8955 130.666 30.8955C132.122 30.8955 133.575 31.3828 134.544 32.2005L134.733 31.1425H137.129V44.6428H134.733ZM130.828 42.3066C132.201 42.3066 133.469 41.7625 134.356 40.7312V35.0808C133.466 34.0495 132.175 33.4788 130.828 33.4788C128.485 33.4788 126.599 35.4613 126.599 37.881C126.599 40.3007 128.485 42.3099 130.828 42.3099V42.3066Z" fill="#1D1D1B"/>
<path d="M150.488 44.6428L150.272 43.5848C149.276 44.3992 147.82 44.8898 146.341 44.8898C142.489 44.8898 139.366 41.7392 139.366 37.881C139.366 34.0228 142.489 30.8989 146.341 30.8989C147.688 30.8989 149.088 31.3327 150.084 32.0403V24.2705H152.883V44.6428H150.488ZM146.5 42.3066C147.9 42.3066 149.194 41.7358 150.084 40.6778V35.1642C149.194 34.0762 147.877 33.4788 146.5 33.4788C144.157 33.4788 142.271 35.4613 142.271 37.881C142.271 40.3007 144.157 42.3099 146.5 42.3099V42.3066Z" fill="#1D1D1B"/>
<path d="M170.822 41.9528L173.003 40.2974C173.946 41.8727 175.319 42.5535 176.719 42.5535C178.118 42.5535 179.114 41.9294 179.114 40.8681C179.114 39.8902 178.307 39.3729 177.228 39.2127L175.342 38.969C172.973 38.6419 171.302 37.3403 171.302 35.1108C171.302 32.6377 173.565 30.8989 176.58 30.8989C178.787 30.8989 180.7 31.7666 181.94 33.3152L179.922 35.0808C179.088 33.9127 177.903 33.2351 176.583 33.2351C175.263 33.2351 174.157 33.8593 174.157 34.8906C174.157 35.7583 174.829 36.2222 175.908 36.3591L177.847 36.6561C180.273 36.9832 181.993 38.3416 181.993 40.6778C181.993 43.2043 179.813 44.8898 176.689 44.8898C174.263 44.8898 172.218 44.0487 170.819 41.9561L170.822 41.9528Z" fill="#1D1D1B"/>
<path d="M12.0319 37.9978C12.0319 37.2168 12.3396 36.4525 12.8757 35.9085C13.3853 35.3912 13.6632 34.687 13.6632 33.926C13.6632 33.1651 13.3754 32.4809 12.8757 31.9702C12.3595 31.4429 11.6612 31.1392 10.9597 31.1392C10.2582 31.1392 9.5335 31.4429 9.01728 31.9702C8.48121 32.5176 7.73004 32.8313 6.95902 32.8313C6.18801 32.8313 5.4203 32.5242 4.8743 31.9702C4.35808 31.4429 3.65986 31.1392 2.95833 31.1392C2.25681 31.1392 1.53211 31.4429 1.0159 31.9702C0.516223 32.4809 0.228333 33.1918 0.228333 33.926C0.228333 34.6603 0.509605 35.3912 1.0159 35.9085C1.55197 36.4559 1.85971 37.2168 1.85971 37.9978C1.85971 38.7788 1.55859 39.5631 1.0159 40.1138C0.516223 40.6244 0.228333 41.3353 0.228333 42.0696C0.228333 42.8038 0.509605 43.5348 1.0159 44.0521C1.5619 44.6061 1.85971 45.347 1.85971 46.1414C1.85971 46.9357 1.54535 47.72 1.0159 48.2574C0.506296 48.7747 0.228333 49.4689 0.228333 50.2132C0.228333 50.9574 0.522842 51.6917 1.0159 52.1957C1.5255 52.713 2.21379 52.9967 2.95833 52.9967C3.70288 52.9967 4.37462 52.703 4.8743 52.1957C5.36735 51.6917 5.66186 50.9508 5.66186 50.2132C5.66186 49.4756 5.38059 48.7747 4.8743 48.2574C4.34484 47.72 4.03048 46.929 4.03048 46.1414C4.03048 45.3537 4.33161 44.6061 4.8743 44.0521C5.4203 43.4981 6.16153 43.191 6.95902 43.191C7.75651 43.191 8.48121 43.5047 9.01728 44.0521C9.52357 44.5694 10.2152 44.8531 10.9597 44.8531C11.7043 44.8531 12.376 44.5594 12.8757 44.0521C13.3853 43.5348 13.6632 42.8305 13.6632 42.0696C13.6632 41.3086 13.3754 40.6244 12.8757 40.1138C12.333 39.5598 12.0319 38.8088 12.0319 37.9978ZM9.01728 40.1138C8.48121 40.6611 7.73004 40.9749 6.95902 40.9749C6.18801 40.9749 5.4203 40.6678 4.8743 40.1138C4.33161 39.5598 4.03048 38.8088 4.03048 37.9978C4.03048 37.1868 4.33822 36.4525 4.8743 35.9085C5.4203 35.3545 6.16153 35.0474 6.95902 35.0474C7.75651 35.0474 8.4779 35.3611 9.01728 35.9085C9.55335 36.4559 9.8611 37.2168 9.8611 37.9978C9.8611 38.7788 9.55997 39.5631 9.01728 40.1138Z" fill="#1D1D1B"/>
<path d="M23.3059 44.8865C21.9691 44.8865 20.5859 44.6361 19.1696 44.0054C17.8923 43.4346 16.3502 42.2598 15.8473 40.6645C15.5461 39.7066 15.6653 38.7354 16.198 37.861C16.3403 37.6273 16.4991 37.4137 16.6778 37.2135C16.4594 36.6494 16.3999 36.052 16.5058 35.4346C16.7473 34.0462 17.8426 32.7579 19.4343 31.9936C22.3033 30.6118 26.6217 30.5284 29.2656 31.8067L28.2497 33.8593C26.2444 32.888 22.6706 32.9748 20.4469 34.0462C19.5965 34.4567 18.9876 35.0741 18.8122 35.6882C19.9108 35.1742 21.0194 34.9273 21.6547 34.8205C26.0624 34.0595 27.6607 35.8985 27.9089 37.1033C28.0743 37.9043 27.7567 38.7554 27.0551 39.3829C25.0862 41.1518 21.3238 40.8647 18.9677 39.5865C18.6732 39.4263 18.4019 39.2527 18.157 39.0691C17.9816 39.3729 17.9485 39.6565 18.0511 39.9836C18.2695 40.6778 19.1199 41.4755 20.116 41.9227C23.0677 43.2411 25.9201 42.4167 28.5641 41.3287L29.4509 43.438C27.5978 44.2023 25.5164 44.8865 23.3026 44.8865H23.3059ZM20.1325 37.6106C21.9062 38.5485 24.5005 38.5952 25.5032 37.6941C25.5826 37.624 25.619 37.5606 25.6355 37.5272C25.4635 37.08 23.7461 36.7829 22.0518 37.0733C21.3503 37.1935 20.6984 37.3804 20.1325 37.6106Z" fill="#1D1D1B"/>
<path d="M162.228 44.6395C161.331 44.6395 160.438 44.6361 159.541 44.6395C159.376 44.6395 159.257 44.5994 159.141 44.486C157.867 43.2577 156.589 42.0329 155.319 40.8047C155.249 40.7379 155.196 40.6178 155.196 40.521C155.19 38.7688 155.19 37.0166 155.196 35.2644C155.196 35.1642 155.256 35.0374 155.329 34.9673C156.609 33.7291 157.893 32.4942 159.184 31.266C159.253 31.1992 159.379 31.1492 159.478 31.1492C161.308 31.1425 163.135 31.1425 164.965 31.1492C165.071 31.1492 165.2 31.2026 165.276 31.276C166.566 32.5009 167.847 33.7324 169.134 34.9573C169.247 35.0641 169.29 35.1742 169.29 35.3278C169.286 37.0433 169.286 38.7588 169.29 40.4742C169.29 40.6211 169.243 40.7246 169.134 40.8247C167.857 42.0429 166.58 43.2611 165.309 44.486C165.19 44.5994 165.074 44.6462 164.909 44.6428C164.012 44.6361 163.118 44.6428 162.222 44.6428L162.228 44.6395ZM156.616 40.1071C156.785 40.1772 156.92 40.2339 157.059 40.2907C158.419 40.8347 159.779 41.3754 161.139 41.9194C162.208 42.3466 163.277 42.7705 164.346 43.1977C164.485 43.2544 164.568 43.2544 164.634 43.0909C165.005 42.2198 165.388 41.3554 165.766 40.4909C166.434 38.9523 167.099 37.4137 167.774 35.8751C167.844 35.7216 167.814 35.6482 167.655 35.5848C167.126 35.3812 166.603 35.1709 166.077 34.9606C164.918 34.5001 163.764 34.0428 162.605 33.5822C161.765 33.2485 160.924 32.9114 160.084 32.5743C159.952 32.5209 159.875 32.5476 159.822 32.6778C159.7 32.9782 159.564 33.2719 159.439 33.5689C158.717 35.2377 157.996 36.9064 157.274 38.5752C157.056 39.0792 156.841 39.5831 156.616 40.1071Z" fill="#1D1D1B"/>
<path d="M108.108 36.6795C107.8 36.3424 107.645 35.8918 107.645 35.4379C107.645 34.984 107.8 34.5468 108.108 34.213C108.416 33.8759 108.571 33.4254 108.571 32.9715C108.571 32.5176 108.416 32.0804 108.108 31.7466C107.8 31.4095 107.383 31.2259 106.983 31.2259C106.582 31.2259 106.152 31.4095 105.845 31.7466C105.537 32.0837 105.381 32.5343 105.381 32.9715C105.381 33.4087 105.537 33.8793 105.845 34.213C106.152 34.5501 106.308 35.004 106.308 35.4379C106.308 35.8718 106.152 36.3457 105.845 36.6795C105.537 37.0166 105.381 37.4705 105.381 37.9043C105.381 37.9144 105.381 37.9244 105.381 37.9344C105.381 37.9444 105.381 37.9544 105.381 37.9644C105.381 38.4183 105.537 38.8722 105.845 39.206C106.152 39.5431 106.308 39.997 106.308 40.4309C106.308 40.8647 106.152 41.3387 105.845 41.6724C105.537 42.0095 105.381 42.4634 105.381 42.8973C105.381 43.3312 105.537 43.8051 105.845 44.1389C106.152 44.4759 106.569 44.6428 106.983 44.6428C107.397 44.6428 107.8 44.4759 108.108 44.1389C108.416 43.8018 108.571 43.3512 108.571 42.8973C108.571 42.4434 108.416 42.0062 108.108 41.6724C107.8 41.3353 107.645 40.8848 107.645 40.4309C107.645 39.977 107.8 39.5397 108.108 39.206C108.416 38.8689 108.571 38.4183 108.571 37.9644C108.571 37.9544 108.571 37.9444 108.571 37.9344C108.571 37.9244 108.571 37.9144 108.571 37.9043C108.571 37.4671 108.416 37.0132 108.108 36.6795Z" fill="#1D1D1B"/>
<path d="M106.983 28.0186C107.39 28.0186 107.81 27.8617 108.121 27.548C108.432 27.2343 108.591 26.8104 108.591 26.3899C108.591 25.9693 108.436 25.5421 108.121 25.2284C107.81 24.9147 107.387 24.7578 106.983 24.7578C106.579 24.7578 106.139 24.9147 105.828 25.2284C105.517 25.5421 105.358 25.9793 105.358 26.3899C105.358 26.8004 105.514 27.2376 105.828 27.548C106.139 27.8617 106.563 28.0186 106.983 28.0186Z" fill="#1D1D1B"/>
<path d="M82.3632 44.6428L78.4089 31.1425H78.0052H75.7517H75.3447L72.5055 37.0499V31.1425H69.8483V44.6428H72.5055L76.8768 34.3599L79.706 44.6428H82.3632Z" fill="#1D1D1B"/>
</g>
<defs>
<clipPath id="clip0_709_5566">
<rect width="182" height="53" fill="white"/>
</clipPath>
</defs>
</svg>
