<svg width="18" height="12" viewBox="0 0 18 12" fill="none" xmlns="http://www.w3.org/2000/svg">
<path d="M0.5 1C0.5 0.723858 0.723858 0.5 1 0.5H17C17.2761 0.5 17.5 0.723858 17.5 1C17.5 1.27614 17.2761 1.5 17 1.5H1C0.723858 1.5 0.5 1.27614 0.5 1Z" fill="black"/>
<path d="M0.5 6C0.5 5.72386 0.723858 5.5 1 5.5H8C8.27614 5.5 8.5 5.72386 8.5 6C8.5 6.27614 8.27614 6.5 8 6.5H1C0.723858 6.5 0.5 6.27614 0.5 6Z" fill="black"/>
<path d="M0.5 11C0.5 10.7239 0.723858 10.5 1 10.5H12C12.2761 10.5 12.5 10.7239 12.5 11C12.5 11.2761 12.2761 11.5 12 11.5H1C0.723858 11.5 0.5 11.2761 0.5 11Z" fill="black"/>
</svg>
