<?xml version="1.0" encoding="UTF-8"?><svg id="Capa_1" xmlns="http://www.w3.org/2000/svg" viewBox="0 0 16 16"><path d="m8,13.74c-3.09,0-5.61-2.52-5.61-5.61,0-1.85.92-3.59,2.45-4.64.23-.15.54-.1.7.13.16.23.1.54-.13.69-1.26.86-2.01,2.28-2.01,3.81,0,2.54,2.07,4.61,4.61,4.61s4.61-2.07,4.61-4.61c0-1.53-.76-2.96-2.03-3.82-.23-.15-.29-.47-.13-.69.16-.23.47-.29.69-.13,1.55,1.05,2.47,2.78,2.47,4.65,0,3.09-2.52,5.61-5.61,5.61Z"/><path d="m8,8.63c-.28,0-.5-.22-.5-.5V2.76c0-.28.22-.5.5-.5s.5.22.5.5v5.37c0,.28-.22.5-.5.5Z"/></svg>