<svg width="183" height="20" viewBox="0 0 183 20" fill="none" xmlns="http://www.w3.org/2000/svg">
<path d="M6.49062 19.9833C9.08193 19.9833 11.4347 18.8928 12.8496 17.4693L11.0028 15.6004C9.99094 16.7117 8.3868 17.4443 6.78265 17.4443C4.27361 17.4443 2.96561 15.6587 2.7764 13.4485H13.1951C13.2198 13.1654 13.2198 12.8907 13.2198 12.6368C13.2198 7.60456 9.83053 5.62329 6.73329 5.62329C2.75173 5.62329 0 8.86575 0 12.9157C0 16.9656 2.34863 19.9833 6.49062 19.9833ZM6.59756 8.02496C8.30865 8.02496 10.1514 9.0364 10.176 11.18H2.94093C3.39338 9.4235 4.62323 8.02496 6.59756 8.02496Z" fill="black"/>
<path d="M15.0132 19.5629H17.7649V10.3184C18.5628 9.25701 19.6857 8.16648 21.2899 8.16648C22.894 8.16648 23.9347 9.2029 23.9347 10.4266V19.5629H26.7111V10.4266C26.7111 7.6337 24.5187 5.62329 21.7464 5.62329C19.6076 5.62329 18.4312 6.83037 17.4728 8.05409C17.4194 7.27574 17.3659 6.76793 17.2055 6.06866H14.6923C14.935 7.35482 15.0132 8.58687 15.0132 9.78562V19.5629Z" fill="black"/>
<path d="M35.0238 19.5629L40.6589 6.07275H37.829L34.0367 15.5712H33.8762L30.2443 6.07275H27.1142L32.7287 19.5629H35.0238Z" fill="black"/>
<path d="M45.0436 6.07275H42.2918V19.567H45.0436V6.07275Z" fill="black"/>
<path d="M64.2933 19.563H67.0409V8.33301H70.4343V6.0687H67.0409V3.90429C67.0409 3.03436 67.6332 2.54321 68.5669 2.54321C69.1016 2.54321 70.0312 2.79295 70.3561 3.03436L70.8621 0.632698C70.3561 0.328848 69.044 -0.00830078 68.0322 -0.00830078C66.3211 -0.00830078 64.2933 0.965685 64.2933 3.90013V6.06454H61.9159V8.32885H64.2933V19.5588V19.563Z" fill="black"/>
<path d="M74.893 0.432861H72.1413V19.5629H74.893V0.432861Z" fill="black"/>
<path d="M83.6623 19.9833C87.7755 19.9833 90.556 16.8241 90.556 12.7742C90.556 8.72423 87.7755 5.62329 83.6623 5.62329C79.5491 5.62329 76.8221 8.80747 76.8221 12.7742C76.8221 16.7409 79.5738 19.9833 83.6623 19.9833ZM83.6623 8.02496C86.2248 8.02496 87.722 10.2685 87.722 12.7742C87.722 15.2799 86.2248 17.5775 83.6623 17.5775C81.0998 17.5775 79.6849 15.3715 79.6849 12.7742C79.6849 10.1769 81.1533 8.02496 83.6623 8.02496Z" fill="black"/>
<path d="M92.3987 19.5629H95.1463V10.7388C95.8703 9.64409 96.7258 8.4495 97.9557 8.4495C98.3505 8.4495 99.2102 8.61183 99.5845 8.86573L100.411 6.18519C100.062 5.82307 99.3418 5.62744 98.5973 5.62744C96.7299 5.62744 95.714 6.96771 94.8584 8.33712C94.8008 7.44638 94.7515 6.85533 94.5911 6.07281H92.0491C92.2918 7.35897 92.3987 8.56188 92.3987 9.75647V19.5629Z" fill="black"/>
<path d="M107.079 19.9833C109.666 19.9833 112.015 18.8928 113.434 17.4693L111.595 15.6004C110.579 16.7117 108.975 17.4443 107.371 17.4443C104.862 17.4443 103.55 15.6587 103.365 13.4485H113.779C113.808 13.1654 113.808 12.8907 113.808 12.6368C113.808 7.60456 110.415 5.62329 107.317 5.62329C103.336 5.62329 100.588 8.86575 100.588 12.9157C100.588 16.9656 102.941 19.9833 107.083 19.9833H107.079ZM107.186 8.02496C108.897 8.02496 110.739 9.0364 110.764 11.18H103.525C103.977 9.4235 105.207 8.02496 107.186 8.02496Z" fill="black"/>
<path d="M121.426 17.6108C119.073 17.6108 117.284 16.5286 116.082 15.7835L115.042 17.9521C116.325 18.8345 118.435 20.0041 121.45 20.0041C124.848 20.0041 127.488 18.5307 127.488 15.334C127.488 11.4589 123.618 11.2341 121.347 11.1259C120.196 11.0718 118.197 10.9302 118.197 9.56916C118.197 8.49111 119.427 8.01661 120.813 8.01661C122.684 8.01661 124.741 8.88237 125.596 9.38185L126.637 7.19247C125.625 6.57644 123.194 5.63159 120.763 5.63159C118.332 5.63159 115.449 6.63471 115.449 9.90631C115.449 13.4276 118.653 13.6774 121.351 13.8439C122.766 13.9313 124.741 14.0978 124.741 15.617C124.741 16.924 123.326 17.6149 121.434 17.6149L121.426 17.6108Z" fill="black"/>
<path d="M141.218 19.9833C144.583 19.9833 146.639 18.0853 147.174 17.411L145.331 15.6004C144.369 16.6035 143.086 17.4443 141.481 17.4443C139.264 17.4443 137.451 15.6253 137.451 12.7783C137.451 9.93128 139.182 8.17061 141.321 8.17061C142.604 8.17061 143.995 8.70339 145.011 9.76062L146.849 7.83763C145.298 6.33086 143.299 5.63159 141.321 5.63159C137.529 5.63159 134.431 8.48279 134.431 12.7825C134.431 17.0822 137.557 19.9916 141.214 19.9916L141.218 19.9833Z" fill="black"/>
<path d="M154.709 19.9833C158.827 19.9833 161.603 16.8241 161.603 12.7742C161.603 8.72423 158.827 5.62329 154.709 5.62329C150.592 5.62329 147.873 8.80747 147.873 12.7742C147.873 16.7409 150.625 19.9833 154.709 19.9833ZM154.709 8.02496C157.272 8.02496 158.769 10.2685 158.769 12.7742C158.769 15.2799 157.272 17.5775 154.709 17.5775C152.147 17.5775 150.732 15.3715 150.732 12.7742C150.732 10.1769 152.2 8.02496 154.709 8.02496Z" fill="black"/>
<path d="M163.421 19.5629H166.169V10.3184C166.922 9.25701 167.987 8.16648 169.426 8.16648C170.866 8.16648 171.804 9.2029 171.804 10.4266V19.5629H174.584V10.3184C175.329 9.25701 176.398 8.16648 177.838 8.16648C179.278 8.16648 180.219 9.2029 180.219 10.4266V19.5629H182.996V10.4266C182.996 7.6337 180.91 5.62329 178.299 5.62329C176.32 5.62329 175.037 6.88448 174.128 8.33297C173.383 6.68885 171.779 5.62329 169.879 5.62329C167.88 5.62329 166.782 6.83037 165.873 8.05409C165.819 7.27574 165.766 6.76793 165.601 6.06866H163.092C163.335 7.35482 163.413 8.55773 163.413 9.75232V19.5588L163.421 19.5629Z" fill="black"/>
<path d="M53.3152 19.9999C55.4006 19.9999 57.0006 18.5972 57.56 17.7065C57.56 18.2934 57.6094 18.9718 57.7451 19.5629H60.2829C60.0403 18.2767 60.0444 17.0363 60.0444 15.8626V6.07276H57.2926V7.45466C56.1451 6.2892 54.7548 5.64404 53.3111 5.64404C49.8642 5.64404 46.9809 8.49108 46.9809 12.7908C46.9809 17.0905 49.8354 19.9999 53.3111 19.9999H53.3152ZM53.5825 8.18306C54.9152 8.18306 56.2273 8.90731 57.2926 10.0561V15.5837C56.8649 16.1414 55.561 17.4817 53.5825 17.4817C51.6041 17.4817 50.0287 15.6378 50.0287 12.7866C50.0287 9.93541 51.6041 8.1789 53.5825 8.1789V8.18306Z" fill="black"/>
<path d="M43.6574 0.761719C44.7186 0.761719 45.5454 1.5817 45.5454 2.57233C45.5454 3.56297 44.7186 4.34965 43.6574 4.34965C42.5962 4.34965 41.7859 3.55881 41.7859 2.57233C41.7859 1.58586 42.5921 0.761719 43.6574 0.761719Z" fill="black"/>
</svg>
