<svg width="27" height="17" viewBox="0 0 27 17" fill="none" xmlns="http://www.w3.org/2000/svg">
<path d="M25.56 0H1.44C0.64471 0 0 0.646383 0 1.44374V15.5563C0 16.3536 0.64471 17 1.44 17H25.56C26.3553 17 27 16.3536 27 15.5563V1.44374C27 0.646383 26.3553 0 25.56 0Z" fill="#F4F4F4"/>
<path fill-rule="evenodd" clip-rule="evenodd" d="M22.2688 15.2366C22.2251 15.2377 22.1892 15.2522 22.1609 15.2802C22.1326 15.3082 22.118 15.3432 22.117 15.3853C22.118 15.427 22.1326 15.4619 22.1609 15.4901C22.1892 15.5182 22.2251 15.5328 22.2688 15.5339C22.3115 15.5328 22.347 15.5182 22.3754 15.4901C22.4037 15.4619 22.4185 15.427 22.4195 15.3853C22.4185 15.3432 22.4038 15.3082 22.3755 15.2802C22.3472 15.2522 22.3116 15.2377 22.2688 15.2366ZM22.2688 15.5011C22.2355 15.5003 22.2081 15.489 22.1865 15.4672C22.1649 15.4455 22.1537 15.4181 22.153 15.3853C22.1537 15.3522 22.1649 15.3249 22.1865 15.3033C22.2081 15.2817 22.2355 15.2705 22.2688 15.2698C22.3014 15.2705 22.3284 15.2817 22.3499 15.3033C22.3713 15.3249 22.3824 15.3522 22.3832 15.3853C22.3824 15.4181 22.3713 15.4455 22.3499 15.4672C22.3284 15.489 22.3014 15.5003 22.2688 15.5011ZM22.2775 15.3157H22.214V15.4538H22.2434V15.402H22.2568L22.2986 15.4538H22.3338L22.2888 15.4017C22.3029 15.3999 22.3137 15.3953 22.3213 15.388C22.3288 15.3806 22.3327 15.3712 22.3327 15.3598C22.3326 15.3461 22.3278 15.3354 22.3183 15.3276C22.3088 15.3198 22.2952 15.3158 22.2775 15.3157ZM22.2772 15.3415C22.2851 15.3415 22.2913 15.3431 22.2957 15.3461C22.3002 15.3492 22.3025 15.3537 22.3026 15.3598C22.3025 15.366 22.3002 15.3706 22.2957 15.3737C22.2913 15.3768 22.2851 15.3783 22.2772 15.3783H22.2434V15.3415H22.2772Z" fill="#1D1D1B"/>
<path fill-rule="evenodd" clip-rule="evenodd" d="M5.76742 15.4391H5.45223V13.9635H5.76124V14.1433C5.76124 14.1433 6.03264 13.9235 6.19384 13.9263C6.50727 13.9316 6.69443 14.1991 6.69443 14.1991C6.69443 14.1991 6.84625 13.9263 7.18884 13.9263C7.69545 13.9263 7.76977 14.3913 7.76977 14.3913V15.4329H7.46694V14.5153C7.46694 14.5153 7.46803 14.2363 7.1394 14.2363C6.79956 14.2363 6.76859 14.5153 6.76859 14.5153V15.4329H6.45341V14.5091C6.45341 14.5091 6.42313 14.2177 6.13822 14.2177C5.7682 14.2177 5.76124 14.5153 5.76124 14.5153L5.76742 15.4391Z" fill="#1D1D1B"/>
<path fill-rule="evenodd" clip-rule="evenodd" d="M15.3525 13.9261C15.1913 13.9233 14.92 14.1431 14.92 14.1431V13.9637H14.6106V15.4389H14.926L14.92 14.5152C14.92 14.5152 14.9269 14.2182 15.297 14.2182C15.3657 14.2182 15.4191 14.2349 15.4613 14.2607V14.2595L15.564 13.9722C15.502 13.946 15.4315 13.9274 15.3525 13.9261Z" fill="#1D1D1B"/>
<path fill-rule="evenodd" clip-rule="evenodd" d="M19.7925 13.9261C19.6313 13.9233 19.3599 14.1431 19.3599 14.1431V13.9637H19.0505V15.4389H19.3659L19.3599 14.5152C19.3599 14.5152 19.3668 14.2182 19.7369 14.2182C19.8056 14.2182 19.859 14.2349 19.9012 14.2607V14.2595L20.0039 13.9722C19.9419 13.946 19.8715 13.9274 19.7925 13.9261Z" fill="#1D1D1B"/>
<path fill-rule="evenodd" clip-rule="evenodd" d="M8.7889 13.92C8.31721 13.92 8.06758 14.3454 8.06632 14.7007C8.06503 15.0649 8.3505 15.485 8.80219 15.485C9.06571 15.485 9.28219 15.2898 9.28219 15.2898L9.28162 15.4402H9.59186V13.9631H9.28053V14.1491C9.28053 14.1491 9.07723 13.92 8.7889 13.92ZM8.84932 14.2207C9.10275 14.2207 9.30848 14.4418 9.30848 14.714C9.30848 14.9863 9.10275 15.2062 8.84932 15.2062C8.59589 15.2062 8.39136 14.9863 8.39136 14.714C8.39136 14.4418 8.59589 14.2207 8.84932 14.2207Z" fill="#1D1D1B"/>
<path fill-rule="evenodd" clip-rule="evenodd" d="M17.8366 13.92C17.3649 13.92 17.1152 14.3454 17.114 14.7007C17.1127 15.0649 17.3982 15.485 17.8499 15.485C18.1134 15.485 18.3299 15.2898 18.3299 15.2898L18.3293 15.4402H18.6395V13.9631H18.3282V14.1491C18.3282 14.1491 18.1249 13.92 17.8366 13.92ZM17.897 14.2207C18.1504 14.2207 18.3561 14.4418 18.3561 14.714C18.3561 14.9863 18.1504 15.2062 17.897 15.2062C17.6436 15.2062 17.439 14.9863 17.439 14.714C17.439 14.4418 17.6436 14.2207 17.897 14.2207Z" fill="#1D1D1B"/>
<path fill-rule="evenodd" clip-rule="evenodd" d="M20.8154 13.92C20.3437 13.92 20.0941 14.3454 20.0928 14.7007C20.0915 15.0649 20.377 15.485 20.8287 15.485C21.0922 15.485 21.3087 15.2898 21.3087 15.2898L21.3081 15.4402H21.6183V13.38H21.307V14.1491C21.307 14.1491 21.1037 13.92 20.8154 13.92ZM20.8758 14.2207C21.1292 14.2207 21.335 14.4418 21.335 14.714C21.335 14.9863 21.1292 15.2062 20.8758 15.2062C20.6224 15.2062 20.4178 14.9863 20.4178 14.714C20.4178 14.4418 20.6224 14.2207 20.8758 14.2207Z" fill="#1D1D1B"/>
<path fill-rule="evenodd" clip-rule="evenodd" d="M10.5385 15.4887C10.2171 15.4887 9.92044 15.2903 9.92044 15.2903L10.0564 15.0795C10.0564 15.0795 10.3371 15.2097 10.5385 15.2097C10.6693 15.2097 10.8881 15.1673 10.8907 15.0361C10.8935 14.8974 10.523 14.8563 10.523 14.8563C10.523 14.8563 9.96988 14.8487 9.96988 14.3913C9.96988 14.1036 10.2461 13.9201 10.6003 13.9201C10.8049 13.9201 11.1874 14.0999 11.1874 14.0999L11.0329 14.3417C11.0329 14.3417 10.7375 14.2233 10.5817 14.2177C10.4501 14.2129 10.2912 14.2761 10.2912 14.3913C10.2912 14.7042 11.2121 14.3669 11.2121 14.9989C11.2121 15.4135 10.8371 15.4887 10.5385 15.4887Z" fill="#1D1D1B"/>
<path fill-rule="evenodd" clip-rule="evenodd" d="M11.7239 13.5358V13.9649H11.4496V14.2752H11.7239V15.0171C11.7239 15.0171 11.6997 15.5189 12.2375 15.5189C12.3862 15.5189 12.6773 15.4086 12.6773 15.4086L12.5528 15.0862C12.5528 15.0862 12.4371 15.1853 12.3063 15.182C12.0578 15.1757 12.0647 15.0159 12.0647 15.0159V14.2752H12.577V13.9649H12.0647V13.5358H11.7239Z" fill="#1D1D1B"/>
<path fill-rule="evenodd" clip-rule="evenodd" d="M13.5908 13.9382C13.085 13.9382 12.8323 14.3562 12.8344 14.7189C12.8365 15.0919 13.0645 15.5117 13.621 15.5117C13.8592 15.5117 14.1938 15.302 14.1938 15.302L14.05 15.051C14.05 15.051 13.8217 15.2135 13.621 15.2135C13.2193 15.2135 13.1933 14.8195 13.1933 14.8195H14.2687C14.2687 14.8195 14.3489 13.9382 13.5908 13.9382ZM13.5449 14.2279C13.5568 14.2273 13.5696 14.2279 13.5823 14.2279C13.9608 14.2279 13.9581 14.5868 13.9581 14.5868H13.1933C13.1933 14.5868 13.1752 14.249 13.5449 14.2279Z" fill="#1D1D1B"/>
<path fill-rule="evenodd" clip-rule="evenodd" d="M16.7896 15.0472L16.9338 15.3366C16.9338 15.3366 16.7053 15.4856 16.4488 15.4856C15.9177 15.4856 15.6229 15.0847 15.6229 14.7053C15.6229 14.109 16.0921 13.9337 16.4095 13.9337C16.6975 13.9337 16.947 14.1003 16.947 14.1003L16.7853 14.3896C16.7853 14.3896 16.6872 14.2362 16.4007 14.2362C16.1147 14.2362 15.9637 14.4836 15.9637 14.7184C15.9637 14.9816 16.1394 15.2051 16.4051 15.2051C16.6135 15.2051 16.7896 15.0472 16.7896 15.0472Z" fill="#1D1D1B"/>
<path fill-rule="evenodd" clip-rule="evenodd" d="M22.4823 10.0568V9.85753H22.4304L22.3708 9.99456L22.3111 9.85753H22.2593V10.0568H22.2959V9.90649L22.3518 10.036H22.3898L22.4457 9.90615V10.0568H22.4823ZM22.1539 10.0568V9.89153H22.2203V9.85787H22.0512V9.89153H22.1176V10.0568H22.1539Z" fill="#F79F1A"/>
<path fill-rule="evenodd" clip-rule="evenodd" d="M22.4927 7.09455C22.4927 10.1778 20.0059 12.6773 16.9383 12.6773C13.8707 12.6773 11.384 10.1778 11.384 7.09455C11.384 4.01125 13.8707 1.51175 16.9383 1.51175C20.0059 1.51175 22.4927 4.01125 22.4927 7.09455Z" fill="#F79F1A"/>
<path fill-rule="evenodd" clip-rule="evenodd" d="M15.6405 7.09455C15.6405 10.1778 13.1538 12.6773 10.0862 12.6773C7.01859 12.6773 4.53182 10.1778 4.53182 7.09455C4.53182 4.01125 7.01859 1.51175 10.0862 1.51175C13.1538 1.51175 15.6405 4.01125 15.6405 7.09455Z" fill="#EA001B"/>
<path fill-rule="evenodd" clip-rule="evenodd" d="M13.5123 2.69973C12.2163 3.72176 11.3844 5.30993 11.3844 7.09402C11.3844 8.87812 12.2163 10.4675 13.5123 11.4895C14.8082 10.4675 15.6401 8.87812 15.6401 7.09402C15.6401 5.30993 14.8082 3.72176 13.5123 2.69973Z" fill="#FF5F01"/>
</svg>
