<svg width="38" height="19" viewBox="0 0 38 19" fill="none" xmlns="http://www.w3.org/2000/svg">
<path d="M0.000244141 2.31615C0.000244141 1.0633 1.02006 0.0467211 2.27933 0.0467211H35.7158C36.974 0.0467211 37.9949 1.0633 37.9949 2.31615V16.6716C37.9949 17.9244 36.974 18.94 35.7158 18.94H2.27933C1.02006 18.94 0.000244141 17.9244 0.000244141 16.6716V2.31615Z" fill="white"/>
<path d="M0.0265027 2.08713C0.0265027 0.934803 0.965445 9.15527e-05 2.12284 9.15527e-05H35.9048C37.0622 9.15527e-05 38.0001 0.934803 38.0001 2.08713V2.15346H0.0265027V2.08713Z" fill="#FBB110"/>
<path d="M38.0001 16.8612V16.913C38.0001 18.0654 37.0622 19.0001 35.9048 19.0001H2.12284C0.965445 19.0001 0.0265027 18.0654 0.0265027 16.913V16.8612H38.0001Z" fill="#FBB110"/>
<path d="M26.3074 9.4778C26.3074 12.3949 28.6821 14.7597 31.6124 14.7597C34.5416 14.7597 36.9173 12.3949 36.9173 9.4778C36.9173 6.55967 34.5416 4.1949 31.6124 4.1949C28.6821 4.1949 26.3074 6.55967 26.3074 9.4778ZM1.01481 9.4778C1.01481 12.3949 3.39052 14.7597 6.32078 14.7597C9.24998 14.7597 11.6257 12.3949 11.6257 9.4778C11.6257 6.55967 9.24998 4.1949 6.32078 4.1949C3.39052 4.1949 1.01481 6.55967 1.01481 9.4778ZM38.0001 15.8612H11.8431C12.3147 15.5317 12.7537 15.0809 13.2326 14.4726L15.8971 11.0871L17.0608 12.5514L18.3558 10.8364L17.2236 9.40112L19.9354 5.95449C20.7967 4.86123 19.1498 3.57625 18.2886 4.66952L15.8919 7.71615L13.4553 4.6291C12.593 3.53895 10.9493 4.82703 11.8116 5.91822L14.5654 9.40215L11.5858 13.1876C10.5271 14.5327 9.47054 15.7659 7.37315 15.8612H0.0265027V3.15346H26.0459C25.5985 3.47884 25.1763 3.91511 24.7184 4.4975L22.0549 7.88195L20.8901 6.41874L19.5962 8.13376L20.7284 9.56796L18.0155 13.0146C17.1554 14.1078 18.8022 15.3928 19.6624 14.2996L22.0601 11.254L24.4968 14.34C25.359 15.4312 27.0027 14.1431 26.1404 13.0519L23.3866 9.56692L26.3663 5.78247C27.3388 4.54516 28.3103 3.4032 30.0895 3.15346H38.0001V15.8612ZM28.4363 9.4778C28.4363 7.73065 29.8584 6.31511 31.6124 6.31511C33.3663 6.31511 34.7873 7.73065 34.7873 9.4778C34.7873 11.2239 33.3663 12.6395 31.6124 12.6395C29.8584 12.6395 28.4363 11.2239 28.4363 9.4778ZM3.14476 9.4778C3.14476 7.73065 4.56683 6.31511 6.32078 6.31511C8.07368 6.31511 9.49575 7.73065 9.49575 9.4778C9.49575 11.2239 8.07368 12.6395 6.32078 12.6395C4.56683 12.6395 3.14476 11.2239 3.14476 9.4778Z" fill="#E70020"/>
</svg>
