<svg width="33" height="17" viewBox="0 0 33 17" fill="none" xmlns="http://www.w3.org/2000/svg">
<g clip-path="url(#clip0_712_8981)">
<path d="M32.9999 2.07232C32.9999 0.95135 32.1142 0.0417786 31.0207 0.0417786H1.98376C0.891095 0.0417786 0.00455363 0.95135 0.00455363 2.07232V14.9166C0.00455363 16.0376 0.891095 16.9463 1.98376 16.9463H31.0207C32.1142 16.9463 32.9999 16.0376 32.9999 14.9166V2.07232Z" fill="white"/>
<path d="M32.9772 1.86742C32.9772 0.836382 32.1618 6.10352e-05 31.1567 6.10352e-05H1.81969C0.814582 6.10352e-05 9.64612e-05 0.836382 9.64612e-05 1.86742V1.92676H32.9772V1.86742Z" fill="#FBB110"/>
<path d="M9.64612e-05 15.0863V15.1327C9.64612e-05 16.1637 0.814582 17 1.81969 17H31.1567C32.1618 17 32.9772 16.1637 32.9772 15.1327V15.0863H9.64612e-05Z" fill="#FBB110"/>
<path d="M10.1543 8.48013C10.1543 11.0902 8.09205 13.206 5.54735 13.206C3.00357 13.206 0.940446 11.0902 0.940446 8.48013C0.940446 5.86917 3.00357 3.75333 5.54735 3.75333C8.09205 3.75333 10.1543 5.86917 10.1543 8.48013ZM32.1189 8.48013C32.1189 11.0902 30.0558 13.206 27.5111 13.206C24.9673 13.206 22.9042 11.0902 22.9042 8.48013C22.9042 5.86917 24.9673 3.75333 27.5111 3.75333C30.0558 3.75333 32.1189 5.86917 32.1189 8.48013ZM9.64612e-05 14.1916H22.7154C22.3059 13.8968 21.9246 13.4934 21.5087 12.9492L19.1948 9.92005L18.1842 11.2302L17.0596 9.69567L18.0428 8.41152L15.6878 5.32769C14.9399 4.34951 16.3701 3.19979 17.118 4.17798L19.1993 6.90391L21.3153 4.14182C22.0642 3.16642 23.4916 4.31891 22.7428 5.29524L20.3513 8.41244L22.9388 11.7995C23.8582 13.0029 24.7758 14.1063 26.5972 14.1916H32.9772V2.8215H10.3814C10.7699 3.11264 11.1366 3.50298 11.5342 4.02406L13.8473 7.05226L14.8588 5.74307L15.9824 7.27757L14.9992 8.56079L17.3551 11.6446C18.1021 12.6228 16.672 13.7725 15.925 12.7943L13.8427 10.0693L11.7267 12.8305C10.9779 13.8068 9.55046 12.6543 10.2993 11.678L12.6907 8.55987L10.1032 5.17378C9.2586 4.06672 8.41492 3.04495 6.86986 2.8215H9.64612e-05V14.1916ZM8.30547 8.48013C8.30547 6.91689 7.07052 5.65035 5.54735 5.65035C4.02418 5.65035 2.79014 6.91689 2.79014 8.48013C2.79014 10.0424 4.02418 11.309 5.54735 11.309C7.07052 11.309 8.30547 10.0424 8.30547 8.48013ZM30.2692 8.48013C30.2692 6.91689 29.0343 5.65035 27.5111 5.65035C25.9888 5.65035 24.7539 6.91689 24.7539 8.48013C24.7539 10.0424 25.9888 11.309 27.5111 11.309C29.0343 11.309 30.2692 10.0424 30.2692 8.48013Z" fill="#E70020"/>
</g>
<defs>
<clipPath id="clip0_712_8981">
<rect width="33" height="17" fill="white" transform="matrix(-1 0 0 1 33 0)"/>
</clipPath>
</defs>
</svg>
