<?xml version="1.0" encoding="UTF-8"?>
<svg id="Capa_2" data-name="Capa 2" xmlns="http://www.w3.org/2000/svg" viewBox="0 0 10.81 10.23">
  <g id="Capa_1-2" data-name="Capa 1">
    <g>
      <path d="m10.49,3.44c-1.04-1.04-2.09-2.09-3.13-3.13-.2-.21-.42-.31-.65-.31h0c-.23,0-.45.11-.65.31l-.89.89c-.9.89-1.79,1.79-2.68,2.68-.05.05-.09.07-.15.07h0c-.42,0-.85,0-1.27,0h-.16C.35,3.96,0,4.31,0,4.85c0,1.5,0,2.99,0,4.49,0,.1.01.2.04.29.11.38.43.6.86.6,1.34,0,2.67,0,4.01,0s2.66,0,3.99,0c.12,0,.21,0,.3-.03.38-.09.63-.43.63-.85,0-1.28,0-2.56,0-3.84,0-.06.02-.1.06-.15.16-.15.32-.31.47-.47l.13-.14c.42-.42.42-.89,0-1.31Zm-2.58-1.85s-.03.03-.04.04l-.25.25c-.67.67-1.34,1.33-2,2-.05.05-.09.07-.16.07h0c-.16,0-.32,0-.48,0-.1,0-.2,0-.3,0h-.26s2.93-2.93,2.93-2.93l.56.57Zm-1.49-.94c.09-.09.19-.14.28-.14h0c.09,0,.18.05.28.14-.02.01-.04.03-.05.04-1.07,1.07-2.13,2.13-3.2,3.2-.05.05-.1.06-.16.07-.08,0-.16,0-.24,0-.05,0-.11,0-.17,0h-.05c1.1-1.1,2.2-2.2,3.31-3.31Zm2.9,8.66c0,.29-.12.42-.42.42H.92c-.29,0-.42-.12-.42-.42,0-1.48,0-2.96,0-4.44,0-.3.12-.42.42-.42h7.98c.3,0,.42.12.42.42v4.44Zm.83-4.93c-.09.09-.17.17-.26.26l-.08.08c0-.06-.02-.11-.03-.16-.1-.37-.42-.6-.82-.61-.38,0-.77,0-1.15,0h-1.5s1.99-2,1.99-2c0,0,.01.01.02.02l1.83,1.83c.2.2.2.37,0,.57Z"/>
      <path d="m6.87,8c.29,0,.58,0,.88,0s.58,0,.88,0c.24,0,.37-.13.37-.37,0-.36,0-.72,0-1.08,0-.24-.13-.37-.37-.37-.22,0-.43,0-.65,0h-.22s-.22,0-.22,0c-.22,0-.44,0-.65,0-.25,0-.38.13-.38.38,0,.36,0,.72,0,1.07,0,.25.13.38.37.38Zm.13-1.32h1.49v.82h-1.49v-.82Z"/>
      <path d="m2.21,8.58c-.42,0-.83,0-1.25,0-.17,0-.29.09-.29.24,0,.07.02.13.06.17.05.05.13.08.23.09.14,0,.28,0,.41,0h.39c.06,0,.12,0,.18,0,.09,0,.18,0,.27,0,.09,0,.17-.03.22-.08.04-.04.07-.1.07-.17,0-.15-.11-.24-.29-.24Z"/>
      <path d="m4.42,8.58c-.15,0-.31,0-.47,0h-.16c-.06,0-.12,0-.17,0-.15,0-.31,0-.46,0-.08,0-.18.04-.23.11-.05.07-.06.16-.03.23.04.09.15.15.27.15.21,0,.41,0,.62,0s.41,0,.62,0c.18,0,.3-.1.3-.25,0-.07-.02-.12-.06-.17-.05-.05-.13-.08-.23-.08Z"/>
      <path d="m6.66,8.58c-.16,0-.32,0-.48,0h-.33c-.15,0-.3,0-.45,0-.07,0-.17.03-.23.09-.06.06-.05.18-.04.24.01.06.07.16.25.16h.64c.21,0,.43,0,.64,0,.16,0,.27-.1.28-.24,0-.07-.02-.12-.06-.17-.05-.05-.13-.08-.22-.08Z"/>
      <path d="m8.87,8.58c-.15,0-.31,0-.47,0h-.33c-.15,0-.31,0-.46,0-.07,0-.17.03-.23.09-.06.06-.05.18-.04.24.01.06.07.16.25.16h.64c.21,0,.42,0,.64,0,.16,0,.28-.1.28-.24,0-.15-.11-.25-.28-.25Z"/>
    </g>
  </g>
</svg>