<svg width="50" height="13" viewBox="0 0 50 13" fill="none" xmlns="http://www.w3.org/2000/svg">
<g clip-path="url(#clip0_583_26339)">
<path d="M15.9883 2.59973C15.8853 2.59973 15.7979 2.673 15.7819 2.77276L14.5907 10.1809C14.5864 10.208 14.5881 10.2357 14.5957 10.262C14.6033 10.2884 14.6167 10.3128 14.6348 10.3336C14.653 10.3544 14.6755 10.3711 14.7009 10.3826C14.7262 10.3941 14.7538 10.4 14.7818 10.4H16.1944C16.2971 10.4 16.3847 10.3266 16.4008 10.227L16.7507 8.05151C16.7666 7.9519 16.8541 7.87849 16.9571 7.87849H18.2413C19.7419 7.87849 21.0158 6.80473 21.2484 5.34973C21.483 3.88243 20.3142 2.60292 18.6575 2.59973H15.9883ZM17.3614 4.25352H18.389C19.235 4.25352 19.5104 4.74306 19.4233 5.28443C19.3362 5.82696 18.9084 6.22658 18.09 6.22658H17.0442L17.3614 4.25352ZM24.1215 4.7571C23.7648 4.75841 23.3543 4.83008 22.8936 5.01831C21.8366 5.45036 21.329 6.34328 21.1135 6.99426C21.1135 6.99426 20.4274 8.98034 21.9775 10.0715C21.9775 10.0715 23.415 11.1219 25.0333 10.0068L25.0054 10.1809C25.001 10.208 25.0027 10.2356 25.0103 10.2619C25.0179 10.2883 25.0312 10.3127 25.0494 10.3335C25.0675 10.3543 25.09 10.371 25.1153 10.3825C25.1406 10.394 25.1682 10.4 25.1961 10.4H26.5371C26.64 10.4 26.7274 10.3266 26.7435 10.227L27.5592 5.15383C27.5636 5.12677 27.5619 5.0991 27.5544 5.07273C27.5468 5.04636 27.5335 5.02191 27.5153 5.00107C27.4972 4.98022 27.4747 4.96348 27.4493 4.95198C27.424 4.94048 27.3964 4.93451 27.3685 4.93447H26.0275C25.9246 4.93447 25.837 5.00788 25.8211 5.1075L25.7772 5.38057C25.7772 5.38057 25.1917 4.75319 24.1215 4.7571ZM24.1653 6.3595C24.3193 6.3595 24.4601 6.38035 24.5865 6.42016C25.1651 6.60231 25.4932 7.14744 25.3982 7.73833C25.2812 8.4659 24.6727 9.00163 23.8925 9.00163C23.7386 9.00163 23.5978 8.98092 23.4713 8.9411C22.8928 8.75896 22.5627 8.21382 22.6576 7.62294C22.7747 6.89537 23.385 6.3595 24.1653 6.3595Z" fill="#003087"/>
<path d="M35.2993 2.59973C35.1964 2.59973 35.109 2.673 35.0929 2.77276L33.9018 10.1809C33.8974 10.208 33.8991 10.2357 33.9067 10.262C33.9143 10.2884 33.9277 10.3128 33.9458 10.3336C33.964 10.3544 33.9865 10.3711 34.0119 10.3826C34.0373 10.3941 34.0649 10.4 34.0928 10.4H35.5054C35.6081 10.4 35.6957 10.3266 35.7118 10.227L36.0617 8.05151C36.0776 7.9519 36.1652 7.87849 36.2681 7.87849H37.5524C39.053 7.87849 40.3266 6.80473 40.5592 5.34973C40.7939 3.88243 39.6252 2.60292 37.9686 2.59973H35.2993ZM36.6725 4.25352H37.7C38.546 4.25352 38.8215 4.74306 38.7344 5.28443C38.6473 5.82696 38.2196 6.22658 37.4011 6.22658H36.3552L36.6725 4.25352ZM43.4324 4.7571C43.0757 4.75841 42.6652 4.83008 42.2044 5.01831C41.1475 5.45036 40.6399 6.34328 40.4244 6.99426C40.4244 6.99426 39.7386 8.98034 41.2887 10.0715C41.2887 10.0715 42.7259 11.1219 44.3443 10.0068L44.3164 10.1809C44.3121 10.208 44.3138 10.2357 44.3214 10.262C44.329 10.2884 44.3423 10.3128 44.3605 10.3336C44.3786 10.3544 44.4012 10.3711 44.4266 10.3826C44.4519 10.3941 44.4795 10.4 44.5074 10.4H45.8483C45.9512 10.4 46.0386 10.3266 46.0547 10.227L46.8707 5.15383C46.8751 5.12675 46.8734 5.09906 46.8658 5.07266C46.8582 5.04627 46.8449 5.02181 46.8267 5.00096C46.8086 4.98011 46.786 4.96337 46.7606 4.95189C46.7352 4.94041 46.7076 4.93447 46.6796 4.93447H45.3386C45.2357 4.93447 45.1482 5.00788 45.1322 5.1075L45.0884 5.38057C45.0884 5.38057 44.5026 4.75319 43.4324 4.7571ZM43.4762 6.3595C43.6302 6.3595 43.771 6.38035 43.8974 6.42016C44.476 6.60231 44.8041 7.14744 44.7091 7.73833C44.592 8.4659 43.9836 9.00163 43.2034 9.00163C43.0495 9.00163 42.9087 8.98092 42.7822 8.9411C42.2037 8.75896 41.8736 8.21382 41.9685 7.62294C42.0856 6.89537 42.6959 6.3595 43.4762 6.3595Z" fill="#0070E0"/>
<path d="M28.1956 4.93447C28.0893 4.93447 28.0137 5.03626 28.0462 5.13544L29.5164 9.6096L28.187 11.718C28.1225 11.8204 28.1975 11.9526 28.3202 11.9526H29.8914C29.9363 11.9526 29.9805 11.9412 30.0196 11.9195C30.0587 11.8978 30.0915 11.8666 30.1147 11.8289L34.2207 5.16758C34.2837 5.06522 34.2084 4.93433 34.0865 4.93433H32.5155C32.4701 4.93436 32.4255 4.94599 32.3861 4.96805C32.3467 4.99011 32.3139 5.02185 32.2908 5.06015L30.6746 7.73616L29.8542 5.07998C29.8274 4.99354 29.7461 4.93433 29.6541 4.93433L28.1956 4.93447Z" fill="#003087"/>
<path d="M48.3944 2.59973C48.2916 2.59973 48.2041 2.67314 48.188 2.77276L46.9965 10.1807C46.9921 10.2077 46.9938 10.2354 47.0014 10.2618C47.009 10.2882 47.0223 10.3127 47.0405 10.3335C47.0586 10.3544 47.0812 10.3711 47.1066 10.3826C47.132 10.3941 47.1596 10.4 47.1876 10.4H48.6002C48.7029 10.4 48.7905 10.3266 48.8066 10.227L49.9977 2.8188C50.002 2.79176 50.0003 2.76413 49.9927 2.73779C49.9852 2.71146 49.9718 2.68705 49.9537 2.66623C49.9356 2.64542 49.9131 2.6287 49.8878 2.61722C49.8624 2.60574 49.8349 2.59978 49.807 2.59973H48.3944Z" fill="#0070E0"/>
<path d="M4.2119 2.59973C4.1209 2.59981 4.03292 2.6317 3.96375 2.68969C3.89458 2.74768 3.84876 2.82795 3.83453 2.9161L3.20752 6.81617C3.23675 6.63402 3.39679 6.4998 3.58488 6.4998H5.42223C7.27139 6.4998 8.84048 5.17685 9.12719 3.38406C9.14853 3.25021 9.16062 3.11511 9.16337 2.97966C8.69344 2.73801 8.14142 2.59973 7.53654 2.59973H4.2119Z" fill="#001C64"/>
<path d="M9.16322 2.9798C9.16047 3.11524 9.14838 3.25035 9.12704 3.3842C8.84033 5.17699 7.27109 6.49993 5.42208 6.49993H3.58473C3.39679 6.49993 3.2366 6.63401 3.20737 6.8163L2.63084 10.4001L2.26972 12.6484C2.26267 12.6919 2.26532 12.7363 2.27747 12.7786C2.28963 12.821 2.31101 12.8602 2.34014 12.8937C2.36926 12.9271 2.40544 12.954 2.44617 12.9724C2.4869 12.9908 2.53122 13.0003 2.57607 13.0003H4.57036C4.66136 13.0002 4.74934 12.9683 4.81851 12.9103C4.88768 12.8523 4.93349 12.7721 4.94772 12.6839L5.47301 9.41644C5.48725 9.32825 5.53311 9.24793 5.60234 9.18994C5.67157 9.13195 5.75963 9.10008 5.85067 9.10008H7.02484C8.874 9.10008 10.4431 7.77713 10.7298 5.98434C10.9334 4.71192 10.28 3.55404 9.16322 2.9798Z" fill="#0070E0"/>
<path d="M1.94593 0.000244141C1.75799 0.000244141 1.5978 0.13432 1.56857 0.316321L0.00360746 10.0485C-0.0260677 10.2333 0.119507 10.4004 0.310255 10.4004H2.63097L3.2072 6.81653L3.83421 2.91646C3.84844 2.82832 3.89426 2.74804 3.96343 2.69005C4.0326 2.63207 4.12058 2.60017 4.21158 2.6001H7.53623C8.14125 2.6001 8.69312 2.73852 9.16305 2.98003C9.19524 1.34781 7.82191 0.000244141 5.93377 0.000244141H1.94593Z" fill="#003087"/>
</g>
<defs>
<clipPath id="clip0_583_26339">
<rect width="50" height="13" fill="white"/>
</clipPath>
</defs>
</svg>
