<svg width="14" height="18" viewBox="0 0 14 18" fill="none" xmlns="http://www.w3.org/2000/svg">
<path d="M13.912 5.83212C13.7135 4.64905 13.1859 3.55083 12.3428 2.56727C10.4872 0.401584 8.15935 -0.399245 5.42353 0.185761C3.88601 0.514856 2.54789 1.40239 1.44586 2.82458C0.437348 4.12698 -0.047655 5.56968 0.00368754 7.114C0.0321093 7.9689 0.216851 8.82986 0.567997 9.74629C1.05346 11.0128 1.80022 12.2765 2.91783 13.7229C4.02903 15.1605 5.26675 16.4405 6.54298 17.7336C6.60899 17.8007 6.68417 17.8567 6.75706 17.9112C6.79007 17.9354 6.82261 17.9601 6.8547 17.9853L6.8735 18.0002H7.12654L7.14534 17.9858C7.17559 17.962 7.20631 17.9392 7.23748 17.9163C7.30762 17.8646 7.37959 17.811 7.44468 17.7481C7.59504 17.6022 7.74311 17.4493 7.88614 17.3015C7.93335 17.2525 7.98103 17.2036 8.02825 17.1547C9.28201 15.8681 10.5963 14.459 11.7125 12.8708C12.6211 11.5782 13.2189 10.4385 13.5939 9.28388C13.9922 8.0584 14.0958 6.92941 13.912 5.83212ZM6.98031 16.8335C6.74927 16.5832 6.51731 16.3343 6.28535 16.0858C5.74442 15.505 5.1847 14.9051 4.65018 14.3019C3.60179 13.1188 2.78214 11.9861 2.14449 10.8389C1.52929 9.73184 1.17356 8.75388 1.02504 7.761C0.802247 6.27029 1.14514 4.88352 2.04501 3.63799C3.0251 2.28153 4.18535 1.46671 5.59223 1.14787C6.10703 1.03134 6.60533 0.973072 7.08804 0.973072C8.731 0.973072 10.1855 1.64804 11.4269 2.99006C12.192 3.81746 12.6752 4.69753 12.903 5.68109C13.1492 6.74156 13.0671 7.85004 12.6518 9.06946C12.2535 10.2404 11.6286 11.3671 10.6261 12.7231C9.52681 14.2096 8.23178 15.5628 6.9991 16.8209C6.99498 16.8246 6.98948 16.8274 6.98031 16.8335Z" fill="black"/>
<path d="M7.00144 4.24793H7.00006C5.29751 4.24793 3.9108 5.65474 3.90897 7.38459C3.90668 9.11863 5.2888 10.5315 6.98952 10.5343H6.99456C7.82338 10.5343 8.60177 10.2075 9.18579 9.61414C9.77027 9.02074 10.0916 8.23017 10.0907 7.38785C10.0893 5.65707 8.70353 4.24886 7.00144 4.24793ZM6.99686 9.55727H6.9941C6.42567 9.55634 5.89207 9.33119 5.49188 8.92239C5.08939 8.51172 4.86843 7.964 4.86981 7.38086C4.87256 6.1936 5.82698 5.22636 6.99686 5.22543H6.99915C7.56942 5.22543 8.10484 5.45011 8.50642 5.85798C8.90845 6.26632 9.12986 6.8117 9.12986 7.39251C9.12986 7.97332 8.90845 8.51545 8.50642 8.92378C8.10393 9.33259 7.56758 9.55727 6.99686 9.55727Z" fill="black"/>
</svg>
