<svg width="27" height="26" viewBox="0 0 27 26" fill="none" xmlns="http://www.w3.org/2000/svg">
<path d="M0.254666 17.4202C1.27199 15.8945 2.29134 14.3701 3.30324 12.8409C3.46397 12.5982 3.6593 12.4917 3.95432 12.4924C7.98223 12.4985 12.0108 12.4965 16.0387 12.4965C16.0808 12.4965 16.1235 12.4951 16.1656 12.4965C16.4884 12.508 16.7115 12.7216 16.7061 13.0125C16.7007 13.2939 16.483 13.5048 16.1723 13.5089C15.6142 13.5157 15.0553 13.5109 14.4965 13.5109C14.4158 13.5109 14.3344 13.5109 14.213 13.5109C14.2693 13.6018 14.3018 13.6581 14.3378 13.7116C15.0458 14.7742 15.7559 15.8348 16.4599 16.8994C16.5372 17.0167 16.6172 17.0683 16.7637 17.0683C19.3701 17.0635 21.9765 17.0649 24.5829 17.0649H24.7904C24.7287 16.9665 24.6907 16.9042 24.6507 16.8438C23.9521 15.7955 23.2509 14.7491 22.557 13.6974C22.4689 13.5631 22.3807 13.5021 22.2132 13.5068C21.7568 13.5204 21.2996 13.5136 20.8425 13.5102C20.4939 13.5075 20.2667 13.3054 20.2647 13.0064C20.2626 12.7067 20.4905 12.4992 20.8371 12.4971C21.438 12.4937 22.0389 12.4985 22.6398 12.4951C22.8629 12.4937 23.0291 12.5812 23.1518 12.7657C24.1461 14.2568 25.1404 15.748 26.136 17.2385C26.2574 17.4209 26.3035 17.6101 26.1916 17.8101C26.0824 18.0068 25.9061 18.082 25.6843 18.0814C24.8725 18.078 24.06 18.08 23.2081 18.08C23.2081 18.1865 23.2081 18.2834 23.2081 18.3804C23.2081 20.69 23.2034 22.9997 23.2136 25.3093C23.2149 25.6212 23.1267 25.8498 22.8527 25.9996H3.65726C3.38327 25.8504 3.2951 25.6226 3.29645 25.3107C3.30663 23.0044 3.30188 20.6988 3.30188 18.3926C3.30188 18.2943 3.30188 18.196 3.30188 18.08C2.49548 18.08 1.71893 18.0691 0.943731 18.0854C0.631753 18.0922 0.402517 18.002 0.254666 17.7247C0.254666 17.623 0.254666 17.5219 0.254666 17.4202ZM4.33073 18.08V24.9682H12.7318V14.72C12.6511 14.8339 12.5968 14.9051 12.5473 14.9797C11.9369 15.8938 11.3224 16.8045 10.7215 17.7247C10.5561 17.9776 10.3553 18.0861 10.0508 18.0847C8.23995 18.0752 6.42912 18.08 4.61829 18.08H4.33073ZM22.1745 24.9723V18.08H21.8802C20.0694 18.08 18.2585 18.0759 16.4477 18.0841C16.1527 18.0854 15.956 17.9796 15.7966 17.7362C15.1896 16.8099 14.5718 15.8904 13.9573 14.9695C13.9091 14.897 13.8542 14.8291 13.7762 14.724V24.9723H22.1745ZM1.71825 17.0547C1.80913 17.0594 1.85729 17.0649 1.90544 17.0649C4.52063 17.0649 7.13514 17.0635 9.75034 17.0689C9.89886 17.0689 9.97618 17.0127 10.0528 16.8974C10.748 15.847 11.4479 14.7993 12.1458 13.751C12.1905 13.6838 12.2326 13.614 12.297 13.5116H12.0122C10.8192 13.5116 9.62554 13.5116 8.43257 13.5116C7.05308 13.5116 5.67359 13.5096 4.29479 13.5163C4.20051 13.5163 4.06419 13.5543 4.01807 13.6221C3.25441 14.7485 2.50091 15.8816 1.71825 17.0547Z" fill="#1D1D1B"/>
<path d="M0.254666 17.7247C0.402517 18.002 0.631753 18.0922 0.943731 18.0854C1.71893 18.0691 2.49548 18.08 3.30188 18.08C3.30188 18.196 3.30188 18.2943 3.30188 18.3926C3.30188 20.6988 3.30663 23.0044 3.29645 25.3107C3.2951 25.6226 3.38327 25.8504 3.65726 25.9996L0.254666 25.9996V17.7247Z" fill="white"/>
<path d="M10.2047 1.26157C10.3017 1.14562 10.379 1.04797 10.4611 0.955069C11.2363 0.0816666 12.2041 -0.195001 13.3069 0.134559C14.4042 0.462763 15.0275 1.25683 15.2344 2.37096C15.446 3.50814 15.0336 4.47106 14.2618 5.25834C13.53 6.00494 12.7223 6.6783 11.9355 7.36997C11.4974 7.75513 11.0362 8.11385 10.5818 8.48003C10.3295 8.68278 10.1125 8.70855 9.89073 8.52139C8.71538 7.52864 7.52987 6.54742 6.38572 5.51941C5.80992 5.00202 5.38671 4.35171 5.20359 3.5746C4.76072 1.69285 6.14156 -0.0485301 8.03785 0.0124996C8.88697 0.0396239 9.55501 0.430214 10.0705 1.09476C10.1064 1.14155 10.1444 1.1863 10.2047 1.26157ZM10.1878 7.51779C11.1407 6.70881 12.0502 5.96425 12.9251 5.18104C13.2865 4.8569 13.6012 4.4697 13.8861 4.07504C14.2354 3.59087 14.3608 3.03143 14.2171 2.43673C14.0482 1.73964 13.6338 1.25886 12.9264 1.08052C12.2136 0.90082 11.6195 1.12934 11.1726 1.69963C10.9928 1.92883 10.8558 2.19804 10.7337 2.46454C10.5825 2.79477 10.4564 2.92701 10.2013 2.92022C9.89547 2.91277 9.77407 2.70933 9.67709 2.45233C9.59706 2.24076 9.48922 2.03529 9.36172 1.84814C8.84492 1.0873 8.02428 0.827585 7.23823 1.16054C6.4671 1.48738 6.01881 2.35401 6.17208 3.20164C6.28331 3.82007 6.60682 4.33069 7.05037 4.73891C8.06904 5.67673 9.12163 6.57794 10.1878 7.51779Z" fill="#1D1D1B"/>
<path d="M19.3525 4.55989C19.6563 4.22151 19.9941 3.96315 20.4315 3.86551C21.5485 3.61664 22.6283 4.35307 22.8534 5.50856C23.0026 6.27482 22.8087 6.96039 22.3278 7.54899C21.9873 7.96602 21.5981 8.34712 21.204 8.71465C20.7408 9.14661 20.2491 9.54873 19.7676 9.96169C19.4556 10.2295 19.2413 10.2343 18.9395 9.96915C18.247 9.36157 17.5457 8.7628 16.8743 8.13284C16.3439 7.63511 15.9323 7.05397 15.8136 6.30398C15.5782 4.81689 16.8607 3.54273 18.2768 3.86754C18.6424 3.95163 18.9089 4.12047 19.3525 4.55989ZM19.3586 9.03133C20.0768 8.35051 20.7625 7.71309 21.4299 7.05804C21.5763 6.91428 21.6794 6.71627 21.7662 6.5264C21.9541 6.11615 21.9304 5.7025 21.6991 5.31259C21.3491 4.72263 20.5977 4.65821 20.1663 5.18985C20.0361 5.35056 19.9378 5.54518 19.8598 5.73844C19.7628 5.97917 19.6319 6.15344 19.3518 6.15548C19.0731 6.15751 18.9422 5.98527 18.8357 5.74793C18.734 5.52009 18.6139 5.28614 18.4464 5.10577C18.0781 4.71043 17.4813 4.73755 17.1218 5.14238C16.8465 5.45296 16.7583 5.8232 16.8336 6.22871C16.9055 6.61727 17.1137 6.94072 17.3897 7.20586C18.0164 7.80802 18.6641 8.38984 19.3586 9.03133Z" fill="#1D1D1B"/>
<path d="M18.4756 13.5096C18.1955 13.5041 17.9669 13.2614 17.9791 12.982C17.9913 12.7121 18.2239 12.4931 18.4939 12.4985C18.774 12.5039 19.0032 12.7474 18.9903 13.0261C18.9781 13.2959 18.7448 13.5143 18.4756 13.5096Z" fill="#1D1D1B"/>
</svg>
