<?xml version="1.0" encoding="utf-8"?>
<!-- Generator: Adobe Illustrator 27.5.0, SVG Export Plug-In . SVG Version: 6.00 Build 0)  -->
<svg version="1.1" id="Capa_1" xmlns="http://www.w3.org/2000/svg" xmlns:xlink="http://www.w3.org/1999/xlink" x="0px" y="0px"
	 viewBox="0 0 16 16" style="enable-background:new 0 0 16 16;" xml:space="preserve">
<style type="text/css">
	.st0{fill:none;}
	.st1{fill:none;stroke:#1D1D1B;stroke-width:0.75;stroke-miterlimit:10;}
</style>
<rect x="3" y="2.6" class="st0" width="10" height="10.9"/>
<path class="st1" d="M3,6.7c0-0.7,0-1.3,0-2c0-0.3,0.2-0.5,0.4-0.5c1.6,0,3-0.6,4.2-1.5c0.3-0.2,0.4-0.2,0.7,0
	c1,0.7,2.2,1.3,3.4,1.4c0.2,0,0.5,0,0.7,0.1c0.3,0,0.5,0.2,0.5,0.5c0,1.3,0,2.5,0,3.8c0,2.6-2.1,4.7-4.6,4.9c-2.7,0.2-5-1.7-5.3-4.3
	C2.9,8.4,3,7.6,3,6.9C3,6.8,3,6.8,3,6.7z"/>
<g>
	<path d="M7.5,9.2C7.6,9.1,7.6,9.1,7.6,9c0.6-0.6,1.3-1.3,1.9-1.9C9.7,7,9.9,6.9,10,7c0.1,0.1,0.2,0.2,0.1,0.4
		c0,0.1-0.1,0.1-0.1,0.2C9.3,8.3,8.5,9.1,7.8,9.8C7.6,10,7.4,10,7.2,9.8C6.8,9.4,6.4,9,6,8.6c-0.2-0.2-0.2-0.4,0-0.5
		c0.1-0.1,0.3-0.1,0.5,0C6.8,8.4,7.1,8.7,7.4,9C7.4,9.1,7.4,9.1,7.5,9.2z"/>
	<path d="M7.5,10.1c-0.1,0-0.2-0.1-0.4-0.2C6.7,9.5,6.3,9.1,5.9,8.7C5.7,8.4,5.7,8.2,5.9,8C6,7.8,6.3,7.8,6.5,8
		C6.8,8.3,7.2,8.6,7.5,9c0,0,0,0,0,0c0,0,0,0,0,0C8.2,8.3,8.8,7.7,9.5,7c0.2-0.2,0.4-0.2,0.6-0.1c0.2,0.1,0.3,0.3,0.2,0.5
		c0,0.1-0.1,0.2-0.1,0.2C9.4,8.4,8.6,9.2,7.9,9.9C7.7,10,7.6,10.1,7.5,10.1z M6.2,8.1c0,0-0.1,0-0.1,0.1c-0.1,0.1-0.1,0.2,0,0.3
		c0.4,0.4,0.8,0.8,1.2,1.2c0.1,0.1,0.2,0.1,0.4,0C8.4,9,9.2,8.2,9.9,7.5c0,0,0.1-0.1,0.1-0.1c0-0.1,0-0.2-0.1-0.2
		c-0.1-0.1-0.2,0-0.3,0.1C9,7.8,8.4,8.5,7.7,9.1c0,0,0,0-0.1,0.1L7.5,9.4L7.3,9.2c0,0,0-0.1-0.1-0.1C7,8.8,6.7,8.5,6.4,8.2
		C6.3,8.2,6.2,8.1,6.2,8.1z"/>
</g>
</svg>
