<?xml version="1.0" encoding="UTF-8"?>
<svg id="Capa_2" data-name="Capa 2" xmlns="http://www.w3.org/2000/svg" viewBox="0 0 8.9 5.97">
  <g id="Capa_1-2" data-name="Capa 1">
    <path d="m6.5,1.17H1.31l.53-.53c.15-.15.15-.38,0-.53S1.45-.04,1.31.11L.11,1.31C-.04,1.45-.04,1.69.11,1.84l1.14,1.14c.07.07.17.11.27.11s.19-.04.27-.11c.15-.15.15-.38,0-.53l-.53-.53h5.25c.91,0,1.65.74,1.65,1.65s-.74,1.65-1.65,1.65H1.68c-.21,0-.38.17-.38.38s.17.38.38.38h4.82c1.32,0,2.4-1.08,2.4-2.4s-1.08-2.4-2.4-2.4Z"/>
  </g>
</svg>