<svg width="22" height="13" viewBox="0 0 22 13" fill="none" xmlns="http://www.w3.org/2000/svg">
<path d="M0 0.75C0 0.335786 0.335786 0 0.75 0H21.25C21.6642 0 22 0.335786 22 0.75C22 1.16421 21.6642 1.5 21.25 1.5H0.750001C0.335787 1.5 0 1.16421 0 0.75Z" fill="black"/>
<path d="M9 6.25C9 5.83579 9.33579 5.5 9.75 5.5H21.25C21.6642 5.5 22 5.83579 22 6.25C22 6.66421 21.6642 7 21.25 7H9.75C9.33579 7 9 6.66421 9 6.25Z" fill="black"/>
<path d="M5 11.75C5 11.3358 5.33579 11 5.75 11H21.25C21.6642 11 22 11.3358 22 11.75C22 12.1642 21.6642 12.5 21.25 12.5H5.75C5.33579 12.5 5 12.1642 5 11.75Z" fill="black"/>
</svg>
