<svg width="20" height="20" viewBox="0 0 20 20" fill="none" xmlns="http://www.w3.org/2000/svg">
<path d="M5.374 10.7163C5.434 11.0323 5.618 11.1903 5.926 11.1903C6.138 11.1903 6.288 11.0963 6.376 10.9083C6.464 10.7203 6.508 10.4143 6.508 9.99027C6.42 10.1143 6.3 10.2103 6.148 10.2783C5.996 10.3463 5.826 10.3803 5.638 10.3803C5.382 10.3803 5.154 10.3283 4.954 10.2243C4.754 10.1163 4.596 9.95827 4.48 9.75027C4.368 9.53827 4.312 9.28227 4.312 8.98227C4.312 8.68627 4.372 8.42827 4.492 8.20827C4.616 7.98827 4.79 7.81827 5.014 7.69827C5.242 7.57827 5.51 7.51827 5.818 7.51827C6.41 7.51827 6.824 7.70227 7.06 8.07027C7.296 8.43827 7.414 8.98027 7.414 9.69627C7.414 10.2163 7.366 10.6463 7.27 10.9863C7.178 11.3223 7.02 11.5783 6.796 11.7543C6.576 11.9303 6.274 12.0183 5.89 12.0183C5.586 12.0183 5.326 11.9583 5.11 11.8383C4.898 11.7183 4.734 11.5603 4.618 11.3643C4.506 11.1683 4.442 10.9523 4.426 10.7163H5.374ZM5.872 9.57027C6.04 9.57027 6.174 9.52027 6.274 9.42027C6.374 9.31627 6.424 9.17627 6.424 9.00027C6.424 8.80827 6.372 8.66027 6.268 8.55627C6.164 8.45227 6.024 8.40027 5.848 8.40027C5.672 8.40027 5.532 8.45427 5.428 8.56227C5.328 8.66627 5.278 8.81027 5.278 8.99427C5.278 9.16627 5.328 9.30627 5.428 9.41427C5.532 9.51827 5.68 9.57027 5.872 9.57027Z" fill="black"/>
<path d="M7.96141 9.75027C7.96141 9.06227 8.09341 8.52027 8.35741 8.12427C8.62541 7.72827 9.05541 7.53027 9.64741 7.53027C10.2394 7.53027 10.6674 7.72827 10.9314 8.12427C11.1994 8.52027 11.3334 9.06227 11.3334 9.75027C11.3334 10.4463 11.1994 10.9923 10.9314 11.3883C10.6674 11.7843 10.2394 11.9823 9.64741 11.9823C9.05541 11.9823 8.62541 11.7843 8.35741 11.3883C8.09341 10.9923 7.96141 10.4463 7.96141 9.75027ZM10.3254 9.75027C10.3254 9.34627 10.2814 9.03627 10.1934 8.82027C10.1054 8.60027 9.92341 8.49027 9.64741 8.49027C9.37141 8.49027 9.18941 8.60027 9.10141 8.82027C9.01341 9.03627 8.96941 9.34627 8.96941 9.75027C8.96941 10.0223 8.98541 10.2483 9.01741 10.4283C9.04941 10.6043 9.11341 10.7483 9.20941 10.8603C9.30941 10.9683 9.45541 11.0223 9.64741 11.0223C9.83941 11.0223 9.98341 10.9683 10.0794 10.8603C10.1794 10.7483 10.2454 10.6043 10.2774 10.4283C10.3094 10.2483 10.3254 10.0223 10.3254 9.75027Z" fill="black"/>
<path d="M11.7555 8.82627C11.7555 8.61427 11.8055 8.42827 11.9055 8.26827C12.0095 8.10427 12.1535 7.97627 12.3375 7.88427C12.5255 7.79227 12.7395 7.74627 12.9795 7.74627C13.2195 7.74627 13.4315 7.79227 13.6155 7.88427C13.8035 7.97627 13.9475 8.10427 14.0475 8.26827C14.1515 8.42827 14.2035 8.61427 14.2035 8.82627C14.2035 9.03827 14.1515 9.22627 14.0475 9.39027C13.9435 9.55427 13.7975 9.68427 13.6095 9.78027C13.4255 9.87227 13.2135 9.91827 12.9735 9.91827C12.7335 9.91827 12.5215 9.87227 12.3375 9.78027C12.1535 9.68427 12.0095 9.55427 11.9055 9.39027C11.8055 9.22627 11.7555 9.03827 11.7555 8.82627ZM13.4115 8.83227C13.4115 8.67227 13.3695 8.55027 13.2855 8.46627C13.2015 8.38227 13.0975 8.34027 12.9735 8.34027C12.8535 8.34027 12.7515 8.38227 12.6675 8.46627C12.5875 8.55027 12.5475 8.67227 12.5475 8.83227C12.5475 8.98827 12.5875 9.10827 12.6675 9.19227C12.7475 9.27627 12.8495 9.31827 12.9735 9.31827C13.0975 9.31827 13.2015 9.27627 13.2855 9.19227C13.3695 9.10427 13.4115 8.98427 13.4115 8.83227Z" fill="black"/>
<path fill-rule="evenodd" clip-rule="evenodd" d="M0.0195312 10C0.0195312 5.0131 4.07415 0.970001 9.05953 0.970001C13.7627 0.970001 17.6275 4.56793 18.051 9.16082L19.0703 7.70303C19.2285 7.47671 19.5403 7.42153 19.7666 7.57976C19.9929 7.73799 20.0481 8.04973 19.8898 8.27604L18.1699 10.736C18.0939 10.8447 17.9778 10.9188 17.8472 10.9419C17.7166 10.965 17.5821 10.9353 17.4735 10.8592L15.0435 9.15923C14.8172 9.00093 14.7621 8.68918 14.9204 8.46291C15.0787 8.23665 15.3904 8.18154 15.6167 8.33984L17.0638 9.35219C16.7338 5.2211 13.2753 1.97 9.05953 1.97C4.62491 1.97 1.01953 5.56691 1.01953 10C1.01953 14.4339 4.61567 18.03 9.04953 18.03C10.8849 18.03 12.5792 17.4092 13.936 16.3727C14.1555 16.205 14.4692 16.247 14.6369 16.4665C14.8045 16.6859 14.7625 16.9997 14.5431 17.1673C13.0199 18.3308 11.1142 19.03 9.04953 19.03C4.06339 19.03 0.0195312 14.9861 0.0195312 10Z" fill="black"/>
</svg>
