<svg width="31" height="31" viewBox="0 0 31 31" fill="none" xmlns="http://www.w3.org/2000/svg">
<g clip-path="url(#clip0_1965_12797)">
<path d="M15.5007 31L0 15.499L15.501 3.11282e-05L31 15.499L15.5007 31Z" fill="#004B8D"/>
<path d="M15.5007 4.75184L14.5004 3.75156L10.0757 8.17512L14.5004 12.5994L15.5007 11.5984L12.0773 8.17512L15.5007 4.75184Z" fill="#0081C6"/>
<path d="M20.9254 8.17512L16.501 3.75156L15.5007 4.75184L18.9241 8.17512L15.5007 11.5984L16.501 12.5994L20.9254 8.17512Z" fill="#5D9732"/>
<path d="M15.5007 4.75184L12.0774 8.17511L15.5007 11.5984L18.9241 8.17511L15.5007 4.75184Z" fill="#0069AA"/>
<mask id="mask0_1965_12797" style="mask-type:luminance" maskUnits="userSpaceOnUse" x="-1" y="-1" width="33" height="33">
<path d="M-0.150635 31.1508H31.1508V-0.151004H-0.150635V31.1508Z" fill="white"/>
</mask>
<g mask="url(#mask0_1965_12797)">
<path d="M16.0534 14.5885V15.3408C16.7398 14.8826 17.2846 14.643 17.7435 14.643C18.2557 14.643 18.6381 14.8937 18.8565 15.3843C19.5866 14.8826 20.1868 14.643 20.645 14.643C21.5723 14.643 21.8668 15.2974 21.8668 16.6502V17.2062C21.8668 17.6536 21.8668 18.2537 21.8341 19.0172L22.3911 19.0826V19.3009H20.3502V19.0826L20.9722 19.0058C21.0271 18.5152 21.0382 17.9046 21.0382 17.1738C21.0382 15.7775 20.9722 15.1552 20.1214 15.1552C19.8161 15.1552 19.4124 15.2974 18.9226 15.6138C18.965 15.9955 18.9757 16.4211 18.9757 16.8901V18.6466V19.0172L19.5547 19.0826V19.3009H17.5248V19.0826L18.1138 19.0058C18.1472 18.504 18.1472 17.8935 18.1472 17.1738C18.1472 15.7556 18.0599 15.1552 17.2196 15.1552C16.9139 15.1552 16.5103 15.2974 16.0534 15.603V17.9697C16.0534 18.3625 16.0534 18.7227 16.0851 19.0172L16.7283 19.0826V19.3009H14.5358V19.0826L15.1797 19.0172C15.2016 18.7227 15.2231 18.373 15.2231 17.9697V15.9736C15.2231 15.5919 15.2016 15.2536 15.1797 14.9375L14.5034 14.9045L14.5358 14.6868L16.0534 14.5885Z" fill="white"/>
<path d="M23.0331 13.6326L22.4191 14.9009H22.2244L22.3537 13.6326H23.0331Z" fill="white"/>
<path d="M5.55644 17.1837C5.68926 18.4927 6.30049 19.1704 7.25386 19.1704C8.16376 19.1704 8.79725 18.5595 8.79725 17.7052C8.79725 17.3503 8.69642 17.0617 8.4972 16.8284C8.10848 16.3743 7.46456 16.2074 6.75562 15.8747C5.78835 15.4192 5.32349 14.7871 5.32349 13.8884C5.32349 12.7007 6.18923 11.8579 7.39919 11.8579C8.20827 11.8579 8.6853 12.2459 8.9186 12.2459C9.05211 12.2459 9.14042 12.2018 9.21796 12.0905H9.47386C9.44013 12.3906 9.41753 12.7007 9.41753 13.0234V13.8661H9.16302C9.06358 12.7459 8.47529 12.1246 7.59807 12.1246C6.7438 12.1246 6.17776 12.668 6.17776 13.4889C6.17776 14.2882 6.71077 14.5542 7.67665 14.9645C9.01838 15.5301 9.71793 15.9634 9.71793 17.2724C9.71793 18.5824 8.78578 19.4697 7.37625 19.4697C6.54353 19.4697 6.02304 19.1366 5.74558 19.1366C5.61207 19.1366 5.53384 19.1815 5.46743 19.2813H5.22266C5.25708 18.9701 5.2682 18.6374 5.2682 18.305V17.1837H5.55644Z" fill="white"/>
<path d="M5.30199 13.8883C5.30199 14.793 5.76094 15.4306 6.74595 15.8941C6.93127 15.9807 7.10998 16.0561 7.28417 16.1288C7.77302 16.3336 8.19651 16.5102 8.47988 16.8426C8.67876 17.0745 8.77507 17.3564 8.77507 17.7052C8.77507 18.5552 8.14922 19.1484 7.25392 19.1484C6.30195 19.1484 5.7067 18.4502 5.57841 17.1812L5.57632 17.1617H5.24602V18.3049C5.24602 18.6835 5.23141 19.0017 5.20116 19.2788L5.19873 19.3028H5.47862L5.48488 19.2934C5.55059 19.1964 5.62361 19.1585 5.74565 19.1585C5.84335 19.1585 5.97582 19.2026 6.1441 19.2583C6.43998 19.3566 6.84469 19.4915 7.37631 19.4915C8.79002 19.4915 9.73956 18.5997 9.73956 17.2723C9.73956 15.909 8.96351 15.4835 7.68471 14.9442C6.73656 14.5413 6.20008 14.2753 6.20008 13.4888C6.20008 12.686 6.76194 12.1461 7.59814 12.1461C8.48162 12.1461 9.04452 12.774 9.14188 13.8681L9.14292 13.8883H9.43915V13.0233C9.43915 12.7368 9.45758 12.4322 9.49513 12.0932L9.49756 12.0689H9.20655L9.19959 12.0783C9.12762 12.1822 9.04592 12.2243 8.91866 12.2243C8.84113 12.2243 8.73021 12.177 8.59009 12.1172C8.32759 12.0049 7.93053 11.8356 7.39926 11.8356C6.18408 11.8356 5.30199 12.6992 5.30199 13.8883Z" fill="white"/>
<path d="M22.8592 15.8767C22.8592 16.4642 23.1572 16.8787 23.7952 17.1805L24.1387 17.33C24.4461 17.4576 24.7121 17.5688 24.8856 17.7743C25.0073 17.9148 25.0664 18.0865 25.0664 18.3C25.0664 18.8201 24.6818 19.1831 24.1321 19.1831C23.539 19.1831 23.1826 18.7621 23.1016 17.9641L23.0974 17.9221H22.8252V18.6814C22.8252 18.923 22.8154 19.1237 22.7963 19.2954L22.79 19.3479H23.0233L23.0376 19.3271C23.0724 19.2746 23.1082 19.2558 23.1749 19.2558C23.2313 19.2558 23.313 19.2832 23.4166 19.3177C23.6064 19.3813 23.8672 19.4679 24.2104 19.4679C25.1276 19.4679 25.7437 18.8883 25.7437 18.0257C25.7437 17.1394 25.243 16.8641 24.4186 16.5164C23.8126 16.2591 23.4965 16.1023 23.4965 15.6225C23.4965 15.1246 23.8317 14.8023 24.3508 14.8023C24.8936 14.8023 25.2388 15.1903 25.2979 15.8666L25.3017 15.909H25.5531V15.327C25.5531 15.1465 25.5643 14.9605 25.5882 14.7401L25.5938 14.6883H25.3549L25.3403 14.7088C25.3021 14.7648 25.26 14.7867 25.1891 14.7867C25.147 14.7867 25.0792 14.7578 24.994 14.7213C24.8244 14.6486 24.5681 14.5402 24.2246 14.5402C23.4333 14.5402 22.8592 15.102 22.8592 15.8767Z" fill="white"/>
<path d="M10.4776 15.7938C10.5013 15.0494 11.214 14.5227 12.2011 14.5227C13.2376 14.5227 13.6628 15.0574 13.6628 16.1808V16.3553L13.6141 17.9696C13.6141 18.3625 13.6141 18.7227 13.6468 19.0172L14.2907 19.0825V19.3009H12.8148L12.7894 18.8096C12.2884 19.1809 11.7867 19.3555 11.2843 19.3555C10.6087 19.3555 10.1724 18.9303 10.1724 18.3083C10.1724 17.4352 11.0444 16.9231 12.8113 16.694L12.8451 15.8209V15.701C12.8451 15.0352 12.5714 14.741 11.9717 14.741C11.5144 14.741 11.1754 14.9483 11.1754 15.2535C11.1754 15.3627 11.2106 15.6739 11.2106 15.7938C11.2106 15.9962 11.0465 16.1603 10.8438 16.1603C10.6417 16.1603 10.4776 15.9962 10.4776 15.7938ZM12.779 18.319C12.779 17.8712 12.7894 17.3918 12.8113 16.8685C11.5242 17.0538 10.9241 17.3806 10.9241 18.1334C10.9241 18.6239 11.2415 18.9518 11.7415 18.9518C12.0805 18.9518 12.4077 18.8315 12.779 18.6024V18.319Z" fill="white"/>
<path d="M11.8999 22.2538C11.7396 22.2914 11.5672 22.3227 11.401 22.3227C10.6906 22.3227 10.1973 21.9677 10.1973 21.2268C10.1973 20.4758 10.6562 20.0551 11.401 20.0551C11.5449 20.0551 11.7372 20.0829 11.8971 20.1458L11.8658 20.5165C11.6993 20.4226 11.5484 20.4003 11.3912 20.4003C10.9389 20.4003 10.6562 20.7459 10.6562 21.1951C10.6562 21.6412 10.9323 21.9771 11.401 21.9771C11.5738 21.9771 11.7779 21.9392 11.8811 21.886L11.8999 22.2538Z" fill="white"/>
<path d="M13.2915 20.0926H13.7317V21.9394H14.5828V22.285H13.2915V20.0926Z" fill="white"/>
<path d="M15.9148 20.0926H16.3543V21.3581C16.3543 21.7322 16.4732 21.9774 16.8097 21.9774C17.146 21.9774 17.2659 21.7322 17.2659 21.3581V20.0926H17.705V21.4934C17.705 22.081 17.3727 22.3226 16.8097 22.3226C16.2475 22.3226 15.9148 22.081 15.9148 21.4934V20.0926Z" fill="white"/>
<path d="M19.7062 21.9393H19.9131C20.1168 21.9393 20.3654 21.8889 20.3654 21.6347C20.3654 21.3493 20.1331 21.3051 19.9131 21.3051H19.7062V21.9393ZM19.7062 20.9783H19.8852C20.0706 20.9783 20.2997 20.9376 20.2997 20.7113C20.2997 20.4571 20.0768 20.4384 19.8759 20.4384H19.7062V20.9783ZM19.2664 20.0924H20.0327C20.3153 20.0924 20.7395 20.1738 20.7395 20.655C20.7395 20.9157 20.5632 21.0979 20.3032 21.1445V21.1515C20.6018 21.1793 20.8059 21.3802 20.8059 21.6507C20.8059 22.2036 20.3094 22.2849 20.0327 22.2849H19.2664V20.0924Z" fill="white"/>
</g>
</g>
<defs>
<clipPath id="clip0_1965_12797">
<rect width="31" height="31" fill="white"/>
</clipPath>
</defs>
</svg>
