<?xml version="1.0" encoding="UTF-8"?><svg id="Capa_1" xmlns="http://www.w3.org/2000/svg" viewBox="0 0 16 16"><path d="m12.77,12.29l-2.91-2.91c.57-.68.9-1.53.9-2.44,0-1.02-.4-1.98-1.12-2.7-.72-.72-1.68-1.12-2.7-1.12s-1.98.4-2.7,1.12c-.72.72-1.12,1.68-1.12,2.7s.4,1.98,1.12,2.7c.72.72,1.68,1.12,2.7,1.12.9,0,1.75-.33,2.44-.9l2.91,2.91c.07.07.16.1.24.1s.18-.03.24-.1c.14-.14.14-.35,0-.49h0Zm-8.04-3.13c-.59-.59-.91-1.38-.91-2.22s.32-1.62.91-2.22c.59-.59,1.38-.91,2.22-.91s1.62.32,2.22.91c.59.59.91,1.38.91,2.22s-.32,1.62-.91,2.22c-.59.59-1.38.91-2.22.91s-1.62-.32-2.22-.91Z"/><path d="m12.53,13c-.12,0-.24-.05-.33-.14l-2.83-2.83c-.71.56-1.55.86-2.43.86-1.05,0-2.04-.41-2.79-1.16-.75-.74-1.16-1.73-1.16-2.79s.41-2.04,1.16-2.78c.74-.75,1.73-1.16,2.78-1.16s2.04.41,2.79,1.16c.75.74,1.16,1.73,1.16,2.78,0,.88-.3,1.72-.86,2.43l2.62,2.62h0s.21.21.21.21c.19.19.19.48,0,.67-.08.09-.2.14-.33.14Zm-3.14-3.31l.08.08,2.91,2.91c.08.09.23.08.3,0,.08-.08.09-.19.03-.28l-.03-.03-2.99-2.99.07-.09c.57-.68.87-1.49.87-2.35,0-.99-.38-1.91-1.08-2.61-.7-.7-1.63-1.09-2.61-1.09s-1.92.39-2.61,1.08c-.7.7-1.08,1.63-1.08,2.61s.38,1.92,1.08,2.61c.7.7,1.63,1.08,2.61,1.08.85,0,1.67-.3,2.36-.87l.09-.07Zm-2.44.51c-.87,0-1.69-.34-2.3-.95-.61-.61-.95-1.43-.95-2.3s.34-1.69.95-2.3c.61-.61,1.43-.95,2.3-.95s1.69.34,2.3.95c.61.61.95,1.43.95,2.3s-.34,1.69-.95,2.3c-.61.61-1.43.95-2.3.95Zm0-6.26c-.8,0-1.56.31-2.13.88-.57.57-.88,1.32-.88,2.13s.31,1.56.88,2.13c.57.57,1.32.88,2.13.88s1.56-.31,2.13-.88c.57-.57.88-1.32.88-2.13s-.31-1.56-.88-2.13c-.57-.57-1.32-.88-2.13-.88Z"/></svg>