<svg width="18" height="18" viewBox="0 0 18 18" fill="none" xmlns="http://www.w3.org/2000/svg">
<path d="M17.8095 16.9203L12.4361 11.5469C13.4905 10.2893 14.1002 8.72689 14.1002 7.05011C14.1002 5.17008 13.3634 3.39167 12.0296 2.07057C10.6958 0.736768 8.93013 0 7.05011 0C5.17008 0 3.39167 0.736768 2.07057 2.07057C0.736768 3.40438 0 5.17008 0 7.05011C0 8.93013 0.736768 10.7085 2.07057 12.0296C3.40438 13.3634 5.17008 14.1002 7.05011 14.1002C8.71418 14.1002 10.2766 13.4905 11.5469 12.4361L16.9203 17.8095C17.0473 17.9365 17.2124 18 17.3649 18C17.5173 18 17.6951 17.9365 17.8095 17.8095C18.0635 17.5554 18.0635 17.1616 17.8095 16.9076V16.9203ZM2.95977 11.1404C1.86733 10.048 1.27029 8.59986 1.27029 7.05011C1.27029 5.50035 1.86733 4.05222 2.95977 2.95977C4.05222 1.86733 5.50035 1.27029 7.05011 1.27029C8.59986 1.27029 10.048 1.86733 11.1404 2.95977C12.2329 4.05222 12.8299 5.50035 12.8299 7.05011C12.8299 8.59986 12.2329 10.048 11.1404 11.1404C10.048 12.2329 8.59986 12.8299 7.05011 12.8299C5.50035 12.8299 4.05222 12.2329 2.95977 11.1404Z" fill="black"/>
</svg>
