<?xml version="1.0" encoding="UTF-8"?><svg id="Capa_1" xmlns="http://www.w3.org/2000/svg" viewBox="0 0 16 16"><path d="m4.8,6.76c0-.54,0-1.08,0-1.61.03-1.34.62-2.35,1.78-2.96,1.89-1,4.24.23,4.57,2.38.05.29.04.6.05.89,0,.43,0,.86,0,1.28.17.04.33.05.48.11.42.16.71.57.71,1.03,0,1.72,0,3.44,0,5.16,0,.63-.5,1.12-1.13,1.12-1.4,0-2.81,0-4.21,0-.76,0-1.52,0-2.28,0-.7,0-1.18-.49-1.18-1.21,0-1.65.01-3.29,0-4.94,0-.76.55-1.27,1.16-1.25.01,0,.02,0,.05-.01Zm3.2.83h-3.21c-.27,0-.39.12-.39.4v4.95c0,.29.12.4.4.4h6.41c.28,0,.39-.12.39-.4v-4.94c0-.29-.11-.41-.4-.41h-3.2Zm2.4-.83c0-.46,0-.92,0-1.37,0-.22,0-.45-.03-.67-.19-1.26-1.31-2.16-2.54-2.07-1.25.1-2.22,1.16-2.23,2.44,0,.52,0,1.03,0,1.55,0,.03,0,.07,0,.1h4.79Z"/></svg>