<svg width="37" height="21" viewBox="0 0 37 21" fill="none" xmlns="http://www.w3.org/2000/svg">
<path d="M36.5 12.0496C36.5 11.1696 36.19 10.3096 35.62 9.63963L33.83 7.50963C33 6.52963 31.79 5.95963 30.51 5.95963H26.34V3.87963C26.34 1.73963 24.6 -0.000366211 22.46 -0.000366211H6.71V7.43963H0.8C0.52 7.43963 0.3 7.65963 0.3 7.93963C0.3 8.21963 0.52 8.43963 0.8 8.43963H6.71V9.91963H4.42C4.14 9.91963 3.92 10.1396 3.92 10.4196C3.92 10.6996 4.14 10.9196 4.42 10.9196H6.71V12.2896H0.5C0.22 12.2896 0 12.5096 0 12.7896C0 13.0696 0.22 13.2896 0.5 13.2896H6.71V14.2696C5.69 14.4996 4.92 15.4096 4.92 16.5096V18.3896H10.52C10.9 19.7996 12.18 20.8396 13.71 20.8396C15.24 20.8396 16.52 19.7996 16.9 18.3896H27.74C28.12 19.7996 29.4 20.8396 30.93 20.8396C32.46 20.8396 33.74 19.7996 34.12 18.3896H36.51V12.0496H36.5ZM9.56 12.2896H7.71V10.9196H12.12C12.4 10.9196 12.62 10.6996 12.62 10.4196C12.62 10.1396 12.4 9.91963 12.12 9.91963H7.71V8.43963H15.81C16.09 8.43963 16.31 8.21963 16.31 7.93963C16.31 7.65963 16.09 7.43963 15.81 7.43963H7.71V1.00963H22.47C24.05 1.00963 25.35 2.29963 25.35 3.88963V14.2196H7.71V13.2996H9.56C9.84 13.2996 10.06 13.0796 10.06 12.7996C10.06 12.5196 9.84 12.2996 9.56 12.2996V12.2896ZM5.92 16.4996C5.92 15.7896 6.5 15.1996 7.22 15.1996H11.35C10.79 15.7696 10.45 16.5296 10.41 17.3796H5.92V16.4996ZM13.71 19.8396C12.43 19.8396 11.39 18.7996 11.39 17.5196C11.39 16.2396 12.43 15.1996 13.71 15.1996C14.99 15.1996 16.03 16.2396 16.03 17.5196C16.03 18.7996 14.99 19.8396 13.71 19.8396ZM25.35 17.3896H17.02C16.98 16.5396 16.64 15.7796 16.08 15.2096H25.35V17.3896ZM30.93 19.8396C29.65 19.8396 28.61 18.7996 28.61 17.5196C28.61 16.2396 29.65 15.1996 30.93 15.1996C32.21 15.1996 33.25 16.2396 33.25 17.5196C33.25 18.7996 32.21 19.8396 30.93 19.8396ZM35.51 17.3896H34.23C34.16 15.6296 32.71 14.2096 30.93 14.2096C29.15 14.2096 27.7 15.6296 27.63 17.3896H26.35V6.95963H30.52C31.51 6.95963 32.44 7.38963 33.07 8.14963L34.86 10.2796C35.28 10.7796 35.5 11.3996 35.5 12.0496V17.3896H35.51Z" fill="black"/>
<path d="M32.26 9.03963C31.75 8.28963 30.9 7.84963 30 7.84963H28.39V12.9496H33.03C33.41 12.9496 33.75 12.7396 33.92 12.4096C34.09 12.0796 34.07 11.6796 33.86 11.3696L32.26 9.03963ZM29.39 8.84963H30C30.58 8.84963 31.11 9.12963 31.44 9.60963L33.03 11.9596H29.39V8.84963Z" fill="black"/>
<path d="M13.71 16.4396C13.11 16.4396 12.62 16.9296 12.62 17.5296C12.62 18.1296 13.11 18.6196 13.71 18.6196C14.31 18.6196 14.8 18.1296 14.8 17.5296C14.8 16.9296 14.31 16.4396 13.71 16.4396Z" fill="black"/>
<path d="M30.92 16.4396C30.32 16.4396 29.83 16.9296 29.83 17.5296C29.83 18.1296 30.32 18.6196 30.92 18.6196C31.52 18.6196 32.01 18.1296 32.01 17.5296C32.01 16.9296 31.52 16.4396 30.92 16.4396Z" fill="black"/>
</svg>
