<svg width="24" height="24" viewBox="0 0 24 24" fill="none" xmlns="http://www.w3.org/2000/svg">
<path d="M0.121607 1.13041H23.8994V23.8419H0.121607V1.13041Z" fill="white"/>
<path d="M0 0.955872H24V23.9559H0V0.955872Z" fill="#008061"/>
<path d="M14.7975 22.4426V23.3634H9.04114V22.4409H4.68532C4.25971 22.4409 3.91302 22.0021 3.91302 21.4611L2.09038 3.28027C2.09038 2.73896 2.51599 2.29986 3.04119 2.29986H20.643C21.1647 2.29986 21.5904 2.73896 21.5904 3.28027L19.7883 21.4611C19.7883 22.0021 19.4416 22.4409 19.016 22.4409L14.7975 22.4426Z" fill="white"/>
<path d="M5.29633 4.96181H17.0801C15.9199 5.39076 12.3879 7.74939 11.5058 9.33518H5.30667L5.29633 4.96181Z" fill="#F5821F"/>
<path d="M14.6877 17.493C14.5195 19.0768 14.5126 21.0054 14.5126 23.0313H9.40509C9.40509 21.0054 9.49092 19.0768 9.65907 17.493H14.6877Z" fill="#ED1B2D"/>
<path d="M6.78608 15.2045V15.8183H5.96915V16.4324H6.78608V17.1359H4.91877V13.8618H6.78608V14.5911H5.96915V15.2045H6.78608Z" fill="#008061"/>
<path d="M11.1281 15.2045V15.8183H10.3147V16.4324H11.1281V17.1359H9.26435V13.8618H11.1281V14.5911H10.3147V15.2045H11.1281Z" fill="#008061"/>
<path d="M15.913 15.2045V15.8183H15.0961V16.4324H15.913V17.1359H14.0457V13.8618H15.913V14.5911H15.0961V15.2045H15.913Z" fill="#008061"/>
<path d="M8.18655 13.8618V16.4324H9.00339V17.1359H7.13618V13.8618H8.18655Z" fill="#008061"/>
<path d="M12.6351 16.0746L12.2368 13.8618H11.3204L11.8421 17.1359H13.191L13.8226 13.8618H13.0435L12.6351 16.0746Z" fill="#008061"/>
<path d="M16.3558 13.8618H17.3651V17.1356H16.3558V13.8618Z" fill="#008061"/>
<path d="M17.365 14.8338C17.4199 14.4753 17.9348 14.5714 17.9348 14.7762V17.1359H18.9474V14.3608C18.9474 13.7725 18.1064 13.5358 17.3718 14.0538L17.365 14.8338Z" fill="#008061"/>
<path d="M15.1614 13.4014C15.2643 12.1484 17.0046 10.1023 18.69 9.56501V4.73123C14.0527 6.77743 11.0389 9.87208 10.3868 13.3892L15.1614 13.4014Z" fill="#ED1B2D"/>
</svg>
