<?xml version="1.0" encoding="UTF-8"?><svg id="Capa_1" xmlns="http://www.w3.org/2000/svg" viewBox="0 0 16 16"><path d="m6.8,14.63h0c-.4,0-.77-.16-1.05-.44-.28-.29-.44-.66-.43-1.06,0-.82.68-1.48,1.49-1.48h0c.39,0,.77.16,1.05.44.28.29.44.66.44,1.07h0c0,.82-.67,1.48-1.5,1.48Zm0-2.24c-.41,0-.74.33-.75.74,0,.2.08.39.22.53.14.14.32.22.52.22h0c.41,0,.74-.33.75-.74,0-.2-.08-.39-.22-.53-.14-.14-.32-.22-.52-.22h0Zm1.11.75h0,0Z"/><path d="m11.39,14.63h0c-.4,0-.77-.16-1.05-.44-.28-.29-.44-.66-.43-1.06,0-.82.68-1.49,1.5-1.49h0c.39,0,.76.16,1.05.44.28.28.44.66.44,1.06,0,.82-.67,1.49-1.49,1.49Zm0-2.24c-.41,0-.74.33-.75.74,0,.2.08.39.22.53.14.14.32.22.52.22h0c.41,0,.74-.33.74-.74,0-.2-.08-.39-.22-.53-.14-.14-.32-.22-.52-.22h0Zm1.11.75h0,0Z"/><path d="m13.05,9.37h-7.43c-.18,0-.33-.12-.37-.29l-1.2-5.42s0-.03,0-.04l-.33-1.49h-1.96c-.21,0-.38-.17-.38-.38s.17-.38.38-.38h2.26c.18,0,.33.12.37.29l.33,1.51,8.96.02c.29,0,.57.13.75.37.18.23.24.53.17.82l-1.18,4.69c-.04.17-.19.28-.36.28Zm-7.13-.75h6.84l1.11-4.41c.02-.08-.01-.15-.04-.18-.02-.03-.07-.08-.16-.08l-8.79-.02,1.04,4.68Z"/><path d="m12.51,11.26h-7.26c-.73,0-1.32-.59-1.32-1.32s.59-1.32,1.32-1.32h.36c.21,0,.38.17.38.38s-.17.38-.38.38h-.36c-.31,0-.57.25-.57.57s.25.57.57.57h7.26c.21,0,.38.17.38.38s-.17.38-.38.38Z"/></svg>