<svg width="41" height="14" viewBox="0 0 41 14" fill="none" xmlns="http://www.w3.org/2000/svg">
<path d="M24.6 0.367931V13.8811H35.4357V10.9615H28.6512V7.83508H34.8012V5.09626H28.6512V3.70102H35.4357V0.367931H24.6Z" fill="#F08300"/>
<path d="M36.9 4.68286H38.3643V1.78902L41 5.50967V0.135391H36.9V4.68286Z" fill="#36338A"/>
<path d="M36.9 7.5767H38.3643V10.3672L41 6.64654V13.6744H36.9V7.5767Z" fill="#36338A"/>
<path d="M12.6592 13.7778V0.135391H17.5812C19.2615 0.135391 20.3568 0.204292 20.867 0.342094C21.6498 0.550267 22.3436 1.03114 22.837 1.70737C23.3661 2.40878 23.6306 3.31448 23.6306 4.42448C23.6306 5.28161 23.478 6.00197 23.1728 6.58556C22.8961 7.13633 22.4975 7.60796 22.0111 7.96013C21.5783 8.27659 21.0917 8.50122 20.5781 8.62158C19.9182 8.75456 18.9628 8.8214 17.712 8.82209H16.6929V13.7747L12.6592 13.7778ZM16.5952 2.92588V5.92308H17.5949C18.3153 5.92308 18.7965 5.86796 19.0386 5.75771C19.2755 5.65321 19.4753 5.47241 19.6097 5.24096C19.751 4.99267 19.8227 4.70702 19.8167 4.41724C19.8289 4.07352 19.7251 3.73643 19.5238 3.46641C19.3408 3.22261 19.0815 3.05617 18.7926 2.99719C18.574 2.94827 18.1357 2.92416 17.4777 2.92485L16.5952 2.92588Z" fill="#36338A"/>
<path d="M0 9.23033L3.70952 9.02362C3.85595 9.73365 4.0551 10.4447 4.50219 10.8116C4.94929 11.1785 5.18552 11.3635 5.98795 11.3635C6.87336 11.3635 6.95438 11.1909 7.40148 10.8467C7.54553 10.7354 7.66179 10.5885 7.7402 10.4189C7.81861 10.2492 7.85681 10.0619 7.8515 9.87317C7.85957 9.61874 7.77218 9.37127 7.60843 9.18485C7.29294 8.84872 6.89662 8.61034 6.46238 8.4955C3.69976 7.84645 2.5381 7.25321 1.79619 6.71785C0.772167 5.97165 0.5535 5.14381 0.5535 3.82401C0.5535 2.62926 1.09333 1.83139 1.97874 1.01801C2.86414 0.204636 4.04241 0 5.90302 0C7.67383 0 8.99006 0.307299 9.85171 0.921896C10.7127 1.53684 10.9499 2.80806 11.275 4.01107L7.56548 4.21778C7.42686 3.68138 7.32143 3.13052 6.93095 2.84423C6.54957 2.54203 6.08927 2.372 5.6131 2.35745C5.125 2.35745 4.90438 2.44736 4.51391 2.71504C4.3943 2.79279 4.29558 2.90178 4.2272 3.03154C4.15883 3.1613 4.12309 3.30749 4.12343 3.45608C4.12504 3.58737 4.15692 3.71625 4.2163 3.83153C4.27567 3.94681 4.36075 4.04498 4.46412 4.11753C4.77357 4.3604 5.15624 4.49579 6.98074 4.9371C8.80524 5.37841 9.88295 6.02333 10.6053 6.66307C11.3277 7.30282 11.6791 8.21335 11.6791 9.37709C11.6791 10.6407 11.1836 11.7273 10.1924 12.6368C9.2006 13.5453 7.9296 14 5.98795 14C4.22495 14 2.63474 13.6186 1.60681 12.8569C0.578881 12.0952 0.317262 10.5419 0 9.23033Z" fill="#36338A"/>
</svg>
