<?xml version="1.0" encoding="UTF-8"?><svg id="Capa_1" xmlns="http://www.w3.org/2000/svg" viewBox="0 0 16 16"><path d="m8,2.15c.09,0,.18.05.23.14l1.7,3.44c.04.08.11.13.19.14l3.8.55c.21.03.29.29.14.43l-2.75,2.68c-.06.06-.09.14-.07.23l.65,3.79c.03.16-.1.3-.25.3-.04,0-.08,0-.12-.03l-3.4-1.79s-.08-.03-.12-.03-.08,0-.12.03l-3.4,1.79s-.08.03-.12.03c-.15,0-.28-.13-.25-.3l.65-3.79c.01-.08-.01-.17-.07-.23l-2.75-2.68c-.15-.15-.07-.4.14-.43l3.8-.55c.08-.01.15-.06.19-.14l1.7-3.44c.05-.09.14-.14.23-.14m0-1c-.48,0-.91.27-1.13.7l-1.53,3.09-3.41.5c-.48.07-.86.4-1.01.85-.15.46-.03.95.32,1.29l2.47,2.41-.58,3.4c-.06.37.04.74.28,1.02.24.28.59.45.96.45.2,0,.4-.05.58-.14l3.05-1.61,3.05,1.61c.18.09.38.14.58.14.37,0,.72-.16.96-.45.24-.28.34-.65.28-1.02l-.58-3.4,2.47-2.41c.34-.34.47-.83.32-1.29-.15-.46-.54-.78-1.01-.85l-3.41-.5-1.53-3.09c-.21-.43-.64-.7-1.13-.7h0Z"/></svg>