<svg width="62" height="13" viewBox="0 0 62 13" fill="none" xmlns="http://www.w3.org/2000/svg">
<path fill-rule="evenodd" clip-rule="evenodd" d="M6.84863 5.57904C6.87247 3.76726 5.4898 3.14745 3.89224 3.14745C2.39037 3.14745 0.768978 3.93414 0.768978 5.57904C0.768978 6.84285 1.65103 7.29579 2.55692 7.60537C3.582 7.96296 4.32135 8.03481 4.32135 8.55927C4.32135 9.05989 3.79689 9.27445 3.34361 9.27445C2.96218 9.27445 2.69995 9.27445 2.4854 9.08373C2.31852 8.91686 2.22317 8.67813 2.22317 8.24936H0.00645562C-0.11274 10.1327 1.43681 10.9193 3.15323 10.9193C4.77429 10.9193 6.49104 10.0605 6.49104 8.2732C6.49104 7.41433 6.08578 6.69915 4.77429 6.24621C4.03528 6.00781 2.96251 5.96014 2.96251 5.41184C2.96251 4.91121 3.4393 4.81586 3.82072 4.81586C4.08296 4.81586 4.32135 4.8397 4.48822 4.95889C4.63126 5.07809 4.75045 5.2688 4.75045 5.57871L6.84863 5.57904ZM13.0471 5.36449H10.997L10.5202 7.53419C10.3533 8.24936 10.3295 9.22644 9.39942 9.22644C9.08951 9.22644 8.80344 9.05956 8.80344 8.74998C8.80344 8.74998 8.80344 8.46358 8.87496 8.17751L9.51862 5.36416H7.44428C6.80062 8.32022 6.63375 8.98771 6.63375 9.44099C6.63375 10.4661 7.39693 10.8713 8.3505 10.8713C9.06567 10.8713 9.66166 10.6088 10.0673 10.0605H10.1149L9.92422 10.7286H11.9267L13.0471 5.36449ZM15.9797 9.36947C15.3122 9.36947 15.2407 8.70197 15.2407 8.48742C15.2407 8.03481 15.4076 6.69948 16.3134 6.69948C16.9094 6.69948 17.0525 7.12892 17.0525 7.67722C17.0525 8.34439 16.7902 9.36947 15.9797 9.36947ZM12.332 12.4927H14.3821L14.8589 10.0605C15.3119 10.7995 15.9079 10.8713 16.5038 10.8713C18.3156 10.8713 19.1026 9.01155 19.1026 7.43817C19.1026 6.4846 18.6735 5.22112 17.1713 5.22112C16.5277 5.22112 16.0509 5.48335 15.6933 5.95981L15.7887 5.36383H13.8338L12.332 12.4927ZM21.3677 7.4385C21.5107 6.8902 21.8921 6.53261 22.4404 6.53261C22.9649 6.53261 23.2271 6.84318 23.2271 7.27162C23.2271 7.29546 23.2033 7.41466 23.2033 7.4385H21.3677ZM22.8457 9.15525C22.7504 9.36914 22.4881 9.53601 22.0352 9.53601C21.415 9.53601 21.2005 9.0834 21.2005 8.5351H25.0151C25.1343 8.17751 25.1343 7.8676 25.1343 7.5812C25.1343 5.88862 23.7039 5.22145 22.4878 5.22145C21.1766 5.22145 19.2695 6.03199 19.2695 8.48742C19.2695 9.79891 20.0324 10.8717 21.9633 10.8717C24.2996 10.8717 24.681 9.53634 24.824 9.15525H22.8457ZM25.0869 10.7286H27.1609L27.6139 8.48709C27.8761 7.36698 28.2814 6.98555 29.1634 6.98555C29.4495 6.98555 29.7356 7.00939 29.974 7.12859L30.3554 5.29297C30.1412 5.22145 29.974 5.22145 29.6167 5.22145C29.0922 5.22145 28.4244 5.62672 28.043 6.22237L28.2099 5.36416H26.2074L25.0869 10.7286ZM31.4046 9.2026C31.4046 8.79766 31.7384 8.63079 32.0721 8.60695C32.4297 8.55894 32.8112 8.5351 33.1687 8.34439C33.0257 9.15525 32.74 9.65587 32.048 9.65587C31.7381 9.65587 31.4046 9.58402 31.4046 9.2026ZM32.0006 6.98588C32.1195 6.55645 32.4056 6.41341 32.8108 6.41341C33.1207 6.41341 33.4548 6.53228 33.4548 6.91404C33.4548 7.58153 32.5248 7.48651 31.9288 7.51034C30.4031 7.65338 29.3541 8.03481 29.3541 9.44132C29.3541 10.4664 30.1885 10.8717 31.0944 10.8717C31.6901 10.8717 32.4052 10.681 32.7396 10.2042H32.787C32.7396 10.3949 32.787 10.5618 32.8588 10.7286H34.8617C34.7898 10.4899 34.8136 10.6806 34.7898 10.2754C34.7898 9.89393 35.41 7.51001 35.41 6.67597C35.41 5.34065 33.7889 5.22145 32.8108 5.22145C31.4762 5.22145 30.4031 5.5552 30.0693 6.98588H32.0006ZM35.41 10.7286H37.4598L38.1273 7.65305C38.223 7.20044 38.461 6.84285 38.9862 6.84285C39.3199 6.84285 39.4868 7.00972 39.4868 7.36731C39.4868 7.51035 39.4388 7.7249 39.4149 7.86793L38.7954 10.729H40.8453L41.5605 7.48651C41.6323 7.08091 41.9419 6.84318 42.3237 6.84318C42.6812 6.84318 42.8481 7.05707 42.8481 7.36764C42.8481 7.53452 42.7524 8.08282 42.7524 8.17784L42.1806 10.729H44.2546L44.8979 7.67722C44.9218 7.4385 45.0416 7.05707 45.0416 6.81901C45.0416 5.72208 44.3735 5.22145 43.3007 5.22145C42.5617 5.22145 41.9661 5.5552 41.5128 6.1035C41.4178 5.43567 40.7738 5.22145 40.0824 5.22145C39.3911 5.22145 38.819 5.5552 38.3902 6.07966H38.3663L38.5094 5.36449H36.5304L35.41 10.7286ZM47.0915 9.2026C47.0915 8.79766 47.4252 8.63079 47.759 8.60695C48.1166 8.55894 48.498 8.5351 48.8556 8.34439C48.7125 9.15525 48.4268 9.65587 47.7348 9.65587C47.4252 9.65587 47.0915 9.58402 47.0915 9.2026ZM47.6878 6.98588C47.8067 6.55645 48.0927 6.41341 48.498 6.41341C48.8317 6.41341 49.142 6.53228 49.142 6.91404C49.142 7.58153 48.2119 7.48651 47.6159 7.51034C46.0906 7.65338 45.0416 8.03481 45.0416 9.44132C45.0416 10.4664 45.828 10.8717 46.7819 10.8717C47.3776 10.8717 48.0927 10.681 48.4271 10.2042H48.4745C48.4271 10.3949 48.4745 10.5618 48.5463 10.7286H50.5492C50.4773 10.4899 50.5011 10.6806 50.4773 10.2754C50.4773 9.89393 51.0975 7.51001 51.0975 6.67597C51.0975 5.34065 49.4764 5.22145 48.4983 5.22145C47.1637 5.22145 46.0909 5.5552 45.7565 6.98588H47.6878Z" fill="#304296"/>
<path fill-rule="evenodd" clip-rule="evenodd" d="M56.5323 2.38424C57.033 2.38424 57.1763 2.55112 57.1763 2.81335C57.1763 3.09942 56.8658 3.29013 56.3893 3.29013C55.936 3.29013 55.793 3.09942 55.793 2.90871C55.7933 2.76567 55.984 2.38424 56.5323 2.38424Z" fill="#CC212F"/>
<path fill-rule="evenodd" clip-rule="evenodd" d="M55.5555 7.00972L56.08 7.08091C56.08 7.08091 55.6985 10.4184 49.8808 12.4212C45.3037 13.9714 40.3928 11.8968 40.3928 11.8968L41.108 10.7048C43.3489 11.5868 44.7792 11.9924 47.0198 11.9924C49.2371 11.9924 52.0501 10.9197 53.4567 9.72706C54.8165 8.48742 55.5555 7.00972 55.5555 7.00972Z" fill="#304296"/>
<path fill-rule="evenodd" clip-rule="evenodd" d="M55.4833 3.19478C55.4833 3.19478 54.6012 3.55237 54.2675 4.10067C53.8619 4.62513 53.743 5.5787 52.7891 5.5787C51.8352 5.5787 51.3107 4.4821 51.3107 3.62389C51.3107 2.69383 52.1216 2.21704 53.3136 2.21704C54.5055 2.21704 55.3164 2.5988 55.4833 3.19478ZM55.5313 2.45577C54.7442 1.7641 53.934 2.02666 53.5523 2.02666C53.2185 2.02666 52.6702 1.85979 52.6702 1.54988C52.6702 0.810863 53.9337 0 55.769 0C56.7467 0 57.2712 0.214552 57.2712 0.810532C57.2715 1.40684 56.3895 2.31273 55.5313 2.45577ZM57.343 2.45577C57.343 0.905889 57.9387 0.143035 59.1783 0.143035C60.371 0.143035 61.3239 1.0966 61.3239 1.78794C61.3239 2.14553 61.205 2.3124 60.7756 2.3124C60.3706 2.3124 59.5836 2.00216 59.0591 2.00216C58.5112 2.00282 57.9387 2.09818 57.343 2.45577ZM57.2715 3.29014C57.7242 2.69416 58.2254 2.43193 59.5601 2.43193C60.8477 2.43193 61.9443 2.95639 61.9443 3.95764C61.9443 4.98272 60.371 5.81709 59.7747 5.81709C59.1783 5.81709 58.8926 5.1496 58.6539 4.69665C58.4393 4.2202 57.8675 3.43317 57.2715 3.29014Z" fill="#CC212F"/>
<path fill-rule="evenodd" clip-rule="evenodd" d="M56.4374 3.55238C57.6052 3.55238 58.7498 4.81586 58.7498 5.81743C58.7498 6.6283 57.2476 6.81901 56.6043 6.81901C55.9361 6.81901 53.7674 6.48493 53.7674 5.6744C53.7674 4.55363 55.6742 3.55238 56.4374 3.55238Z" fill="#CC212F"/>
</svg>
