<?xml version="1.0" encoding="UTF-8"?><svg id="Capa_1" xmlns="http://www.w3.org/2000/svg" viewBox="0 0 16 16"><path d="m12.1,6.49c-.21,0-.38-.17-.38-.38v-1.87h-7.44v1.87c0,.21-.17.38-.38.38s-.38-.17-.38-.38v-2.24c0-.21.17-.38.38-.38h8.19c.21,0,.38.17.38.38v2.24c0,.21-.17.38-.38.38Z"/><path d="m8,12.5c-.21,0-.38-.17-.38-.38V3.87c0-.21.17-.38.38-.38s.38.17.38.38v8.25c0,.21-.17.38-.38.38Z"/><path d="m9.91,12.5h-3.82c-.21,0-.38-.17-.38-.38s.17-.38.38-.38h3.82c.21,0,.38.17.38.38s-.17.38-.38.38Z"/></svg>