<svg width="10" height="10" viewBox="0 0 10 10" fill="none" xmlns="http://www.w3.org/2000/svg">
<path d="M4.43886 8.88623V1.12255H1.1139C1.1139 1.16706 1.1139 1.21261 1.1139 1.25816C1.1139 1.57494 1.11807 1.89172 1.1125 2.2085C1.10729 2.50441 0.923321 2.71931 0.646849 2.76764C0.39472 2.8118 0.142591 2.67688 0.0479996 2.43626C0.0187875 2.3615 0.0034859 2.27665 0.00279037 2.19633C-0.00103503 1.65805 -0.000339504 1.12011 0.00139931 0.581833C0.00244261 0.235498 0.235792 0.000782384 0.581817 0.000782384C3.52807 -0.000260795 6.47398 -0.000260795 9.42023 0.000782384C9.76487 0.000782384 9.99717 0.236889 9.99856 0.584267C10.0003 1.1222 10.0006 1.66048 9.99856 2.19841C9.99717 2.53049 9.75408 2.78085 9.4411 2.77877C9.13402 2.77668 8.89302 2.53258 8.88746 2.20606C8.88189 1.8938 8.88607 1.5812 8.88607 1.26894C8.88607 1.22234 8.88607 1.17575 8.88607 1.12116H5.56284V8.87789C5.60631 8.88067 5.65186 8.88554 5.69707 8.88554C6.01806 8.88623 6.33939 8.88206 6.66038 8.88762C6.91981 8.89214 7.1163 9.03993 7.19246 9.27151C7.26375 9.48815 7.20289 9.73468 7.0151 9.86647C6.91738 9.93497 6.78731 9.99235 6.67116 9.99305C5.55623 10.0024 4.44095 10.0007 3.32602 9.99722C3.01825 9.99617 2.78351 9.75137 2.78142 9.44851C2.77934 9.13381 3.01268 8.89458 3.34167 8.88762C3.65813 8.88102 3.9753 8.88588 4.29176 8.88588C4.33836 8.88588 4.38496 8.88623 4.43886 8.88623Z" fill="black"/>
</svg>
