<?xml version="1.0" encoding="UTF-8"?><svg id="Capa_1" xmlns="http://www.w3.org/2000/svg" viewBox="0 0 24.89 16"><path d="m23.31,8.6l-1.13-1.34c-.53-.63-1.31-1-2.14-1h-2.58v-1.25c0-1.38-1.12-2.51-2.51-2.51h-6.68c-.21-1.27-1.31-2.25-2.64-2.25-1.48,0-2.69,1.21-2.69,2.69,0,1.24.85,2.28,1.99,2.59v1.29H1.26c-.21,0-.38.17-.38.38s.17.38.38.38h3.67v.82h-1.38c-.21,0-.38.17-.38.38s.17.38.38.38h1.38v.75H1.08c-.21,0-.38.17-.38.38s.17.38.38.38h3.86v.91c-.65.17-1.13.76-1.13,1.45v.87c0,.21.17.38.38.38h3.18c.26.89,1.08,1.55,2.06,1.55s1.79-.66,2.06-1.55h6.76c.26.89,1.08,1.55,2.06,1.55s1.79-.66,2.06-1.55h1.15c.21,0,.38-.17.38-.38v-3.69c0-.57-.2-1.13-.57-1.56Zm-6.6,4.88h-5.15c-.03-.48-.22-.92-.52-1.26h5.67v1.26ZM3.69,2.94c0-1.07.87-1.94,1.94-1.94s1.94.87,1.94,1.94-.87,1.94-1.94,1.94-1.94-.87-1.94-1.94Zm3.11,6.93h-1.11v-.75h2.72c.21,0,.38-.17.38-.38s-.17-.38-.38-.38h-2.72v-.82h5.06c.21,0,.38-.17.38-.38s-.17-.38-.38-.38h-5.06v-1.19c1.35-.03,2.44-1.05,2.6-2.37h6.67c.97,0,1.76.79,1.76,1.76v6.46H5.69v-.85h1.11c.21,0,.38-.17.38-.38s-.17-.38-.38-.38Zm-2.24,3.11c0-.42.34-.76.76-.76h2.48c-.3.34-.49.78-.52,1.26h-2.72v-.5Zm4.86,2.05c-.77,0-1.4-.63-1.4-1.4s.63-1.4,1.4-1.4,1.4.63,1.4,1.4-.63,1.4-1.4,1.4Zm10.88,0c-.77,0-1.41-.63-1.41-1.4s.63-1.4,1.41-1.4,1.4.63,1.4,1.4-.63,1.4-1.4,1.4Zm2.83-1.55h-.69c-.08-1.12-1-2.01-2.14-2.01s-2.06.89-2.14,2.01h-.69v-6.47h2.58c.61,0,1.18.27,1.57.73l1.13,1.34c.25.3.39.69.39,1.08v3.32Z"/><path d="m21.19,8.23c-.33-.49-.89-.78-1.48-.78h-.7c-.21,0-.38.17-.38.38v2.59c0,.21.17.38.38.38h2.62c.26,0,.5-.14.62-.37.12-.23.1-.5-.04-.72l-1.01-1.47Zm-1.8,1.81v-1.84h.33c.34,0,.67.17.86.45l.95,1.39h-2.14Z"/><circle cx="9.42" cy="13.63" r=".69"/><path d="m20.3,12.94c-.38,0-.69.31-.69.69s.31.69.69.69.69-.31.69-.69-.31-.69-.69-.69Z"/><path d="m6.09,2.92v-.87c0-.21-.17-.38-.38-.38s-.38.17-.38.38v.75l-.5.71c-.12.17-.08.4.09.52.07.05.14.07.22.07.12,0,.23-.05.31-.16l.57-.81c.04-.06.07-.14.07-.22Z"/></svg>