<?xml version="1.0" encoding="UTF-8"?><svg id="Capa_1" xmlns="http://www.w3.org/2000/svg" viewBox="0 0 16 16"><path d="m13.15,5.15c0-.8-.65-1.45-1.45-1.45h-1.15v-.55c0-.62-.51-1.13-1.13-1.13h-2.86c-.62,0-1.13.51-1.13,1.13v.55h-1.15c-.8,0-1.45.65-1.45,1.45,0,.65.43,1.19,1.01,1.37v6.06c0,.77.62,1.39,1.39,1.39h5.5c.77,0,1.39-.62,1.39-1.39v-6.06c.58-.19,1.01-.73,1.01-1.37Zm-6.96-1.99c0-.21.17-.38.38-.38h2.86c.21,0,.38.17.38.38v.55h-3.61v-.55Zm5.19,9.42c0,.35-.29.64-.64.64h-5.5c-.35,0-.64-.29-.64-.64v-5.98h6.78v5.98Zm.31-6.73h-7.41c-.38,0-.7-.31-.7-.7s.31-.7.7-.7h7.41c.38,0,.7.31.7.7s-.31.7-.7.7Z"/></svg>