<svg width="14" height="17" viewBox="0 0 14 17" fill="none" xmlns="http://www.w3.org/2000/svg">
<path d="M11.0688 16.9998C11.1807 16.9696 11.2939 16.9426 11.4047 16.9084C12.2283 16.657 12.8067 15.8921 12.8486 14.9996C12.853 14.9059 12.8526 14.8118 12.8526 14.7176C12.8526 11.5598 12.8534 8.40148 12.8506 5.24359C12.8506 5.12007 12.8711 5.05255 13.0073 5.00449C13.6605 4.77374 14.0786 4.08306 13.9876 3.41503C13.8897 2.69893 13.3218 2.15402 12.6053 2.09206C12.466 2.08014 12.3258 2.07339 12.1856 2.07299C11.5968 2.07101 11.008 2.0722 10.4042 2.0722C10.3937 1.85257 10.3889 1.63929 10.3728 1.4268C10.3148 0.647159 9.64904 0.0144699 8.80687 0.00851238C7.601 0.000171847 6.39473 -0.00737435 5.18886 0.0108954C4.25928 0.0251935 3.62574 0.699188 3.60721 1.64445C3.60439 1.7771 3.60721 1.90936 3.60721 2.06346C3.54076 2.06664 3.48195 2.07141 3.42315 2.07141C2.82304 2.0718 2.22252 2.06584 1.6224 2.07339C0.909916 2.08213 0.387936 2.39192 0.108017 3.05241C-0.204123 3.78876 0.192195 4.70423 0.950998 4.98781C1.09841 5.04302 1.14795 5.11133 1.14795 5.2694C1.14271 8.43285 1.14432 11.5967 1.14352 14.7601C1.14352 15.4186 1.3308 16.0025 1.8266 16.466C2.11055 16.7317 2.44766 16.8961 2.8323 16.9672C2.86331 16.9728 2.89271 16.9887 2.92292 16.9998H11.0688ZM12.0451 5.10935C12.0451 5.16852 12.0451 5.21261 12.0451 5.2563C12.0451 8.43682 12.0451 11.6177 12.0439 14.7983C12.0439 14.9083 12.0346 15.0195 12.0173 15.1287C11.9174 15.7618 11.4204 16.2011 10.7824 16.2023C8.2579 16.2058 5.73299 16.2042 3.20848 16.2031C2.89392 16.2031 2.61521 16.1014 2.38322 15.8861C2.04772 15.5747 1.95065 15.1768 1.95065 14.7419C1.95065 11.5943 1.95065 8.44675 1.95065 5.29959V5.11014H12.0451V5.10935ZM7.0041 4.30349C5.24283 4.30349 3.48195 4.30349 1.72068 4.30309C1.63126 4.30309 1.54104 4.30111 1.45203 4.29158C1.07022 4.24987 0.79392 3.91983 0.821711 3.54252C0.851917 3.13184 1.16043 2.86932 1.62683 2.86932C5.20537 2.86813 8.78351 2.86852 12.362 2.86932C12.4345 2.86932 12.5078 2.87607 12.5795 2.88719C12.9183 2.94081 13.1688 3.22439 13.1833 3.56595C13.197 3.88885 12.9614 4.2042 12.6391 4.27688C12.5312 4.30111 12.4164 4.3023 12.3049 4.3023C10.5379 4.30389 8.77142 4.30349 7.00451 4.30349H7.0041ZM4.42562 2.06227C4.42562 1.86091 4.40992 1.67265 4.42885 1.48796C4.46912 1.0904 4.77804 0.806821 5.18483 0.804835C6.39674 0.798878 7.60865 0.798878 8.82056 0.804835C9.19916 0.806821 9.50646 1.06299 9.56164 1.42839C9.59225 1.63214 9.56728 1.84383 9.56728 2.06187H4.42603L4.42562 2.06227Z" fill="black"/>
</svg>
