<?xml version="1.0" encoding="UTF-8"?><svg id="Capa_1" xmlns="http://www.w3.org/2000/svg" viewBox="0 0 16 16"><path d="m14.43,6.38c-.17-.12-.4-.08-.52.09l-.6.86c-.34-2.97-2.86-5.29-5.92-5.29-3.29,0-5.96,2.68-5.96,5.97s2.68,5.97,5.96,5.97c1.32,0,2.58-.42,3.63-1.23.16-.13.2-.36.07-.53-.13-.16-.36-.19-.53-.07-.92.7-2.01,1.08-3.17,1.08-2.88,0-5.21-2.34-5.21-5.22S4.5,2.78,7.38,2.78c2.69,0,4.88,2.05,5.16,4.67l-.83-.58c-.17-.12-.4-.08-.52.09-.12.17-.08.4.09.52l1.59,1.11c.06.04.14.07.21.07.02,0,.04,0,.07,0,.1-.02.18-.07.24-.15l1.13-1.61c.12-.17.08-.4-.09-.52Z"/><path d="m5.43,8.88c-.19,0-.31-.1-.34-.29h-.59c0,.15.05.28.12.4.07.12.17.22.31.29s.29.11.48.11c.24,0,.43-.05.57-.16.14-.11.24-.27.29-.48s.09-.48.09-.8c0-.44-.07-.78-.22-1.01-.15-.23-.4-.34-.77-.34-.19,0-.36.04-.5.11-.14.07-.25.18-.32.32-.08.14-.11.3-.11.48s.04.34.11.48c.07.13.17.23.29.29.12.07.27.1.42.1.12,0,.22-.02.32-.06.09-.04.17-.1.22-.18,0,.26-.03.45-.08.57-.05.12-.15.18-.28.18Zm.22-1.1c-.06.06-.15.09-.25.09-.12,0-.21-.03-.27-.1s-.09-.15-.09-.26c0-.11.03-.2.09-.27s.15-.1.26-.1.2.03.26.1c.06.06.1.16.1.28,0,.11-.03.2-.09.26Z"/><path d="m6.95,6.98c-.17.25-.25.58-.25,1.01s.08.77.25,1.02c.17.25.43.37.8.37s.63-.12.8-.37.25-.59.25-1.02-.08-.76-.25-1.01c-.17-.25-.43-.37-.8-.37s-.63.12-.8.37Zm1.14.43c.05.14.08.33.08.58,0,.17-.01.31-.03.42s-.06.2-.12.27-.15.1-.27.1-.21-.03-.27-.1c-.06-.07-.1-.16-.12-.27-.02-.11-.03-.25-.03-.42,0-.25.03-.44.08-.58.05-.14.17-.2.34-.2s.29.07.34.2Z"/><path d="m9.81,6.74c-.15,0-.28.03-.4.09-.12.06-.21.14-.27.24s-.1.22-.1.35.03.25.1.35c.06.1.15.18.27.24.11.06.25.09.39.09s.28-.03.4-.09c.12-.06.21-.14.27-.24.07-.1.1-.22.1-.35s-.03-.25-.1-.35-.15-.18-.27-.24c-.12-.06-.25-.09-.4-.09Zm.19.9c-.05.05-.12.08-.19.08s-.14-.03-.19-.08c-.05-.05-.08-.13-.08-.22s.03-.17.08-.23c.05-.05.11-.08.19-.08s.14.03.19.08c.05.05.08.13.08.23s-.03.17-.08.22Z"/></svg>