<svg width="22" height="21" viewBox="0 0 22 21" fill="none" xmlns="http://www.w3.org/2000/svg">
<g clip-path="url(#clip0_583_25678)">
<path d="M11 0C5.20647 0 0.5 4.70647 0.5 10.5C0.5 16.2935 5.20647 21 11 21C16.7935 21 21.5 16.2935 21.5 10.5C21.5 4.70647 16.7935 0 11 0ZM5.16941 17.6894C6.34294 15.5894 8.57882 14.2553 11 14.2553C13.4212 14.2553 15.6571 15.5894 16.8306 17.6894C15.2371 18.9865 13.2112 19.7647 11 19.7647C8.78882 19.7647 6.76294 18.9865 5.16941 17.6894ZM7.67706 8.85706C7.67706 7.02882 9.17176 5.53412 11 5.53412C12.8282 5.53412 14.3229 7.02882 14.3229 8.85706C14.3229 10.6853 12.8282 12.18 11 12.18C9.17176 12.18 7.67706 10.6853 7.67706 8.85706ZM17.7447 16.8124C16.5588 14.8853 14.6071 13.5635 12.4082 13.1559C14.2241 12.5506 15.5459 10.8582 15.5459 8.84471C15.5459 6.33706 13.5076 4.28647 10.9876 4.28647C8.46765 4.28647 6.42941 6.32471 6.42941 8.84471C6.42941 10.8582 7.75118 12.5506 9.56706 13.1559C7.36824 13.5635 5.41647 14.8853 4.23059 16.8124C2.67412 15.1571 1.72294 12.9335 1.72294 10.4876C1.73529 5.38588 5.88588 1.23529 11 1.23529C16.1141 1.23529 20.2647 5.38588 20.2647 10.5C20.2647 12.9459 19.3012 15.1694 17.7571 16.8247L17.7447 16.8124Z" fill="black"/>
</g>
<defs>
<clipPath id="clip0_583_25678">
<rect width="21" height="21" fill="white" transform="translate(0.5)"/>
</clipPath>
</defs>
</svg>
