<?xml version="1.0" encoding="UTF-8"?><svg id="Capa_1" xmlns="http://www.w3.org/2000/svg" viewBox="0 0 16 16"><path d="m8,1.89c3.37,0,6.11,2.73,6.11,6.11s-2.73,6.11-6.11,6.11S1.89,11.37,1.89,8,4.63,1.89,8,1.89m0-.75c-3.78,0-6.86,3.08-6.86,6.86s3.08,6.86,6.86,6.86,6.86-3.08,6.86-6.86S11.78,1.14,8,1.14h0Z"/><path d="m12.87,12.57c-.12,0-.25-.06-.32-.18-.94-1.51-2.68-2.44-4.55-2.44s-3.61.93-4.55,2.44c-.11.18-.34.23-.52.12-.18-.11-.23-.34-.12-.52,1.07-1.72,3.06-2.79,5.19-2.79s4.12,1.07,5.19,2.8c.11.18.06.41-.12.52-.06.04-.13.06-.2.06Z"/><path d="m8,9.95c-1.92,0-3.48-1.56-3.48-3.48s1.56-3.48,3.48-3.48,3.48,1.56,3.48,3.48-1.56,3.48-3.48,3.48Zm0-6.21c-1.5,0-2.73,1.22-2.73,2.73s1.22,2.73,2.73,2.73,2.73-1.22,2.73-2.73-1.22-2.73-2.73-2.73Z"/></svg>