<?xml version="1.0" encoding="UTF-8"?><svg id="Capa_1" xmlns="http://www.w3.org/2000/svg" viewBox="0 0 16 16"><path d="m13.53,14.01c-.21,0-.38-.17-.38-.38,0-2.64-2.31-4.78-5.16-4.78s-5.16,2.15-5.16,4.78c0,.21-.17.38-.38.38s-.38-.17-.38-.38c0-3.05,2.65-5.53,5.91-5.53s5.91,2.48,5.91,5.53c0,.21-.17.38-.38.38Z"/><path d="m8,8.85c-1.89,0-3.43-1.54-3.43-3.43s1.54-3.43,3.43-3.43,3.43,1.54,3.43,3.43-1.54,3.43-3.43,3.43Zm0-6.11c-1.48,0-2.68,1.2-2.68,2.68s1.2,2.68,2.68,2.68,2.68-1.2,2.68-2.68-1.2-2.68-2.68-2.68Z"/></svg>