<svg width="27" height="17" viewBox="0 0 27 17" fill="none" xmlns="http://www.w3.org/2000/svg">
<path d="M25.56 0H1.44C0.64471 0 0 0.646383 0 1.44374V15.5563C0 16.3536 0.64471 17 1.44 17H25.56C26.3553 17 27 16.3536 27 15.5563V1.44374C27 0.646383 26.3553 0 25.56 0Z" fill="#0E4595"/>
<path fill-rule="evenodd" clip-rule="evenodd" d="M10.0151 12.0634L11.2161 4.99769H13.137L11.9352 12.0634H10.0151Z" fill="white"/>
<path fill-rule="evenodd" clip-rule="evenodd" d="M18.8751 5.15008C18.4945 5.00693 17.8982 4.85332 17.1534 4.85332C15.2554 4.85332 13.9183 5.81164 13.907 7.1851C13.8963 8.20037 14.8615 8.76675 15.5901 9.10473C16.3378 9.45104 16.5892 9.67194 16.5856 9.98118C16.5809 10.4548 15.9885 10.6712 15.4364 10.6712C14.6675 10.6712 14.2591 10.5641 13.6282 10.3003L13.3807 10.188L13.1111 11.7697C13.5598 11.9669 14.3894 12.1378 15.2509 12.1467C17.2701 12.1467 18.5809 11.1993 18.5958 9.73268C18.6031 8.92892 18.0913 8.3172 16.9831 7.81294C16.3116 7.48608 15.9004 7.26797 15.9048 6.93699C15.9048 6.6433 16.2528 6.32925 17.0048 6.32925C17.633 6.31947 18.088 6.45681 18.4425 6.59995L18.6147 6.68149L18.8751 5.15008Z" fill="white"/>
<path fill-rule="evenodd" clip-rule="evenodd" d="M23.8181 4.99769H22.3338C21.874 4.99769 21.5299 5.12351 21.3279 5.58363L18.4751 12.0589H20.4922C20.4922 12.0589 20.8221 11.1883 20.8967 10.9971C21.1171 10.9971 23.0766 11.0001 23.3567 11.0001C23.4142 11.2475 23.5905 12.0589 23.5905 12.0589H25.3729L23.8181 4.99769ZM21.4631 9.56015C21.622 9.15306 22.2284 7.58501 22.2284 7.58501C22.2171 7.60382 22.3861 7.17593 22.4831 6.91064L22.613 7.51983C22.613 7.51983 22.9808 9.20644 23.0577 9.56012L21.4631 9.56015Z" fill="white"/>
<path fill-rule="evenodd" clip-rule="evenodd" d="M8.38449 4.99769L6.50385 9.81598L6.30347 8.83681C5.95337 7.70802 4.86257 6.4851 3.64311 5.87285L5.36272 12.0522L7.3951 12.0498L10.4192 4.99769H8.38449Z" fill="white"/>
<path fill-rule="evenodd" clip-rule="evenodd" d="M4.7491 4.99769H1.65163L1.62711 5.1447C4.03691 5.72956 5.63146 7.14294 6.29336 8.84117L5.61983 5.59421C5.50355 5.14679 5.16631 5.01329 4.7491 4.99769Z" fill="#F2AE14"/>
</svg>
