<svg width="68" height="16" viewBox="0 0 68 16" fill="none" xmlns="http://www.w3.org/2000/svg">
<path d="M39.44 8.51447C39.44 6.93439 38.7508 5.53831 36.4197 5.53831C35.2237 5.53831 34.2737 5.87282 33.7586 6.16561L34.1361 7.43327C34.6104 7.1413 35.3671 6.90085 36.0813 6.90085C37.2615 6.89922 37.4548 7.55431 37.4548 7.97551V8.07692C34.8787 8.07283 33.2502 8.94629 33.2502 10.7251C33.2502 11.812 34.077 12.8311 35.5221 12.8311C36.4039 12.8311 37.1489 12.4819 37.594 11.9306H37.6373C37.6373 11.9306 37.9307 13.1353 39.5534 12.6749C39.4709 12.1703 39.44 11.6387 39.44 10.9926V8.51447ZM37.5182 10.1829C37.5182 10.3105 37.5074 10.443 37.469 10.5566C37.3206 11.0433 36.8089 11.4506 36.1722 11.4506C35.6346 11.4506 35.2129 11.152 35.2129 10.5264C35.2129 9.5695 36.2897 9.30615 37.5182 9.31269" fill="#0071CE"/>
<path d="M0 3.38843C0 3.38843 1.68267 10.1439 1.95021 11.2382C2.26523 12.5173 2.82946 12.99 4.45798 12.6751L5.50976 8.48609C5.77562 7.44824 5.95645 6.704 6.12816 5.64652H6.15731C6.27649 6.71463 6.4482 7.44824 6.66571 8.48936C6.66571 8.48936 7.09491 10.3925 7.31746 11.3895C7.53413 12.3864 8.14419 13.0153 9.74188 12.6751L12.2455 3.38843H10.2244L9.36518 7.40571C9.13764 8.56951 8.93094 9.48632 8.7701 10.5528H8.74092C8.59593 9.49777 8.41173 8.61858 8.17504 7.4785L7.28495 3.38843H5.17639L4.22628 7.37381C3.9554 8.59077 3.70205 9.56647 3.54286 10.5994H3.51537C3.35119 9.63026 3.12867 8.39613 2.89279 7.22497C2.89279 7.22497 2.32856 4.37149 2.12939 3.38843" fill="#0071CE"/>
<path d="M17.8778 8.51447C17.8778 6.93439 17.1869 5.53831 14.8558 5.53831C13.6632 5.53831 12.7114 5.87282 12.1964 6.16561L12.5739 7.43327C13.0465 7.1413 13.8024 6.90085 14.5191 6.90085C15.6992 6.89922 15.8926 7.55431 15.8926 7.97551V8.07692C13.3165 8.07283 11.6863 8.94629 11.6863 10.7251C11.6863 11.812 12.5164 12.8311 13.9549 12.8311C14.8449 12.8311 15.5834 12.4819 16.0284 11.9306H16.0734C16.0734 11.9306 16.3684 13.1353 17.9895 12.6749C17.9061 12.1703 17.8778 11.6387 17.8778 10.9926V8.51447ZM15.9543 10.1829C15.9543 10.3105 15.9434 10.443 15.9068 10.5566C15.7567 11.0433 15.245 11.4506 14.6066 11.4506C14.0724 11.4506 13.649 11.152 13.649 10.5264C13.649 9.5695 14.7258 9.30615 15.9543 9.31269" fill="#0071CE"/>
<path d="M18.9266 3.38843V12.6718H20.8501V3.38843H18.9266Z" fill="#0071CE"/>
<path d="M45.3436 3.38843V10.2379C45.3436 11.1834 45.5245 11.8425 45.9137 12.2466C46.2554 12.6007 46.8146 12.8313 47.4805 12.8313C48.0523 12.8313 48.6115 12.7234 48.8757 12.6293L48.8523 11.1547C48.6548 11.1997 48.4289 11.2382 48.1189 11.2382C47.4622 11.2382 47.2455 10.83 47.2455 9.98112V7.35909H48.9207V5.58518H47.2455V3.38843" fill="#0071CE"/>
<path d="M40.3719 5.69943V12.6749H42.3605V9.1025C42.3605 8.91031 42.3729 8.74428 42.4038 8.59053C42.5522 7.83729 43.1347 7.36048 43.974 7.36048C44.2082 7.36048 44.3673 7.38584 44.544 7.41283V5.58411C44.3957 5.55794 44.2948 5.54404 44.1123 5.54404C43.3681 5.54404 42.5246 6.00776 42.1688 7.0178H42.1196V5.69943" fill="#0071CE"/>
<path d="M21.9671 5.69943V12.6749H23.9048V8.58072C23.9048 8.38852 23.9264 8.19224 23.9956 8.01476C24.1532 7.60011 24.544 7.12004 25.1716 7.12004C25.9516 7.12004 26.32 7.76614 26.32 8.69849V12.6749H28.2528V8.53164C28.2528 8.3509 28.2786 8.12926 28.3327 7.96896C28.4878 7.4987 28.9112 7.12004 29.4962 7.12004C30.2846 7.12004 30.6664 7.75223 30.6664 8.85142V12.6749H32.5974V8.5619C32.5974 6.40115 31.4772 5.54404 30.2054 5.54404C29.6462 5.54404 29.2012 5.67899 28.8011 5.92107C28.4627 6.12471 28.1661 6.41178 27.9002 6.78717H27.8711C27.5652 6.03638 26.8468 5.54404 25.9083 5.54404C24.7049 5.54404 24.1581 6.14025 23.8364 6.64405H23.8072V5.69943" fill="#0071CE"/>
<path d="M59.3275 5.38636C59.7075 5.38636 60.0275 5.19171 60.0692 4.94145L60.4459 0.754058C60.4459 0.339408 59.9484 0 59.3275 0C58.7032 0 58.209 0.339408 58.209 0.754058L58.589 4.94145C58.6291 5.19171 58.9474 5.38636 59.3275 5.38636Z" fill="#FFC220"/>
<path d="M57.0162 6.69663C57.2045 6.36949 57.1936 6.00637 56.9903 5.84443L53.4732 3.43096C53.1074 3.22159 52.5598 3.47104 52.2465 3.99937C51.9339 4.52688 51.9972 5.119 52.3556 5.32428L56.2494 7.09574C56.4986 7.18734 56.8244 7.01723 57.0162 6.69336" fill="#FFC220"/>
<path d="M61.6383 6.6932C61.8375 7.01707 62.1633 7.18718 62.4059 7.10049L66.2996 5.32412C66.6614 5.11475 66.7155 4.52835 66.4097 4.00084C66.0971 3.47251 65.5462 3.2247 65.1812 3.42998L61.6633 5.841C61.4683 6.00539 61.4541 6.37015 61.6424 6.69647" fill="#FFC220"/>
<path d="M59.3275 10.6169C59.7075 10.6169 60.0275 10.8116 60.0692 11.0618L60.4459 15.2492C60.4459 15.6639 59.9484 16 59.3275 16C58.7032 16 58.209 15.6639 58.209 15.2492L58.589 11.0618C58.6291 10.8116 58.9474 10.6169 59.3275 10.6169Z" fill="#FFC220"/>
<path d="M61.6383 9.31032C61.8375 8.98563 62.1633 8.81225 62.4059 8.9063L66.2996 10.6794C66.6614 10.8847 66.7155 11.476 66.4097 12.0043C66.0971 12.5286 65.5462 12.778 65.1812 12.5727L61.6633 10.1584C61.4683 9.99568 61.4541 9.63255 61.6424 9.31032" fill="#FFC220"/>
<path d="M57.0162 9.30672C57.2045 9.63304 57.1936 9.99535 56.9903 10.1589L53.4732 12.5691C53.1074 12.7785 52.5598 12.5282 52.2465 12.004C51.9339 11.4765 51.9972 10.8844 52.3556 10.6791L56.2494 8.90597C56.4986 8.81274 56.8244 8.98449 57.0162 9.30672Z" fill="#FFC220"/>
<path d="M67.4391 12.2053H67.4874C67.5533 12.2053 67.5799 12.2257 67.5875 12.2772C67.6016 12.3345 67.6091 12.3729 67.6233 12.3893H67.7483C67.7375 12.377 67.7233 12.3459 67.7158 12.274C67.7016 12.2118 67.6691 12.1766 67.6233 12.1644V12.1529C67.6866 12.139 67.7233 12.0973 67.7233 12.0458C67.7233 11.9992 67.7016 11.9656 67.6799 11.9444C67.6383 11.9247 67.5983 11.9092 67.5099 11.9092C67.4316 11.9092 67.3741 11.9157 67.3282 11.9264V12.3893H67.4391V12.2053ZM67.4424 11.9943L67.4991 11.9869C67.5658 11.9869 67.6016 12.0172 67.6016 12.0597C67.6016 12.1071 67.5533 12.1292 67.4916 12.1292H67.4424V11.9943ZM67.5133 11.6802C67.2399 11.6802 67.0232 11.8896 67.0232 12.1464C67.0232 12.4097 67.2399 12.6191 67.5133 12.6191C67.79 12.6191 68 12.4097 68 12.1464C68 11.8896 67.79 11.6802 67.5133 11.6802ZM67.5133 11.7743C67.7233 11.7743 67.8791 11.9411 67.8791 12.1464C67.8791 12.3533 67.7233 12.525 67.5133 12.5218C67.3033 12.5218 67.144 12.3533 67.144 12.1464C67.144 11.9411 67.3033 11.7743 67.5099 11.7743" fill="#FFC220"/>
</svg>
