<?xml version="1.0" encoding="UTF-8"?><svg id="Capa_1" xmlns="http://www.w3.org/2000/svg" viewBox="0 0 16 16"><path d="m8.02,2.72c-2.88,0-5.23,2.35-5.23,5.23,0,.92.24,1.82.7,2.61l-.74,2.71,2.77-.73c.76.42,1.62.64,2.5.64,2.88,0,5.23-2.35,5.23-5.23,0-1.4-.54-2.71-1.53-3.7-.99-.99-2.3-1.54-3.7-1.54m0,.88c1.16,0,2.25.45,3.07,1.28.82.82,1.27,1.92,1.27,3.08,0,2.4-1.95,4.34-4.35,4.34-.78,0-1.55-.21-2.21-.61l-.16-.09-1.65.43.44-1.6-.11-.17c-.43-.68-.66-1.49-.66-2.31,0-2.4,1.95-4.35,4.35-4.35m-1.86,1.93c-.08,0-.23.03-.35.16-.12.13-.46.45-.46,1.09s.47,1.26.53,1.35c.07.09.93,1.41,2.24,1.97.31.14.55.22.74.28.31.1.6.08.82.05.25-.04.77-.32.88-.62.11-.31.11-.56.08-.62-.04-.05-.12-.08-.25-.14-.13-.07-.78-.39-.89-.43-.12-.04-.2-.06-.3.06-.08.13-.34.43-.41.51-.08.09-.15.1-.28.04-.14-.07-.56-.21-1.06-.65-.39-.35-.65-.78-.73-.91-.06-.13,0-.21.06-.26.06-.06.14-.15.2-.23.07-.07.09-.13.13-.22.04-.09.02-.16-.01-.23-.03-.06-.3-.71-.41-.97-.11-.25-.21-.22-.3-.23-.07,0-.16,0-.25,0Z"/></svg>